<svg width="1600" height="175" viewBox="0 0 1600 175" fill="none" xmlns="http://www.w3.org/2000/svg">
<g clip-path="url(#clip0_888_5869)">
<rect width="1600" height="175" fill="white"/>
<rect width="1600" height="175" fill="url(#paint0_linear_888_5869)"/>
<path d="M331.6 78.32C329.573 78.32 327.64 78.04 325.8 77.48C323.987 76.92 322.533 76.1467 321.44 75.16C320.933 74.7333 320.68 74.1867 320.68 73.52C320.68 73.04 320.813 72.64 321.08 72.32C321.347 71.9733 321.667 71.8 322.04 71.8C322.413 71.8 322.867 71.9733 323.4 72.32C325.773 74.08 328.48 74.96 331.52 74.96C333.653 74.96 335.293 74.56 336.44 73.76C337.587 72.96 338.16 71.8133 338.16 70.32C338.16 69.1467 337.627 68.2667 336.56 67.68C335.493 67.0933 333.787 66.5333 331.44 66C329.2 65.52 327.36 64.9733 325.92 64.36C324.48 63.7467 323.347 62.92 322.52 61.88C321.72 60.8133 321.32 59.4667 321.32 57.84C321.32 56.2133 321.76 54.7733 322.64 53.52C323.547 52.24 324.8 51.2533 326.4 50.56C328 49.84 329.827 49.48 331.88 49.48C333.773 49.48 335.52 49.7467 337.12 50.28C338.72 50.8133 340.08 51.6 341.2 52.64C341.733 53.0933 342 53.64 342 54.28C342 54.7333 341.853 55.1333 341.56 55.48C341.293 55.8267 340.973 56 340.6 56C340.253 56 339.813 55.8267 339.28 55.48C338.053 54.5467 336.893 53.88 335.8 53.48C334.733 53.0533 333.44 52.84 331.92 52.84C329.867 52.84 328.267 53.2667 327.12 54.12C325.973 54.9467 325.4 56.1067 325.4 57.6C325.4 58.88 325.907 59.8533 326.92 60.52C327.933 61.16 329.56 61.7467 331.8 62.28C334.147 62.8133 336.04 63.3733 337.48 63.96C338.947 64.52 340.107 65.3067 340.96 66.32C341.84 67.3067 342.28 68.5867 342.28 70.16C342.28 71.76 341.827 73.1867 340.92 74.44C340.04 75.6667 338.787 76.6267 337.16 77.32C335.56 77.9867 333.707 78.32 331.6 78.32ZM349.065 78C348.425 78 347.918 77.8267 347.545 77.48C347.198 77.1067 347.025 76.6133 347.025 76V51.8C347.025 51.1867 347.198 50.7067 347.545 50.36C347.918 49.9867 348.425 49.8 349.065 49.8H363.785C364.398 49.8 364.865 49.9467 365.185 50.24C365.531 50.5333 365.705 50.9467 365.705 51.48C365.705 52.0133 365.531 52.4267 365.185 52.72C364.865 52.9867 364.398 53.12 363.785 53.12H351.065V62H362.985C363.598 62 364.065 62.1467 364.385 62.44C364.731 62.7333 364.905 63.1467 364.905 63.68C364.905 64.2133 364.731 64.6267 364.385 64.92C364.065 65.2133 363.598 65.36 362.985 65.36H351.065V74.68H363.785C365.065 74.68 365.705 75.2267 365.705 76.32C365.705 76.8533 365.531 77.2667 365.185 77.56C364.865 77.8533 364.398 78 363.785 78H349.065ZM372.09 78C371.477 78 370.983 77.8267 370.61 77.48C370.263 77.1333 370.09 76.6667 370.09 76.08V51.68C370.09 51.0667 370.277 50.5733 370.65 50.2C371.023 49.8 371.517 49.6 372.13 49.6C372.77 49.6 373.277 49.7867 373.65 50.16C374.023 50.5333 374.21 51.04 374.21 51.68V74.56H386.37C386.983 74.56 387.45 74.7067 387.77 75C388.117 75.2933 388.29 75.72 388.29 76.28C388.29 76.84 388.117 77.2667 387.77 77.56C387.45 77.8533 386.983 78 386.37 78H372.09ZM393.672 78C393.032 78 392.525 77.8267 392.152 77.48C391.805 77.1067 391.632 76.6133 391.632 76V51.8C391.632 51.1867 391.805 50.7067 392.152 50.36C392.525 49.9867 393.032 49.8 393.672 49.8H408.392C409.005 49.8 409.472 49.9467 409.792 50.24C410.138 50.5333 410.312 50.9467 410.312 51.48C410.312 52.0133 410.138 52.4267 409.792 52.72C409.472 52.9867 409.005 53.12 408.392 53.12H395.672V62H407.592C408.205 62 408.672 62.1467 408.992 62.44C409.338 62.7333 409.512 63.1467 409.512 63.68C409.512 64.2133 409.338 64.6267 408.992 64.92C408.672 65.2133 408.205 65.36 407.592 65.36H395.672V74.68H408.392C409.672 74.68 410.312 75.2267 410.312 76.32C410.312 76.8533 410.138 77.2667 409.792 77.56C409.472 77.8533 409.005 78 408.392 78H393.672ZM426.859 78.32C424.166 78.32 421.819 77.7467 419.819 76.6C417.819 75.4267 416.286 73.76 415.219 71.6C414.153 69.4133 413.619 66.84 413.619 63.88C413.619 60.9467 414.153 58.4 415.219 56.24C416.286 54.0533 417.819 52.3867 419.819 51.24C421.819 50.0667 424.166 49.48 426.859 49.48C428.619 49.48 430.286 49.76 431.859 50.32C433.433 50.8533 434.806 51.64 435.979 52.68C436.486 53.08 436.739 53.6133 436.739 54.28C436.739 54.76 436.606 55.1733 436.339 55.52C436.073 55.84 435.753 56 435.379 56C434.926 56 434.486 55.8267 434.059 55.48C432.779 54.52 431.606 53.8533 430.539 53.48C429.499 53.08 428.313 52.88 426.979 52.88C424.046 52.88 421.793 53.8267 420.219 55.72C418.646 57.6133 417.859 60.3333 417.859 63.88C417.859 67.4533 418.646 70.1867 420.219 72.08C421.793 73.9733 424.046 74.92 426.979 74.92C428.259 74.92 429.419 74.72 430.459 74.32C431.526 73.92 432.726 73.2533 434.059 72.32C434.593 71.9733 435.033 71.8 435.379 71.8C435.753 71.8 436.073 71.9733 436.339 72.32C436.606 72.64 436.739 73.04 436.739 73.52C436.739 74.1867 436.486 74.72 435.979 75.12C434.806 76.16 433.433 76.96 431.859 77.52C430.286 78.0533 428.619 78.32 426.859 78.32ZM453.128 78.32C450.434 78.32 448.088 77.7467 446.088 76.6C444.088 75.4267 442.554 73.76 441.488 71.6C440.421 69.4133 439.888 66.84 439.888 63.88C439.888 60.9467 440.421 58.4 441.488 56.24C442.554 54.0533 444.088 52.3867 446.088 51.24C448.088 50.0667 450.434 49.48 453.128 49.48C454.888 49.48 456.554 49.76 458.128 50.32C459.701 50.8533 461.074 51.64 462.248 52.68C462.754 53.08 463.008 53.6133 463.008 54.28C463.008 54.76 462.874 55.1733 462.608 55.52C462.341 55.84 462.021 56 461.648 56C461.194 56 460.754 55.8267 460.328 55.48C459.048 54.52 457.874 53.8533 456.808 53.48C455.768 53.08 454.581 52.88 453.248 52.88C450.314 52.88 448.061 53.8267 446.488 55.72C444.914 57.6133 444.128 60.3333 444.128 63.88C444.128 67.4533 444.914 70.1867 446.488 72.08C448.061 73.9733 450.314 74.92 453.248 74.92C454.528 74.92 455.688 74.72 456.728 74.32C457.794 73.92 458.994 73.2533 460.328 72.32C460.861 71.9733 461.301 71.8 461.648 71.8C462.021 71.8 462.341 71.9733 462.608 72.32C462.874 72.64 463.008 73.04 463.008 73.52C463.008 74.1867 462.754 74.72 462.248 75.12C461.074 76.16 459.701 76.96 458.128 77.52C456.554 78.0533 454.888 78.32 453.128 78.32ZM469.625 78.2C469.011 78.2 468.518 78.0133 468.145 77.64C467.771 77.2667 467.585 76.76 467.585 76.12V51.68C467.585 51.0667 467.771 50.5733 468.145 50.2C468.518 49.8 469.011 49.6 469.625 49.6C470.265 49.6 470.771 49.7867 471.145 50.16C471.518 50.5333 471.705 51.04 471.705 51.68V76.12C471.705 76.76 471.518 77.2667 471.145 77.64C470.798 78.0133 470.291 78.2 469.625 78.2ZM490.035 78.32C487.369 78.32 485.049 77.7333 483.075 76.56C481.129 75.3867 479.622 73.72 478.555 71.56C477.489 69.4 476.955 66.8533 476.955 63.92C476.955 60.96 477.475 58.4 478.515 56.24C479.582 54.0533 481.102 52.3867 483.075 51.24C485.049 50.0667 487.369 49.48 490.035 49.48C492.729 49.48 495.062 50.0667 497.035 51.24C499.009 52.3867 500.515 54.0533 501.555 56.24C502.622 58.4 503.155 60.9467 503.155 63.88C503.155 66.8133 502.622 69.3733 501.555 71.56C500.515 73.72 499.009 75.3867 497.035 76.56C495.062 77.7333 492.729 78.32 490.035 78.32ZM490.035 74.96C492.862 74.96 495.062 74 496.635 72.08C498.209 70.16 498.995 67.4267 498.995 63.88C498.995 60.3333 498.209 57.6133 496.635 55.72C495.089 53.8 492.889 52.84 490.035 52.84C487.235 52.84 485.049 53.8 483.475 55.72C481.929 57.6133 481.155 60.3333 481.155 63.88C481.155 67.4267 481.929 70.16 483.475 72.08C485.049 74 487.235 74.96 490.035 74.96ZM529.641 49.6C530.228 49.6 530.695 49.8 531.041 50.2C531.415 50.5733 531.601 51.0667 531.601 51.68V76.12C531.601 76.7333 531.415 77.24 531.041 77.64C530.668 78.0133 530.188 78.2 529.601 78.2C528.908 78.2 528.375 77.9333 528.001 77.4L512.321 56.72V76.12C512.321 76.7333 512.135 77.24 511.761 77.64C511.415 78.0133 510.948 78.2 510.361 78.2C509.775 78.2 509.308 78.0133 508.961 77.64C508.615 77.2667 508.441 76.76 508.441 76.12V51.68C508.441 51.0667 508.628 50.5733 509.001 50.2C509.375 49.8 509.855 49.6 510.441 49.6C511.135 49.6 511.668 49.8667 512.041 50.4L527.721 71.12V51.68C527.721 51.0667 527.895 50.5733 528.241 50.2C528.588 49.8 529.055 49.6 529.641 49.6ZM562.715 75.6C562.848 75.92 562.915 76.1867 562.915 76.4C562.915 76.9067 562.701 77.3333 562.275 77.68C561.875 78.0267 561.421 78.2 560.915 78.2C560.568 78.2 560.235 78.1067 559.915 77.92C559.621 77.7067 559.395 77.4133 559.235 77.04L556.595 71.04H541.955L539.315 77.04C539.155 77.4133 538.915 77.7067 538.595 77.92C538.275 78.1067 537.941 78.2 537.595 78.2C537.061 78.2 536.581 78.0267 536.155 77.68C535.755 77.3333 535.555 76.9067 535.555 76.4C535.555 76.1867 535.621 75.92 535.755 75.6L547.035 50.92C547.221 50.4933 547.515 50.16 547.915 49.92C548.341 49.68 548.781 49.56 549.235 49.56C549.688 49.56 550.115 49.68 550.515 49.92C550.941 50.16 551.248 50.4933 551.435 50.92L562.715 75.6ZM543.435 67.76H555.155L549.275 54.52L543.435 67.76ZM579.13 78C578.49 78 577.983 77.8267 577.61 77.48C577.263 77.1067 577.09 76.6133 577.09 76V51.8C577.09 51.1867 577.263 50.7067 577.61 50.36C577.983 49.9867 578.49 49.8 579.13 49.8H593.85C594.463 49.8 594.93 49.9467 595.25 50.24C595.597 50.5333 595.77 50.9467 595.77 51.48C595.77 52.0133 595.597 52.4267 595.25 52.72C594.93 52.9867 594.463 53.12 593.85 53.12H581.13V62H593.05C593.663 62 594.13 62.1467 594.45 62.44C594.797 62.7333 594.97 63.1467 594.97 63.68C594.97 64.2133 594.797 64.6267 594.45 64.92C594.13 65.2133 593.663 65.36 593.05 65.36H581.13V74.68H593.85C595.13 74.68 595.77 75.2267 595.77 76.32C595.77 76.8533 595.597 77.2667 595.25 77.56C594.93 77.8533 594.463 78 593.85 78H579.13ZM602.155 78C601.542 78 601.048 77.8267 600.675 77.48C600.328 77.1333 600.155 76.6667 600.155 76.08V51.68C600.155 51.0667 600.342 50.5733 600.715 50.2C601.088 49.8 601.582 49.6 602.195 49.6C602.835 49.6 603.342 49.7867 603.715 50.16C604.088 50.5333 604.275 51.04 604.275 51.68V74.56H616.435C617.048 74.56 617.515 74.7067 617.835 75C618.182 75.2933 618.355 75.72 618.355 76.28C618.355 76.84 618.182 77.2667 617.835 77.56C617.515 77.8533 617.048 78 616.435 78H602.155ZM641.23 78.32C639.204 78.32 637.27 78.04 635.43 77.48C633.617 76.92 632.164 76.1467 631.07 75.16C630.564 74.7333 630.31 74.1867 630.31 73.52C630.31 73.04 630.444 72.64 630.71 72.32C630.977 71.9733 631.297 71.8 631.67 71.8C632.044 71.8 632.497 71.9733 633.03 72.32C635.404 74.08 638.11 74.96 641.15 74.96C643.284 74.96 644.924 74.56 646.07 73.76C647.217 72.96 647.79 71.8133 647.79 70.32C647.79 69.1467 647.257 68.2667 646.19 67.68C645.124 67.0933 643.417 66.5333 641.07 66C638.83 65.52 636.99 64.9733 635.55 64.36C634.11 63.7467 632.977 62.92 632.15 61.88C631.35 60.8133 630.95 59.4667 630.95 57.84C630.95 56.2133 631.39 54.7733 632.27 53.52C633.177 52.24 634.43 51.2533 636.03 50.56C637.63 49.84 639.457 49.48 641.51 49.48C643.404 49.48 645.15 49.7467 646.75 50.28C648.35 50.8133 649.71 51.6 650.83 52.64C651.364 53.0933 651.63 53.64 651.63 54.28C651.63 54.7333 651.484 55.1333 651.19 55.48C650.924 55.8267 650.604 56 650.23 56C649.884 56 649.444 55.8267 648.91 55.48C647.684 54.5467 646.524 53.88 645.43 53.48C644.364 53.0533 643.07 52.84 641.55 52.84C639.497 52.84 637.897 53.2667 636.75 54.12C635.604 54.9467 635.03 56.1067 635.03 57.6C635.03 58.88 635.537 59.8533 636.55 60.52C637.564 61.16 639.19 61.7467 641.43 62.28C643.777 62.8133 645.67 63.3733 647.11 63.96C648.577 64.52 649.737 65.3067 650.59 66.32C651.47 67.3067 651.91 68.5867 651.91 70.16C651.91 71.76 651.457 73.1867 650.55 74.44C649.67 75.6667 648.417 76.6267 646.79 77.32C645.19 77.9867 643.337 78.32 641.23 78.32ZM667.935 78.32C664.175 78.32 661.322 77.3467 659.375 75.4C657.428 73.4533 656.455 70.5867 656.455 66.8V51.68C656.455 51.04 656.642 50.5333 657.015 50.16C657.388 49.7867 657.882 49.6 658.495 49.6C659.108 49.6 659.602 49.7867 659.975 50.16C660.348 50.5333 660.535 51.04 660.535 51.68V67.08C660.535 69.6667 661.148 71.6267 662.375 72.96C663.628 74.2933 665.482 74.96 667.935 74.96C670.362 74.96 672.202 74.2933 673.455 72.96C674.708 71.6267 675.335 69.6667 675.335 67.08V51.68C675.335 51.0667 675.522 50.5733 675.895 50.2C676.268 49.8 676.762 49.6 677.375 49.6C677.988 49.6 678.482 49.7867 678.855 50.16C679.228 50.5333 679.415 51.04 679.415 51.68V66.8C679.415 70.56 678.428 73.4267 676.455 75.4C674.508 77.3467 671.668 78.32 667.935 78.32ZM687.463 78.2C686.85 78.2 686.357 78.0133 685.983 77.64C685.61 77.2667 685.423 76.76 685.423 76.12V51.8C685.423 51.1867 685.597 50.7067 685.943 50.36C686.317 49.9867 686.823 49.8 687.463 49.8H697.103C700.09 49.8 702.41 50.5333 704.063 52C705.717 53.4667 706.543 55.5467 706.543 58.24C706.543 60.9067 705.717 62.9867 704.063 64.48C702.41 65.9733 700.09 66.72 697.103 66.72H689.543V76.12C689.543 76.76 689.357 77.2667 688.983 77.64C688.637 78.0133 688.13 78.2 687.463 78.2ZM696.663 63.4C700.61 63.4 702.583 61.68 702.583 58.24C702.583 54.8267 700.61 53.12 696.663 53.12H689.543V63.4H696.663ZM713.224 78C712.584 78 712.077 77.8267 711.704 77.48C711.357 77.1067 711.184 76.6133 711.184 76V51.8C711.184 51.1867 711.357 50.7067 711.704 50.36C712.077 49.9867 712.584 49.8 713.224 49.8H727.944C728.557 49.8 729.024 49.9467 729.344 50.24C729.69 50.5333 729.864 50.9467 729.864 51.48C729.864 52.0133 729.69 52.4267 729.344 52.72C729.024 52.9867 728.557 53.12 727.944 53.12H715.224V62H727.144C727.757 62 728.224 62.1467 728.544 62.44C728.89 62.7333 729.064 63.1467 729.064 63.68C729.064 64.2133 728.89 64.6267 728.544 64.92C728.224 65.2133 727.757 65.36 727.144 65.36H715.224V74.68H727.944C729.224 74.68 729.864 75.2267 729.864 76.32C729.864 76.8533 729.69 77.2667 729.344 77.56C729.024 77.8533 728.557 78 727.944 78H713.224ZM756.249 75.44C756.489 75.7867 756.609 76.16 756.609 76.56C756.609 77.04 756.409 77.4533 756.009 77.8C755.635 78.12 755.195 78.28 754.689 78.28C753.942 78.28 753.342 77.9467 752.889 77.28L747.529 68.96C746.915 68 746.262 67.3333 745.569 66.96C744.875 66.56 743.969 66.36 742.849 66.36H738.329V76.12C738.329 76.76 738.142 77.2667 737.769 77.64C737.422 78.0133 736.929 78.2 736.289 78.2C735.675 78.2 735.182 78.0133 734.809 77.64C734.435 77.2667 734.249 76.76 734.249 76.12V51.8C734.249 51.1867 734.422 50.7067 734.769 50.36C735.142 49.9867 735.649 49.8 736.289 49.8H746.249C749.369 49.8 751.742 50.4933 753.369 51.88C755.022 53.2667 755.849 55.2933 755.849 57.96C755.849 60.1733 755.222 61.9733 753.969 63.36C752.715 64.72 750.929 65.5867 748.609 65.96C749.302 66.1467 749.929 66.48 750.489 66.96C751.049 67.44 751.595 68.1067 752.129 68.96L756.249 75.44ZM745.769 63.04C747.849 63.04 749.382 62.64 750.369 61.84C751.382 61.0133 751.889 59.7467 751.889 58.04C751.889 56.3333 751.395 55.0933 750.409 54.32C749.422 53.52 747.875 53.12 745.769 53.12H738.289V63.04H745.769ZM786.573 49.6C787.159 49.6 787.639 49.8 788.013 50.2C788.386 50.5733 788.573 51.0667 788.573 51.68V76.24C788.573 76.8533 788.399 77.3333 788.053 77.68C787.733 78.0267 787.279 78.2 786.693 78.2C786.133 78.2 785.693 78.0267 785.373 77.68C785.053 77.3333 784.893 76.8533 784.893 76.24V57.64L777.053 72.56C776.546 73.4933 775.893 73.96 775.093 73.96C774.293 73.96 773.639 73.4933 773.133 72.56L765.253 57.8V76.24C765.253 76.8533 765.093 77.3333 764.773 77.68C764.453 78.0267 763.999 78.2 763.413 78.2C762.853 78.2 762.399 78.0267 762.053 77.68C761.733 77.3067 761.573 76.8267 761.573 76.24V51.68C761.573 51.0667 761.759 50.5733 762.133 50.2C762.506 49.8 762.986 49.6 763.573 49.6C764.399 49.6 765.066 50.08 765.573 51.04L775.133 69.32L784.613 51.04C785.119 50.08 785.773 49.6 786.573 49.6ZM796.872 78C796.232 78 795.725 77.8267 795.352 77.48C795.005 77.1067 794.832 76.6133 794.832 76V51.8C794.832 51.1867 795.005 50.7067 795.352 50.36C795.725 49.9867 796.232 49.8 796.872 49.8H811.592C812.205 49.8 812.672 49.9467 812.992 50.24C813.339 50.5333 813.512 50.9467 813.512 51.48C813.512 52.0133 813.339 52.4267 812.992 52.72C812.672 52.9867 812.205 53.12 811.592 53.12H798.872V62H810.792C811.405 62 811.872 62.1467 812.192 62.44C812.539 62.7333 812.712 63.1467 812.712 63.68C812.712 64.2133 812.539 64.6267 812.192 64.92C811.872 65.2133 811.405 65.36 810.792 65.36H798.872V74.68H811.592C812.872 74.68 813.512 75.2267 813.512 76.32C813.512 76.8533 813.339 77.2667 812.992 77.56C812.672 77.8533 812.205 78 811.592 78H796.872ZM839.897 75.44C840.137 75.7867 840.257 76.16 840.257 76.56C840.257 77.04 840.057 77.4533 839.657 77.8C839.284 78.12 838.844 78.28 838.337 78.28C837.591 78.28 836.991 77.9467 836.537 77.28L831.177 68.96C830.564 68 829.911 67.3333 829.217 66.96C828.524 66.56 827.617 66.36 826.497 66.36H821.977V76.12C821.977 76.76 821.791 77.2667 821.417 77.64C821.071 78.0133 820.577 78.2 819.937 78.2C819.324 78.2 818.831 78.0133 818.457 77.64C818.084 77.2667 817.897 76.76 817.897 76.12V51.8C817.897 51.1867 818.071 50.7067 818.417 50.36C818.791 49.9867 819.297 49.8 819.937 49.8H829.897C833.017 49.8 835.391 50.4933 837.017 51.88C838.671 53.2667 839.497 55.2933 839.497 57.96C839.497 60.1733 838.871 61.9733 837.617 63.36C836.364 64.72 834.577 65.5867 832.257 65.96C832.951 66.1467 833.577 66.48 834.137 66.96C834.697 67.44 835.244 68.1067 835.777 68.96L839.897 75.44ZM829.417 63.04C831.497 63.04 833.031 62.64 834.017 61.84C835.031 61.0133 835.537 59.7467 835.537 58.04C835.537 56.3333 835.044 55.0933 834.057 54.32C833.071 53.52 831.524 53.12 829.417 53.12H821.937V63.04H829.417ZM857.266 78.32C854.572 78.32 852.226 77.7467 850.226 76.6C848.226 75.4267 846.692 73.76 845.626 71.6C844.559 69.4133 844.026 66.84 844.026 63.88C844.026 60.9467 844.559 58.4 845.626 56.24C846.692 54.0533 848.226 52.3867 850.226 51.24C852.226 50.0667 854.572 49.48 857.266 49.48C859.026 49.48 860.692 49.76 862.266 50.32C863.839 50.8533 865.212 51.64 866.386 52.68C866.892 53.08 867.146 53.6133 867.146 54.28C867.146 54.76 867.012 55.1733 866.746 55.52C866.479 55.84 866.159 56 865.786 56C865.332 56 864.892 55.8267 864.466 55.48C863.186 54.52 862.012 53.8533 860.946 53.48C859.906 53.08 858.719 52.88 857.386 52.88C854.452 52.88 852.199 53.8267 850.626 55.72C849.052 57.6133 848.266 60.3333 848.266 63.88C848.266 67.4533 849.052 70.1867 850.626 72.08C852.199 73.9733 854.452 74.92 857.386 74.92C858.666 74.92 859.826 74.72 860.866 74.32C861.932 73.92 863.132 73.2533 864.466 72.32C864.999 71.9733 865.439 71.8 865.786 71.8C866.159 71.8 866.479 71.9733 866.746 72.32C867.012 72.64 867.146 73.04 867.146 73.52C867.146 74.1867 866.892 74.72 866.386 75.12C865.212 76.16 863.839 76.96 862.266 77.52C860.692 78.0533 859.026 78.32 857.266 78.32ZM896.017 75.6C896.15 75.92 896.217 76.1867 896.217 76.4C896.217 76.9067 896.003 77.3333 895.577 77.68C895.177 78.0267 894.723 78.2 894.217 78.2C893.87 78.2 893.537 78.1067 893.217 77.92C892.923 77.7067 892.697 77.4133 892.537 77.04L889.897 71.04H875.257L872.617 77.04C872.457 77.4133 872.217 77.7067 871.897 77.92C871.577 78.1067 871.243 78.2 870.897 78.2C870.363 78.2 869.883 78.0267 869.457 77.68C869.057 77.3333 868.857 76.9067 868.857 76.4C868.857 76.1867 868.923 75.92 869.057 75.6L880.337 50.92C880.523 50.4933 880.817 50.16 881.217 49.92C881.643 49.68 882.083 49.56 882.537 49.56C882.99 49.56 883.417 49.68 883.817 49.92C884.243 50.16 884.55 50.4933 884.737 50.92L896.017 75.6ZM876.737 67.76H888.457L882.577 54.52L876.737 67.76ZM902.218 78C901.578 78 901.072 77.8267 900.698 77.48C900.352 77.1067 900.178 76.6133 900.178 76V51.8C900.178 51.1867 900.352 50.7067 900.698 50.36C901.072 49.9867 901.578 49.8 902.218 49.8H910.058C914.618 49.8 918.152 51.0267 920.658 53.48C923.165 55.9333 924.418 59.4 924.418 63.88C924.418 68.36 923.165 71.84 920.658 74.32C918.152 76.7733 914.618 78 910.058 78H902.218ZM909.818 74.56C916.752 74.56 920.218 71 920.218 63.88C920.218 56.7867 916.752 53.24 909.818 53.24H904.298V74.56H909.818ZM941.809 78.32C939.142 78.32 936.822 77.7333 934.849 76.56C932.902 75.3867 931.396 73.72 930.329 71.56C929.262 69.4 928.729 66.8533 928.729 63.92C928.729 60.96 929.249 58.4 930.289 56.24C931.356 54.0533 932.876 52.3867 934.849 51.24C936.822 50.0667 939.142 49.48 941.809 49.48C944.502 49.48 946.836 50.0667 948.809 51.24C950.782 52.3867 952.289 54.0533 953.329 56.24C954.396 58.4 954.929 60.9467 954.929 63.88C954.929 66.8133 954.396 69.3733 953.329 71.56C952.289 73.72 950.782 75.3867 948.809 76.56C946.836 77.7333 944.502 78.32 941.809 78.32ZM941.809 74.96C944.636 74.96 946.836 74 948.409 72.08C949.982 70.16 950.769 67.4267 950.769 63.88C950.769 60.3333 949.982 57.6133 948.409 55.72C946.862 53.8 944.662 52.84 941.809 52.84C939.009 52.84 936.822 53.8 935.249 55.72C933.702 57.6133 932.929 60.3333 932.929 63.88C932.929 67.4267 933.702 70.16 935.249 72.08C936.822 74 939.009 74.96 941.809 74.96ZM344.48 137.6C344.72 138 344.84 138.387 344.84 138.76C344.84 139.24 344.653 139.627 344.28 139.92C343.907 140.24 343.467 140.4 342.96 140.4C342.107 140.4 341.427 140 340.92 139.2L338.6 135.36C337.747 134 336.347 133.32 334.4 133.32C331.733 133.32 329.413 132.733 327.44 131.56C325.493 130.387 323.987 128.72 322.92 126.56C321.853 124.4 321.32 121.853 321.32 118.92C321.32 115.96 321.84 113.4 322.88 111.24C323.947 109.053 325.467 107.387 327.44 106.24C329.413 105.067 331.733 104.48 334.4 104.48C337.093 104.48 339.427 105.067 341.4 106.24C343.373 107.387 344.88 109.053 345.92 111.24C346.987 113.4 347.52 115.947 347.52 118.88C347.52 122.16 346.853 124.973 345.52 127.32C344.187 129.64 342.307 131.293 339.88 132.28C341.027 132.653 342.027 133.547 342.88 134.96L344.48 137.6ZM325.52 118.88C325.52 122.427 326.293 125.16 327.84 127.08C329.413 129 331.6 129.96 334.4 129.96C337.227 129.96 339.427 129 341 127.08C342.573 125.16 343.36 122.427 343.36 118.88C343.36 115.333 342.573 112.613 341 110.72C339.453 108.8 337.253 107.84 334.4 107.84C331.6 107.84 329.413 108.8 327.84 110.72C326.293 112.613 325.52 115.333 325.52 118.88ZM364.086 133.32C360.326 133.32 357.473 132.347 355.526 130.4C353.579 128.453 352.606 125.587 352.606 121.8V106.68C352.606 106.04 352.793 105.533 353.166 105.16C353.539 104.787 354.033 104.6 354.646 104.6C355.259 104.6 355.753 104.787 356.126 105.16C356.499 105.533 356.686 106.04 356.686 106.68V122.08C356.686 124.667 357.299 126.627 358.526 127.96C359.779 129.293 361.633 129.96 364.086 129.96C366.513 129.96 368.353 129.293 369.606 127.96C370.859 126.627 371.486 124.667 371.486 122.08V106.68C371.486 106.067 371.673 105.573 372.046 105.2C372.419 104.8 372.913 104.6 373.526 104.6C374.139 104.6 374.633 104.787 375.006 105.16C375.379 105.533 375.566 106.04 375.566 106.68V121.8C375.566 125.56 374.579 128.427 372.606 130.4C370.659 132.347 367.819 133.32 364.086 133.32ZM383.614 133C382.974 133 382.468 132.827 382.094 132.48C381.748 132.107 381.574 131.613 381.574 131V106.8C381.574 106.187 381.748 105.707 382.094 105.36C382.468 104.987 382.974 104.8 383.614 104.8H398.334C398.948 104.8 399.414 104.947 399.734 105.24C400.081 105.533 400.254 105.947 400.254 106.48C400.254 107.013 400.081 107.427 399.734 107.72C399.414 107.987 398.948 108.12 398.334 108.12H385.614V117H397.534C398.148 117 398.614 117.147 398.934 117.44C399.281 117.733 399.454 118.147 399.454 118.68C399.454 119.213 399.281 119.627 398.934 119.92C398.614 120.213 398.148 120.36 397.534 120.36H385.614V129.68H398.334C399.614 129.68 400.254 130.227 400.254 131.32C400.254 131.853 400.081 132.267 399.734 132.56C399.414 132.853 398.948 133 398.334 133H383.614ZM439.893 104.6C440.48 104.6 440.96 104.8 441.333 105.2C441.706 105.573 441.893 106.067 441.893 106.68V131.24C441.893 131.853 441.72 132.333 441.373 132.68C441.053 133.027 440.6 133.2 440.013 133.2C439.453 133.2 439.013 133.027 438.693 132.68C438.373 132.333 438.213 131.853 438.213 131.24V112.64L430.373 127.56C429.866 128.493 429.213 128.96 428.413 128.96C427.613 128.96 426.96 128.493 426.453 127.56L418.573 112.8V131.24C418.573 131.853 418.413 132.333 418.093 132.68C417.773 133.027 417.32 133.2 416.733 133.2C416.173 133.2 415.72 133.027 415.373 132.68C415.053 132.307 414.893 131.827 414.893 131.24V106.68C414.893 106.067 415.08 105.573 415.453 105.2C415.826 104.8 416.306 104.6 416.893 104.6C417.72 104.6 418.386 105.08 418.893 106.04L428.453 124.32L437.933 106.04C438.44 105.08 439.093 104.6 439.893 104.6ZM450.192 133C449.552 133 449.046 132.827 448.672 132.48C448.326 132.107 448.152 131.613 448.152 131V106.8C448.152 106.187 448.326 105.707 448.672 105.36C449.046 104.987 449.552 104.8 450.192 104.8H464.912C465.526 104.8 465.992 104.947 466.312 105.24C466.659 105.533 466.832 105.947 466.832 106.48C466.832 107.013 466.659 107.427 466.312 107.72C465.992 107.987 465.526 108.12 464.912 108.12H452.192V117H464.112C464.726 117 465.192 117.147 465.512 117.44C465.859 117.733 466.032 118.147 466.032 118.68C466.032 119.213 465.859 119.627 465.512 119.92C465.192 120.213 464.726 120.36 464.112 120.36H452.192V129.68H464.912C466.192 129.68 466.832 130.227 466.832 131.32C466.832 131.853 466.659 132.267 466.312 132.56C465.992 132.853 465.526 133 464.912 133H450.192ZM470.406 133.2C469.606 133.253 468.993 133.133 468.566 132.84C468.14 132.547 467.926 132.107 467.926 131.52C467.926 130.48 468.5 129.92 469.646 129.84L470.886 129.76C472.14 129.707 473.073 129.333 473.686 128.64C474.3 127.92 474.606 126.8 474.606 125.28V106.68C474.606 106.067 474.793 105.573 475.166 105.2C475.566 104.8 476.073 104.6 476.686 104.6C477.326 104.6 477.833 104.8 478.206 105.2C478.58 105.573 478.766 106.067 478.766 106.68V125.28C478.766 127.787 478.166 129.693 476.966 131C475.793 132.28 474.02 132.987 471.646 133.12L470.406 133.2ZM497.106 133.32C494.439 133.32 492.119 132.733 490.146 131.56C488.199 130.387 486.692 128.72 485.626 126.56C484.559 124.4 484.026 121.853 484.026 118.92C484.026 115.96 484.546 113.4 485.586 111.24C486.652 109.053 488.172 107.387 490.146 106.24C492.119 105.067 494.439 104.48 497.106 104.48C499.799 104.48 502.132 105.067 504.106 106.24C506.079 107.387 507.586 109.053 508.626 111.24C509.692 113.4 510.226 115.947 510.226 118.88C510.226 121.813 509.692 124.373 508.626 126.56C507.586 128.72 506.079 130.387 504.106 131.56C502.132 132.733 499.799 133.32 497.106 133.32ZM497.106 129.96C499.932 129.96 502.132 129 503.706 127.08C505.279 125.16 506.066 122.427 506.066 118.88C506.066 115.333 505.279 112.613 503.706 110.72C502.159 108.8 499.959 107.84 497.106 107.84C494.306 107.84 492.119 108.8 490.546 110.72C488.999 112.613 488.226 115.333 488.226 118.88C488.226 122.427 488.999 125.16 490.546 127.08C492.119 129 494.306 129.96 497.106 129.96ZM537.512 130.44C537.752 130.787 537.872 131.16 537.872 131.56C537.872 132.04 537.672 132.453 537.272 132.8C536.898 133.12 536.458 133.28 535.952 133.28C535.205 133.28 534.605 132.947 534.152 132.28L528.792 123.96C528.178 123 527.525 122.333 526.832 121.96C526.138 121.56 525.232 121.36 524.112 121.36H519.592V131.12C519.592 131.76 519.405 132.267 519.032 132.64C518.685 133.013 518.192 133.2 517.552 133.2C516.938 133.2 516.445 133.013 516.072 132.64C515.698 132.267 515.512 131.76 515.512 131.12V106.8C515.512 106.187 515.685 105.707 516.032 105.36C516.405 104.987 516.912 104.8 517.552 104.8H527.512C530.632 104.8 533.005 105.493 534.632 106.88C536.285 108.267 537.112 110.293 537.112 112.96C537.112 115.173 536.485 116.973 535.232 118.36C533.978 119.72 532.192 120.587 529.872 120.96C530.565 121.147 531.192 121.48 531.752 121.96C532.312 122.44 532.858 123.107 533.392 123.96L537.512 130.44ZM527.032 118.04C529.112 118.04 530.645 117.64 531.632 116.84C532.645 116.013 533.152 114.747 533.152 113.04C533.152 111.333 532.658 110.093 531.672 109.32C530.685 108.52 529.138 108.12 527.032 108.12H519.552V118.04H527.032ZM562.329 133.32C560.303 133.32 558.369 133.04 556.529 132.48C554.716 131.92 553.263 131.147 552.169 130.16C551.663 129.733 551.409 129.187 551.409 128.52C551.409 128.04 551.543 127.64 551.809 127.32C552.076 126.973 552.396 126.8 552.769 126.8C553.143 126.8 553.596 126.973 554.129 127.32C556.503 129.08 559.209 129.96 562.249 129.96C564.383 129.96 566.023 129.56 567.169 128.76C568.316 127.96 568.889 126.813 568.889 125.32C568.889 124.147 568.356 123.267 567.289 122.68C566.223 122.093 564.516 121.533 562.169 121C559.929 120.52 558.089 119.973 556.649 119.36C555.209 118.747 554.076 117.92 553.249 116.88C552.449 115.813 552.049 114.467 552.049 112.84C552.049 111.213 552.489 109.773 553.369 108.52C554.276 107.24 555.529 106.253 557.129 105.56C558.729 104.84 560.556 104.48 562.609 104.48C564.503 104.48 566.249 104.747 567.849 105.28C569.449 105.813 570.809 106.6 571.929 107.64C572.463 108.093 572.729 108.64 572.729 109.28C572.729 109.733 572.583 110.133 572.289 110.48C572.023 110.827 571.703 111 571.329 111C570.983 111 570.543 110.827 570.009 110.48C568.783 109.547 567.623 108.88 566.529 108.48C565.463 108.053 564.169 107.84 562.649 107.84C560.596 107.84 558.996 108.267 557.849 109.12C556.703 109.947 556.129 111.107 556.129 112.6C556.129 113.88 556.636 114.853 557.649 115.52C558.663 116.16 560.289 116.747 562.529 117.28C564.876 117.813 566.769 118.373 568.209 118.96C569.676 119.52 570.836 120.307 571.689 121.32C572.569 122.307 573.009 123.587 573.009 125.16C573.009 126.76 572.556 128.187 571.649 129.44C570.769 130.667 569.516 131.627 567.889 132.32C566.289 132.987 564.436 133.32 562.329 133.32ZM579.794 133C579.154 133 578.647 132.827 578.274 132.48C577.927 132.107 577.754 131.613 577.754 131V106.8C577.754 106.187 577.927 105.707 578.274 105.36C578.647 104.987 579.154 104.8 579.794 104.8H594.514C595.127 104.8 595.594 104.947 595.914 105.24C596.261 105.533 596.434 105.947 596.434 106.48C596.434 107.013 596.261 107.427 595.914 107.72C595.594 107.987 595.127 108.12 594.514 108.12H581.794V117H593.714C594.327 117 594.794 117.147 595.114 117.44C595.461 117.733 595.634 118.147 595.634 118.68C595.634 119.213 595.461 119.627 595.114 119.92C594.794 120.213 594.327 120.36 593.714 120.36H581.794V129.68H594.514C595.794 129.68 596.434 130.227 596.434 131.32C596.434 131.853 596.261 132.267 595.914 132.56C595.594 132.853 595.127 133 594.514 133H579.794ZM635.913 130.6C636.046 130.92 636.113 131.187 636.113 131.4C636.113 131.907 635.899 132.333 635.473 132.68C635.073 133.027 634.619 133.2 634.113 133.2C633.766 133.2 633.433 133.107 633.113 132.92C632.819 132.707 632.593 132.413 632.433 132.04L629.793 126.04H615.153L612.513 132.04C612.353 132.413 612.113 132.707 611.793 132.92C611.473 133.107 611.139 133.2 610.793 133.2C610.259 133.2 609.779 133.027 609.353 132.68C608.953 132.333 608.753 131.907 608.753 131.4C608.753 131.187 608.819 130.92 608.953 130.6L620.233 105.92C620.419 105.493 620.713 105.16 621.113 104.92C621.539 104.68 621.979 104.56 622.433 104.56C622.886 104.56 623.313 104.68 623.713 104.92C624.139 105.16 624.446 105.493 624.633 105.92L635.913 130.6ZM616.633 122.76H628.353L622.473 109.52L616.633 122.76ZM642.114 133C641.474 133 640.968 132.827 640.594 132.48C640.248 132.107 640.074 131.613 640.074 131V106.8C640.074 106.187 640.248 105.707 640.594 105.36C640.968 104.987 641.474 104.8 642.114 104.8H649.954C654.514 104.8 658.048 106.027 660.554 108.48C663.061 110.933 664.314 114.4 664.314 118.88C664.314 123.36 663.061 126.84 660.554 129.32C658.048 131.773 654.514 133 649.954 133H642.114ZM649.714 129.56C656.648 129.56 660.114 126 660.114 118.88C660.114 111.787 656.648 108.24 649.714 108.24H644.194V129.56H649.714ZM693.801 130.6C693.934 130.92 694.001 131.187 694.001 131.4C694.001 131.907 693.787 132.333 693.361 132.68C692.961 133.027 692.507 133.2 692.001 133.2C691.654 133.2 691.321 133.107 691.001 132.92C690.707 132.707 690.481 132.413 690.321 132.04L687.681 126.04H673.041L670.401 132.04C670.241 132.413 670.001 132.707 669.681 132.92C669.361 133.107 669.027 133.2 668.681 133.2C668.147 133.2 667.667 133.027 667.241 132.68C666.841 132.333 666.641 131.907 666.641 131.4C666.641 131.187 666.707 130.92 666.841 130.6L678.121 105.92C678.307 105.493 678.601 105.16 679.001 104.92C679.427 104.68 679.867 104.56 680.321 104.56C680.774 104.56 681.201 104.68 681.601 104.92C682.027 105.16 682.334 105.493 682.521 105.92L693.801 130.6ZM674.521 122.76H686.241L680.361 109.52L674.521 122.76ZM700.002 133.2C699.389 133.2 698.896 133.013 698.522 132.64C698.149 132.267 697.962 131.76 697.962 131.12V106.8C697.962 106.187 698.136 105.707 698.482 105.36C698.856 104.987 699.362 104.8 700.002 104.8H709.642C712.629 104.8 714.949 105.533 716.602 107C718.256 108.467 719.082 110.547 719.082 113.24C719.082 115.907 718.256 117.987 716.602 119.48C714.949 120.973 712.629 121.72 709.642 121.72H702.082V131.12C702.082 131.76 701.896 132.267 701.522 132.64C701.176 133.013 700.669 133.2 700.002 133.2ZM709.202 118.4C713.149 118.4 715.122 116.68 715.122 113.24C715.122 109.827 713.149 108.12 709.202 108.12H702.082V118.4H709.202ZM731.82 133.2C731.206 133.2 730.7 133.013 730.3 132.64C729.926 132.24 729.74 131.733 729.74 131.12V108.24H721.74C720.46 108.24 719.82 107.667 719.82 106.52C719.82 105.96 719.98 105.533 720.3 105.24C720.646 104.947 721.126 104.8 721.74 104.8H741.9C742.513 104.8 742.98 104.947 743.3 105.24C743.646 105.533 743.82 105.96 743.82 106.52C743.82 107.667 743.18 108.24 741.9 108.24H733.9V131.12C733.9 131.733 733.713 132.24 733.34 132.64C732.966 133.013 732.46 133.2 731.82 133.2ZM748.945 133C748.305 133 747.798 132.827 747.425 132.48C747.078 132.107 746.905 131.613 746.905 131V106.8C746.905 106.187 747.078 105.707 747.425 105.36C747.798 104.987 748.305 104.8 748.945 104.8H763.665C764.278 104.8 764.745 104.947 765.065 105.24C765.412 105.533 765.585 105.947 765.585 106.48C765.585 107.013 765.412 107.427 765.065 107.72C764.745 107.987 764.278 108.12 763.665 108.12H750.945V117H762.865C763.478 117 763.945 117.147 764.265 117.44C764.612 117.733 764.785 118.147 764.785 118.68C764.785 119.213 764.612 119.627 764.265 119.92C763.945 120.213 763.478 120.36 762.865 120.36H750.945V129.68H763.665C764.945 129.68 765.585 130.227 765.585 131.32C765.585 131.853 765.412 132.267 765.065 132.56C764.745 132.853 764.278 133 763.665 133H748.945ZM805.064 130.6C805.197 130.92 805.264 131.187 805.264 131.4C805.264 131.907 805.05 132.333 804.624 132.68C804.224 133.027 803.77 133.2 803.264 133.2C802.917 133.2 802.584 133.107 802.264 132.92C801.97 132.707 801.744 132.413 801.584 132.04L798.944 126.04H784.304L781.664 132.04C781.504 132.413 781.264 132.707 780.944 132.92C780.624 133.107 780.29 133.2 779.944 133.2C779.41 133.2 778.93 133.027 778.504 132.68C778.104 132.333 777.904 131.907 777.904 131.4C777.904 131.187 777.97 130.92 778.104 130.6L789.384 105.92C789.57 105.493 789.864 105.16 790.264 104.92C790.69 104.68 791.13 104.56 791.584 104.56C792.037 104.56 792.464 104.68 792.864 104.92C793.29 105.16 793.597 105.493 793.784 105.92L805.064 130.6ZM785.784 122.76H797.504L791.624 109.52L785.784 122.76ZM828.239 133.2C827.626 133.2 827.119 133.013 826.719 132.64C826.346 132.24 826.159 131.733 826.159 131.12V108.24H818.159C816.879 108.24 816.239 107.667 816.239 106.52C816.239 105.96 816.399 105.533 816.719 105.24C817.066 104.947 817.546 104.8 818.159 104.8H838.319C838.932 104.8 839.399 104.947 839.719 105.24C840.066 105.533 840.239 105.96 840.239 106.52C840.239 107.667 839.599 108.24 838.319 108.24H830.319V131.12C830.319 131.733 830.132 132.24 829.759 132.64C829.386 133.013 828.879 133.2 828.239 133.2ZM845.364 133.2C844.751 133.2 844.258 133.013 843.884 132.64C843.511 132.267 843.324 131.76 843.324 131.12V106.68C843.324 106.067 843.511 105.573 843.884 105.2C844.258 104.8 844.751 104.6 845.364 104.6C846.004 104.6 846.511 104.787 846.884 105.16C847.258 105.533 847.444 106.04 847.444 106.68V131.12C847.444 131.76 847.258 132.267 846.884 132.64C846.538 133.013 846.031 133.2 845.364 133.2Z" fill="white"/>
<path d="M1168.46 97L1155.03 84.6349L1148.66 78.8417C1148.06 78.2957 1147.6 77.6173 1147.32 76.8619C1147.04 76.1066 1146.94 75.2959 1147.04 74.4962C1147.13 73.6966 1147.42 72.9308 1147.87 72.2616C1148.33 71.5924 1148.94 71.0388 1149.65 70.6463C1150.28 70.2996 1150.97 70.0868 1151.69 70.0215C1152.41 69.9562 1153.13 70.04 1153.82 70.2673C1154.5 70.4946 1155.13 70.8606 1155.66 71.3415C1156.19 71.8225 1156.61 72.4078 1156.9 73.0599L1158.99 77.8001L1172 91.1082L1168.46 97Z" fill="#FFB9B9"/>
<path d="M1170.61 89.2461L1166 97.1635L1184.71 109C1201.21 96.7722 1204.47 92.7928 1200.43 73.3151L1197.22 70L1181.67 95.9979L1170.61 89.2461Z" fill="#00BFA6"/>
<path d="M1142.76 67.3277C1142.57 67.1447 1142.32 67.031 1142.06 67.0055C1141.8 66.9799 1141.54 67.0442 1141.32 67.1874L1132.53 72.8566C1132.38 72.9497 1132.26 73.0736 1132.17 73.2192C1132.08 73.3649 1132.02 73.5285 1132.01 73.6983C1131.99 73.868 1132.01 74.0395 1132.07 74.2003C1132.12 74.361 1132.22 74.5069 1132.34 74.6273L1154.7 96.6664C1154.81 96.7735 1154.94 96.8582 1155.08 96.9154C1155.22 96.9727 1155.37 97.0014 1155.53 96.9999C1155.68 96.9985 1155.83 96.9668 1155.97 96.9069C1156.11 96.8469 1156.24 96.7598 1156.35 96.6506L1163.68 89.1429C1163.89 88.9249 1164 88.6331 1164 88.3307C1164 88.0284 1163.87 87.7399 1163.65 87.5282L1142.76 67.3277Z" fill="#3F3D56"/>
<path d="M1134.15 73.3576L1135.07 72.7798C1134.97 72.9499 1134.93 73.1473 1134.97 73.3399C1135 73.5325 1135.09 73.7089 1135.24 73.8404C1135.39 73.9719 1135.57 74.0507 1135.77 74.064C1135.97 74.0773 1136.16 74.0242 1136.33 73.9136L1142.27 69.8814C1142.41 69.7899 1142.51 69.6628 1142.58 69.5145C1142.64 69.3663 1142.66 69.2029 1142.64 69.0429C1142.62 68.883 1142.55 68.7329 1142.44 68.6099C1142.33 68.4868 1142.2 68.3957 1142.04 68.347L1142.51 68.0493C1142.57 68.0106 1142.65 67.9939 1142.72 68.002C1142.79 68.01 1142.86 68.0422 1142.91 68.0934L1162.91 87.4829C1162.94 87.5127 1162.96 87.5481 1162.98 87.587C1162.99 87.6259 1163 87.6675 1163 87.7093C1163 87.7512 1162.99 87.7925 1162.97 87.8308C1162.96 87.8691 1162.93 87.9037 1162.9 87.9324L1155.64 94.9144C1155.58 94.9704 1155.5 95.0011 1155.41 95C1155.33 94.9988 1155.25 94.966 1155.19 94.9084L1134.09 73.8451C1134.06 73.8119 1134.03 73.7716 1134.02 73.7272C1134 73.6828 1134 73.6355 1134 73.5887C1134.01 73.5419 1134.02 73.4968 1134.05 73.4568C1134.07 73.4168 1134.11 73.3829 1134.15 73.3576Z" fill="white"/>
<path d="M1157 83.2871L1151.08 89L1137 74.761L1144.15 70L1157 83.2871Z" fill="#00BFA6"/>
<path d="M1136.96 77.9646C1136.99 77.9411 1137 77.9092 1137 77.8761C1137 77.8429 1136.99 77.8111 1136.96 77.7876L1136.21 77.0355C1136.19 77.0127 1136.16 77 1136.12 77C1136.09 77 1136.06 77.0127 1136.04 77.0355C1136.01 77.0589 1136 77.0908 1136 77.1239C1136 77.1571 1136.01 77.1889 1136.04 77.2124L1136.79 77.9646C1136.81 77.9873 1136.84 78 1136.88 78C1136.91 78 1136.94 77.9873 1136.96 77.9646Z" fill="#E6E6E6"/>
<path d="M1138.93 79.5738L1137.43 78.0731C1137.4 78.05 1137.38 78.0316 1137.35 78.019C1137.31 78.0065 1137.28 78 1137.25 78C1137.22 78 1137.18 78.0065 1137.15 78.019C1137.12 78.0316 1137.1 78.05 1137.07 78.0731C1137.05 78.0963 1137.03 78.1238 1137.02 78.1541C1137.01 78.1844 1137 78.2169 1137 78.2497C1137 78.2825 1137.01 78.3149 1137.02 78.3452C1137.03 78.3755 1137.05 78.4031 1137.07 78.4263L1138.57 79.9269C1138.62 79.9737 1138.68 80 1138.75 80C1138.82 80 1138.88 79.9737 1138.93 79.9269C1138.97 79.8801 1139 79.8165 1139 79.7503C1139 79.6841 1138.97 79.6206 1138.93 79.5738Z" fill="#E6E6E6"/>
<path d="M1157 90C1158.1 90 1159 89.1046 1159 88C1159 86.8954 1158.1 86 1157 86C1155.9 86 1155 86.8954 1155 88C1155 89.1046 1155.9 90 1157 90Z" fill="#00BFA6"/>
<path d="M1216.86 138H1107V137H1217L1216.86 138Z" fill="#3F3D56"/>
<path d="M1204 137.862V28H1205V138L1204 137.862Z" fill="#3F3D56"/>
<path d="M1065.84 134.642L1058.78 136.691C1057.77 138.868 1056.06 140.549 1053.97 141.397C1051.89 142.245 1049.59 142.197 1047.54 141.264L1047.39 141.194C1046.45 140.755 1045.58 140.169 1044.8 139.455C1041.83 136.812 1036.89 135.448 1030.33 135.127C1029.93 134.988 1029.58 134.706 1029.34 134.326C1029.1 133.946 1028.98 133.488 1029 133.026C1029.03 132.539 1029.2 132.076 1029.51 131.718C1029.81 131.36 1030.21 131.129 1030.65 131.066L1066 126L1065.84 134.642Z" fill="#C4C4C4"/>
<path d="M1160 141C1141.17 137.925 1124.02 132.947 1109.64 124.822L1065 135.981L1065.16 126.011L1100.06 113.546C1105.94 111.443 1112.2 110.628 1118.41 111.156L1160 119.016L1160 141Z" fill="#2F2E41"/>
<path d="M1088.1 144.417C1087.95 143.958 1087.97 143.467 1088.14 143.017C1088.31 142.567 1088.62 142.182 1089.04 141.92L1105.9 133.31L1109.98 123L1117 127.283L1115.04 134.897L1115.5 138.047C1115.65 139.035 1115.57 140.042 1115.28 141C1114.99 141.958 1114.5 142.844 1113.82 143.598C1113.15 144.352 1112.32 144.957 1111.38 145.371C1110.45 145.785 1109.43 146 1108.4 146H1090.29C1089.79 146 1089.32 145.846 1088.92 145.561C1088.53 145.276 1088.24 144.875 1088.1 144.417Z" fill="#CCCCCC"/>
<path d="M1182 135.02C1161.63 160.409 1147.61 132.755 1133.8 103.408L1117.13 130.597L1107 123.391L1124.47 84.866C1124.9 83.9152 1125.55 83.0806 1126.37 82.431C1127.18 81.7814 1128.14 81.3353 1129.16 81.1294C1130.18 80.9235 1131.24 80.9638 1132.24 81.2468C1133.24 81.5299 1134.17 82.0476 1134.93 82.7575L1159.29 109.959L1163.86 109.632L1182 135.02Z" fill="#2F2E41"/>
<path d="M1183 62C1189.63 62 1195 56.6274 1195 50C1195 43.3726 1189.63 38 1183 38C1176.37 38 1171 43.3726 1171 50C1171 56.6274 1176.37 62 1183 62Z" fill="#FFB9B9"/>
<path d="M1199 72L1184.86 75C1183.5 69.3722 1181.54 63.8977 1179 58.6667L1192.1 54C1193.71 60.226 1196.03 66.2621 1199 72Z" fill="#FFB9B9"/>
<path d="M1183.31 138L1160 109.973L1169.49 93.8711C1170.49 86.6275 1174.16 80.9341 1179.8 76.3886L1183.63 69.8884L1195.12 65C1199.16 68.2767 1202.03 72.8163 1203.29 77.9202C1204.55 83.024 1204.13 88.4094 1202.1 93.2473L1183.31 138Z" fill="#00BFA6"/>
<path d="M1162.96 107L1148.11 95.6634L1141.08 90.3592C1140.41 89.8593 1139.88 89.2113 1139.52 88.4684C1139.16 87.7254 1138.98 86.9086 1139 86.0849C1139.02 85.2612 1139.24 84.4541 1139.64 83.7297C1140.04 83.0053 1140.6 82.3843 1141.29 81.9175C1141.89 81.5051 1142.58 81.2229 1143.31 81.089C1144.03 80.9551 1144.78 80.9724 1145.49 81.1399C1146.21 81.3074 1146.88 81.6212 1147.47 82.0614C1148.06 82.5015 1148.54 83.0581 1148.9 83.6953L1151.49 88.3279L1166 100.665L1162.96 107Z" fill="#FFB9B9"/>
<path d="M1163.91 98.6667L1160 107L1179.9 117C1195.37 103.229 1204 90.0241 1198.16 71L1190.66 73L1175.66 104.333L1163.91 98.6667Z" fill="#00BFA6"/>
<path d="M1198.5 37C1200.99 37 1203 34.7614 1203 32C1203 29.2386 1200.99 27 1198.5 27C1196.01 27 1194 29.2386 1194 32C1194 34.7614 1196.01 37 1198.5 37Z" fill="#2F2E41"/>
<path d="M1193.68 30.722C1193.76 29.4527 1194.36 28.2625 1195.35 27.3937C1196.34 26.525 1197.65 26.0431 1199 26.0461C1198.89 26.033 1198.78 26.0171 1198.67 26.0103C1197.26 25.9252 1195.87 26.3695 1194.81 27.2456C1193.75 28.1217 1193.1 29.3578 1193.01 30.6819C1192.92 32.006 1193.39 33.3096 1194.33 34.3061C1195.26 35.3026 1196.58 35.9102 1197.99 35.9953C1198.1 36.0021 1198.21 35.9994 1198.32 35.9997C1196.97 35.8398 1195.75 35.205 1194.88 34.2244C1194.02 33.2439 1193.59 31.9914 1193.68 30.722Z" fill="#2F2E41"/>
<path d="M1193.62 32.3357C1189.33 28.7254 1177 33.3139 1176.21 35.7412C1170.4 36.5432 1166 39.9768 1166 46.0821V46.0822C1169.45 47.5155 1173.38 47.3389 1177.63 46.0822C1184.4 51.6704 1184.86 58.6954 1180.75 66.7641L1185.81 66.8667L1192.09 57.5721L1192.39 67L1204 66.7641V53.2534C1204.04 48.7612 1203.02 44.3247 1201.02 40.3122C1199.21 36.7518 1196.4 34.6729 1193.62 32.3357Z" fill="#2F2E41"/>
<path d="M1183 56C1184.1 56 1185 54.6569 1185 53C1185 51.3431 1184.1 50 1183 50C1181.9 50 1181 51.3431 1181 53C1181 54.6569 1181.9 56 1183 56Z" fill="#FFB8B8"/>
</g>
<defs>
<linearGradient id="paint0_linear_888_5869" x1="1622.5" y1="-0.0001533" x2="-5.38439" y2="239.378" gradientUnits="userSpaceOnUse">
<stop stop-color="#FA9B21"/>
<stop offset="0.0001" stop-color="#FA9B21"/>
<stop offset="0.0002" stop-color="#FB8925"/>
<stop offset="1" stop-color="#FF3D34"/>
</linearGradient>
<clipPath id="clip0_888_5869">
<rect width="1600" height="175" fill="white"/>
</clipPath>
</defs>
</svg>
