<svg width="158" height="52" viewBox="0 0 158 52" fill="none" xmlns="http://www.w3.org/2000/svg">
<g filter="url(#filter0_d)">
<path d="M148.873 43.3594H9.12695C6.29492 43.3594 4 41.0645 4 38.2324V5.12695C4 2.29492 6.29492 0 9.12695 0H148.873C151.705 0 154 2.29492 154 5.12695V38.2324C154 41.0645 151.705 43.3594 148.873 43.3594Z" fill="black"/>
<path d="M37.1651 21.2457C37.1299 17.6297 40.1247 15.8692 40.263 15.7878C38.5676 13.3138 35.939 12.9775 35.014 12.9503C32.8086 12.7198 30.6683 14.2741 29.5452 14.2741C28.3978 14.2741 26.6644 12.9747 24.8008 13.0127C22.3973 13.0507 20.1512 14.4423 18.9197 16.5989C16.3806 21.0016 18.2741 27.4686 20.7101 31.0276C21.9308 32.7691 23.3522 34.7168 25.2158 34.6463C27.0387 34.5703 27.7196 33.4853 29.9196 33.4853C32.1006 33.4853 32.7408 34.6463 34.6423 34.6029C36.5982 34.5703 37.8297 32.8532 39.0043 31.0927C40.4149 29.0962 40.9791 27.1295 41.0008 27.0291C40.9547 27.0128 37.2031 25.5805 37.1651 21.2457Z" fill="white"/>
<path d="M33.5735 10.6121C34.5528 9.38593 35.2283 7.71493 35.0384 6.02222C33.6197 6.08732 31.8456 7.0042 30.8229 8.20321C29.9196 9.26115 29.1085 10.9945 29.3201 12.6222C30.9151 12.7415 32.5509 11.8192 33.5735 10.6121Z" fill="white"/>
<path d="M59.1649 28.1495L57.9062 24.2623C57.7733 23.8662 57.5238 22.9303 57.1548 21.4601H57.1114C56.965 22.0921 56.7262 23.028 56.4034 24.2623L55.1664 28.1495H59.1649ZM63.5161 34.3588H60.9743L59.5827 29.986H54.7487L53.4222 34.3588H50.9482L55.7442 19.4717H58.7011" fill="white"/>
<path d="M73.4118 28.947C73.4118 27.9 73.1758 27.04 72.7038 26.3619C72.1884 25.6566 71.4967 25.3012 70.6286 25.3012C70.04 25.3012 69.5029 25.4992 69.0282 25.8872C68.5507 26.2805 68.2361 26.7905 68.0869 27.4252C68.0136 27.7182 67.9784 27.9596 67.9784 28.1495V29.9399C67.9784 30.7211 68.2171 31.3803 68.6945 31.9174C69.1746 32.4572 69.7958 32.7231 70.5608 32.7231C71.4614 32.7231 72.1613 32.3786 72.6577 31.6841C73.1623 30.9924 73.4118 30.0809 73.4118 28.947ZM75.8424 28.8575C75.8424 30.6832 75.3487 32.129 74.3613 33.187C73.4769 34.131 72.3783 34.6003 71.0708 34.6003C69.6548 34.6003 68.6402 34.0903 68.0218 33.0757H67.9784V38.7317H65.5912V27.1567C65.5912 26.0092 65.5641 24.8319 65.5044 23.6221H67.6013L67.7342 25.3256H67.7803C68.5751 24.0425 69.7823 23.4023 71.4017 23.4023C72.6659 23.4023 73.7265 23.9042 74.5702 24.9052C75.4165 25.9089 75.8424 27.2245 75.8424 28.8575Z" fill="white"/>
<path d="M85.7573 28.947C85.7573 27.9 85.5213 27.04 85.0493 26.3619C84.5339 25.6566 83.8421 25.3012 82.9741 25.3012C82.3854 25.3012 81.851 25.4992 81.3736 25.8872C80.8934 26.2805 80.5842 26.7905 80.4377 27.4252C80.3618 27.7182 80.3265 27.9596 80.3265 28.1495V29.9399C80.3265 30.7211 80.5625 31.3803 81.0399 31.9174C81.5201 32.4572 82.1413 32.7231 82.909 32.7231C83.8069 32.7231 84.5067 32.3786 85.0059 31.6841C85.505 30.9924 85.7573 30.0809 85.7573 28.947ZM88.1851 28.8575C88.1851 30.6832 87.6941 32.129 86.7067 33.187C85.8224 34.131 84.7265 34.6003 83.4162 34.6003C82.0029 34.6003 80.9884 34.0903 80.3672 33.0757H80.3265V38.7317H77.9393V27.1567C77.9393 26.0092 77.9095 24.8319 77.8525 23.6221H79.9494L80.0824 25.3256H80.1285C80.9206 24.0425 82.1277 23.4023 83.7472 23.4023C85.014 23.4023 86.0692 23.9042 86.9183 24.9052C87.7646 25.9089 88.1851 27.2245 88.1851 28.8575Z" fill="white"/>
<path d="M101.993 30.1841C101.993 31.4482 101.553 32.479 100.669 33.2765C99.6977 34.1446 98.3495 34.5786 96.6161 34.5786C95.013 34.5786 93.7271 34.2693 92.7533 33.6509L93.3067 31.6652C94.3565 32.2972 95.5039 32.6119 96.7572 32.6119C97.6551 32.6119 98.355 32.4112 98.8568 32.007C99.3559 31.6001 99.6055 31.0575 99.6055 30.3794C99.6055 29.7772 99.4021 29.2645 98.9897 28.8521C98.5774 28.4398 97.8911 28.0573 96.9335 27.702C94.3266 26.7281 93.0246 25.304 93.0246 23.4322C93.0246 22.2088 93.4803 21.2051 94.3945 20.4239C95.3059 19.6426 96.5212 19.2493 98.0376 19.2493C99.3939 19.2493 100.52 19.488 101.418 19.9573L100.821 21.9023C99.9826 21.4465 99.0331 21.216 97.9725 21.216C97.1316 21.216 96.4778 21.4221 96.0085 21.8344C95.6125 22.2034 95.4117 22.6537 95.4117 23.1826C95.4117 23.7713 95.6369 24.2569 96.0953 24.6394C96.4914 24.992 97.2129 25.3745 98.26 25.7895C99.5404 26.3049 100.482 26.9071 101.087 27.5989C101.689 28.2906 101.993 29.1532 101.993 30.1841Z" fill="white"/>
<path d="M109.876 25.4125H107.247V30.6236C107.247 31.9501 107.711 32.612 108.641 32.612C109.065 32.612 109.42 32.5767 109.699 32.5035L109.764 34.3128C109.298 34.4919 108.677 34.5787 107.912 34.5787C106.97 34.5787 106.233 34.2911 105.701 33.7188C105.172 33.1437 104.906 32.178 104.906 30.8243V25.4125H103.338V23.6222H104.906V21.6582L107.247 20.9502V23.6222H109.876" fill="white"/>
<path d="M119.264 28.9796C119.264 27.9895 119.05 27.1431 118.621 26.4324C118.125 25.5752 117.409 25.1466 116.481 25.1466C115.523 25.1466 114.794 25.5752 114.295 26.4324C113.866 27.1431 113.657 28.0058 113.657 29.0257C113.657 30.0158 113.866 30.8622 114.295 31.5702C114.81 32.4274 115.532 32.856 116.462 32.856C117.371 32.856 118.087 32.422 118.602 31.5485C119.044 30.8269 119.264 29.9697 119.264 28.9796ZM121.738 28.9036C121.738 30.553 121.269 31.9066 120.325 32.9672C119.337 34.0577 118.027 34.6003 116.394 34.6003C114.815 34.6003 113.562 34.0767 112.626 33.0323C111.693 31.988 111.227 30.6696 111.227 29.08C111.227 27.4144 111.707 26.0526 112.672 24.9947C113.635 23.9313 114.935 23.4023 116.568 23.4023C118.144 23.4023 119.413 23.9259 120.368 24.9703C121.282 25.9902 121.738 27.2977 121.738 28.9036Z" fill="white"/>
<path d="M129.491 25.7217C129.255 25.6783 129.005 25.6566 128.74 25.6566C127.901 25.6566 127.25 25.974 126.795 26.606C126.399 27.1675 126.201 27.8728 126.201 28.7246V34.3588H123.816L123.835 27.0048C123.835 25.7651 123.805 24.6393 123.748 23.6221H125.826L125.913 25.6783H125.975C126.228 24.973 126.626 24.4033 127.169 23.9774C127.701 23.5949 128.276 23.4023 128.894 23.4023C129.114 23.4023 129.315 23.4186 129.491 23.4457" fill="white"/>
<path d="M137.881 27.8647C137.898 27.1594 137.743 26.5463 137.42 26.0309C137.008 25.369 136.37 25.0353 135.519 25.0353C134.74 25.0353 134.105 25.3609 133.62 26.0092C133.224 26.5246 132.985 27.1431 132.917 27.8647H137.881ZM140.154 28.4832C140.154 28.9118 140.127 29.2698 140.07 29.5655H132.917C132.941 30.6262 133.289 31.4373 133.953 31.9961C134.556 32.4979 135.337 32.7448 136.294 32.7448C137.352 32.7448 138.318 32.5766 139.189 32.2375L139.563 33.8949C138.546 34.3344 137.347 34.5595 135.961 34.5595C134.298 34.5595 132.99 34.0685 132.041 33.0866C131.094 32.11 130.617 30.7944 130.617 29.145C130.617 27.5256 131.056 26.1774 131.943 25.1032C132.868 23.953 134.121 23.3806 135.695 23.3806C137.241 23.3806 138.416 23.953 139.21 25.1032C139.843 26.0146 140.154 27.1431 140.154 28.4832Z" fill="white"/>
<path d="M52.499 12.1045V15H51.8984V7.89062H54.3203C55.0592 7.89062 55.6419 8.07943 56.0684 8.45703C56.498 8.83464 56.7129 9.35384 56.7129 10.0146C56.7129 10.682 56.5062 11.1979 56.0928 11.5625C55.6826 11.9238 55.0869 12.1045 54.3057 12.1045H52.499ZM52.499 11.5967H54.3203C54.903 11.5967 55.3473 11.4583 55.6533 11.1816C55.9593 10.9049 56.1123 10.5192 56.1123 10.0244C56.1123 9.53288 55.9593 9.14225 55.6533 8.85254C55.3506 8.55957 54.9193 8.40983 54.3594 8.40332H52.499V11.5967ZM60.3652 10.2148C60.2415 10.1921 60.1097 10.1807 59.9697 10.1807C59.6051 10.1807 59.2959 10.2832 59.042 10.4883C58.7913 10.6901 58.6123 10.9847 58.5049 11.3721V15H57.9238V9.7168H58.4951L58.5049 10.5566C58.8141 9.93164 59.3105 9.61914 59.9941 9.61914C60.1569 9.61914 60.2855 9.6403 60.3799 9.68262L60.3652 10.2148ZM60.873 12.2803C60.873 11.7725 60.9707 11.3151 61.166 10.9082C61.3646 10.5013 61.6429 10.1855 62.001 9.96094C62.3623 9.73307 62.7708 9.61914 63.2266 9.61914C63.9297 9.61914 64.4993 9.86654 64.9355 10.3613C65.3717 10.8529 65.5898 11.5055 65.5898 12.3193V12.4414C65.5898 12.9525 65.4906 13.4131 65.292 13.8232C65.0967 14.2301 64.82 14.5443 64.4619 14.7656C64.1038 14.987 63.6953 15.0977 63.2363 15.0977C62.5365 15.0977 61.9668 14.8519 61.5273 14.3604C61.0911 13.8656 60.873 13.2113 60.873 12.3975V12.2803ZM61.459 12.4414C61.459 13.0729 61.6217 13.5921 61.9473 13.999C62.276 14.4027 62.7057 14.6045 63.2363 14.6045C63.7637 14.6045 64.1901 14.4027 64.5156 13.999C64.8444 13.5921 65.0088 13.0566 65.0088 12.3926V12.2803C65.0088 11.8766 64.9339 11.5072 64.7842 11.1719C64.6344 10.8366 64.4245 10.5778 64.1543 10.3955C63.8841 10.21 63.5749 10.1172 63.2266 10.1172C62.7057 10.1172 62.2809 10.3223 61.9521 10.7324C61.6234 11.1393 61.459 11.6732 61.459 12.334V12.4414ZM63.8076 7.5H64.5156L63.3877 8.86719H62.875L63.8076 7.5ZM68.3535 11.8604L69.7793 9.7168H70.4727L68.6807 12.3096L70.5508 15H69.8623L68.3584 12.7637L66.8545 15H66.166L68.0312 12.3096L66.2393 9.7168H66.9277L68.3535 11.8604ZM72.2109 15H71.625V9.7168H72.2109V15ZM71.5225 8.18848C71.5225 8.0778 71.5583 7.98503 71.6299 7.91016C71.7015 7.83203 71.7992 7.79297 71.9229 7.79297C72.0465 7.79297 72.1442 7.83203 72.2158 7.91016C72.2907 7.98503 72.3281 8.0778 72.3281 8.18848C72.3281 8.29915 72.2907 8.39193 72.2158 8.4668C72.1442 8.54167 72.0465 8.5791 71.9229 8.5791C71.7992 8.5791 71.7015 8.54167 71.6299 8.4668C71.5583 8.39193 71.5225 8.29915 71.5225 8.18848ZM74.335 9.7168L74.3545 10.5762C74.5498 10.2572 74.7939 10.0179 75.0869 9.8584C75.3799 9.69889 75.7054 9.61914 76.0635 9.61914C76.8968 9.61914 77.4258 9.96094 77.6504 10.6445C77.8392 10.3158 78.0915 10.0635 78.4072 9.8877C78.723 9.70866 79.0713 9.61914 79.4521 9.61914C80.585 9.61914 81.1628 10.2376 81.1855 11.4746V15H80.5996V11.5186C80.5964 11.0465 80.4938 10.6966 80.292 10.4688C80.0934 10.2409 79.7679 10.127 79.3154 10.127C78.8955 10.1335 78.5407 10.2702 78.251 10.5371C77.9613 10.8008 77.8001 11.123 77.7676 11.5039V15H77.1816V11.4746C77.1784 11.0221 77.071 10.6852 76.8594 10.4639C76.651 10.2393 76.3288 10.127 75.8926 10.127C75.5247 10.127 75.209 10.2327 74.9453 10.4443C74.6816 10.6527 74.4863 10.9635 74.3594 11.377V15H73.7734V9.7168H74.335ZM86.0049 15C85.9463 14.834 85.9089 14.5882 85.8926 14.2627C85.6875 14.5296 85.4255 14.7363 85.1064 14.8828C84.7907 15.026 84.4554 15.0977 84.1006 15.0977C83.5928 15.0977 83.181 14.9561 82.8652 14.6729C82.5527 14.3896 82.3965 14.0316 82.3965 13.5986C82.3965 13.0843 82.6097 12.6774 83.0361 12.3779C83.4658 12.0785 84.0632 11.9287 84.8281 11.9287H85.8877V11.3281C85.8877 10.9505 85.7705 10.6543 85.5361 10.4395C85.305 10.2214 84.9665 10.1123 84.5205 10.1123C84.1136 10.1123 83.7767 10.2165 83.5098 10.4248C83.2428 10.6331 83.1094 10.8838 83.1094 11.1768L82.5234 11.1719C82.5234 10.752 82.7188 10.389 83.1094 10.083C83.5 9.77376 83.9801 9.61914 84.5498 9.61914C85.139 9.61914 85.6029 9.76725 85.9414 10.0635C86.2832 10.3564 86.459 10.7666 86.4688 11.2939V13.7939C86.4688 14.305 86.5225 14.6875 86.6299 14.9414V15H86.0049ZM84.1689 14.5801C84.5596 14.5801 84.9079 14.4857 85.2139 14.2969C85.5231 14.1081 85.7477 13.8558 85.8877 13.54V12.3779H84.8428C84.2601 12.3844 83.8044 12.4919 83.4756 12.7002C83.1468 12.9053 82.9824 13.1885 82.9824 13.5498C82.9824 13.846 83.0915 14.0918 83.3096 14.2871C83.5309 14.4824 83.8174 14.5801 84.1689 14.5801ZM88.5635 9.7168L88.583 10.5762C88.7783 10.2572 89.0225 10.0179 89.3154 9.8584C89.6084 9.69889 89.9339 9.61914 90.292 9.61914C91.1253 9.61914 91.6543 9.96094 91.8789 10.6445C92.0677 10.3158 92.32 10.0635 92.6357 9.8877C92.9515 9.70866 93.2998 9.61914 93.6807 9.61914C94.8135 9.61914 95.3913 10.2376 95.4141 11.4746V15H94.8281V11.5186C94.8249 11.0465 94.7223 10.6966 94.5205 10.4688C94.3219 10.2409 93.9964 10.127 93.5439 10.127C93.124 10.1335 92.7692 10.2702 92.4795 10.5371C92.1898 10.8008 92.0286 11.123 91.9961 11.5039V15H91.4102V11.4746C91.4069 11.0221 91.2995 10.6852 91.0879 10.4639C90.8796 10.2393 90.5573 10.127 90.1211 10.127C89.7533 10.127 89.4375 10.2327 89.1738 10.4443C88.9102 10.6527 88.7148 10.9635 88.5879 11.377V15H88.002V9.7168H88.5635ZM98.9443 15.0977C98.4951 15.0977 98.0882 14.987 97.7236 14.7656C97.3623 14.5443 97.0807 14.2367 96.8789 13.8428C96.6771 13.4456 96.5762 13.0013 96.5762 12.5098V12.2998C96.5762 11.792 96.6738 11.3346 96.8691 10.9277C97.0677 10.5208 97.3428 10.2018 97.6943 9.9707C98.0459 9.73633 98.4268 9.61914 98.8369 9.61914C99.4782 9.61914 99.986 9.83887 100.36 10.2783C100.738 10.7145 100.927 11.3118 100.927 12.0703V12.3975H97.1572V12.5098C97.1572 13.1087 97.3281 13.6084 97.6699 14.0088C98.015 14.4059 98.4479 14.6045 98.9688 14.6045C99.2812 14.6045 99.5563 14.5475 99.7939 14.4336C100.035 14.3197 100.253 14.1374 100.448 13.8867L100.814 14.165C100.385 14.7868 99.7614 15.0977 98.9443 15.0977ZM98.8369 10.1172C98.3975 10.1172 98.0264 10.2783 97.7236 10.6006C97.4242 10.9229 97.2419 11.3558 97.1768 11.8994H100.346V11.8359C100.329 11.3281 100.185 10.9147 99.9111 10.5957C99.6377 10.2767 99.2796 10.1172 98.8369 10.1172ZM102.621 9.7168L102.641 10.6201C102.839 10.2946 103.087 10.0472 103.383 9.87793C103.679 9.7054 104.006 9.61914 104.364 9.61914C104.931 9.61914 105.352 9.77865 105.629 10.0977C105.906 10.4167 106.046 10.8952 106.049 11.5332V15H105.468V11.5283C105.465 11.0563 105.364 10.7048 105.165 10.4736C104.97 10.2425 104.656 10.127 104.223 10.127C103.861 10.127 103.541 10.2409 103.261 10.4688C102.984 10.6934 102.779 10.9977 102.646 11.3818V15H102.064V9.7168H102.621ZM108.471 8.36426V9.7168H109.564V10.1953H108.471V13.7158C108.471 14.0088 108.523 14.2269 108.627 14.3701C108.734 14.5133 108.912 14.585 109.159 14.585C109.257 14.585 109.415 14.5687 109.633 14.5361L109.657 15.0146C109.504 15.07 109.296 15.0977 109.032 15.0977C108.632 15.0977 108.34 14.9821 108.158 14.751C107.976 14.5166 107.885 14.1732 107.885 13.7207V10.1953H106.913V9.7168H107.885V8.36426H108.471ZM112.821 15.0977C112.372 15.0977 111.965 14.987 111.601 14.7656C111.239 14.5443 110.958 14.2367 110.756 13.8428C110.554 13.4456 110.453 13.0013 110.453 12.5098V12.2998C110.453 11.792 110.551 11.3346 110.746 10.9277C110.945 10.5208 111.22 10.2018 111.571 9.9707C111.923 9.73633 112.304 9.61914 112.714 9.61914C113.355 9.61914 113.863 9.83887 114.237 10.2783C114.615 10.7145 114.804 11.3118 114.804 12.0703V12.3975H111.034V12.5098C111.034 13.1087 111.205 13.6084 111.547 14.0088C111.892 14.4059 112.325 14.6045 112.846 14.6045C113.158 14.6045 113.433 14.5475 113.671 14.4336C113.912 14.3197 114.13 14.1374 114.325 13.8867L114.691 14.165C114.262 14.7868 113.638 15.0977 112.821 15.0977ZM112.714 10.1172C112.274 10.1172 111.903 10.2783 111.601 10.6006C111.301 10.9229 111.119 11.3558 111.054 11.8994H114.223V11.8359C114.206 11.3281 114.062 10.9147 113.788 10.5957C113.515 10.2767 113.157 10.1172 112.714 10.1172ZM120.419 15.0977C119.97 15.0977 119.563 14.987 119.198 14.7656C118.837 14.5443 118.555 14.2367 118.354 13.8428C118.152 13.4456 118.051 13.0013 118.051 12.5098V12.2998C118.051 11.792 118.148 11.3346 118.344 10.9277C118.542 10.5208 118.817 10.2018 119.169 9.9707C119.521 9.73633 119.901 9.61914 120.312 9.61914C120.953 9.61914 121.461 9.83887 121.835 10.2783C122.213 10.7145 122.401 11.3118 122.401 12.0703V12.3975H118.632V12.5098C118.632 13.1087 118.803 13.6084 119.145 14.0088C119.49 14.4059 119.923 14.6045 120.443 14.6045C120.756 14.6045 121.031 14.5475 121.269 14.4336C121.509 14.3197 121.728 14.1374 121.923 13.8867L122.289 14.165C121.859 14.7868 121.236 15.0977 120.419 15.0977ZM120.312 10.1172C119.872 10.1172 119.501 10.2783 119.198 10.6006C118.899 10.9229 118.716 11.3558 118.651 11.8994H121.82V11.8359C121.804 11.3281 121.659 10.9147 121.386 10.5957C121.112 10.2767 120.754 10.1172 120.312 10.1172ZM124.096 9.7168L124.115 10.6201C124.314 10.2946 124.561 10.0472 124.857 9.87793C125.154 9.7054 125.481 9.61914 125.839 9.61914C126.405 9.61914 126.827 9.77865 127.104 10.0977C127.38 10.4167 127.52 10.8952 127.523 11.5332V15H126.942V11.5283C126.939 11.0563 126.838 10.7048 126.64 10.4736C126.444 10.2425 126.13 10.127 125.697 10.127C125.336 10.127 125.015 10.2409 124.735 10.4688C124.459 10.6934 124.254 10.9977 124.12 11.3818V15H123.539V9.7168H124.096Z" fill="white"/>
</g>
<defs>
<filter id="filter0_d" x="0" y="0" width="158" height="51.3594" filterUnits="userSpaceOnUse" color-interpolation-filters="sRGB">
<feFlood flood-opacity="0" result="BackgroundImageFix"/>
<feColorMatrix in="SourceAlpha" type="matrix" values="0 0 0 0 0 0 0 0 0 0 0 0 0 0 0 0 0 0 127 0"/>
<feOffset dy="4"/>
<feGaussianBlur stdDeviation="2"/>
<feColorMatrix type="matrix" values="0 0 0 0 0 0 0 0 0 0 0 0 0 0 0 0 0 0 0.25 0"/>
<feBlend mode="normal" in2="BackgroundImageFix" result="effect1_dropShadow"/>
<feBlend mode="normal" in="SourceGraphic" in2="effect1_dropShadow" result="shape"/>
</filter>
</defs>
</svg>
