<svg width="31" height="26" viewBox="0 0 31 26" fill="none" xmlns="http://www.w3.org/2000/svg">
<path d="M19.6585 5.07317C21.0537 5.07317 22.1951 3.93171 22.1951 2.53659C22.1951 1.14146 21.0537 0 19.6585 0C18.2634 0 17.122 1.14146 17.122 2.53659C17.122 3.93171 18.2634 5.07317 19.6585 5.07317ZM6.34146 13.3171C2.79024 13.3171 0 16.1073 0 19.6585C0 23.2098 2.79024 26 6.34146 26C9.89268 26 12.6829 23.2098 12.6829 19.6585C12.6829 16.1073 9.89268 13.3171 6.34146 13.3171ZM6.34146 24.0976C3.93171 24.0976 1.90244 22.0683 1.90244 19.6585C1.90244 17.2488 3.93171 15.2195 6.34146 15.2195C8.75122 15.2195 10.7805 17.2488 10.7805 19.6585C10.7805 22.0683 8.75122 24.0976 6.34146 24.0976ZM13.6976 11.4146L16.7415 8.37073L17.7561 9.38536C19.0878 10.7171 20.6859 11.6429 22.6517 11.9473C23.4127 12.0615 24.0976 11.4527 24.0976 10.679C24.0976 10.0576 23.641 9.53756 23.0195 9.4361C21.6498 9.2078 20.5717 8.53561 19.6585 7.62244L17.2488 5.21268C16.6146 4.69268 15.9805 4.43902 15.2195 4.43902C14.4585 4.43902 14.193 4.36768 13.8125 4.875C13.8125 4.875 11.375 2.4375 10.5625 2.4375C9.75 2.4375 6.5 6.5 7.3125 7.3125C8.125 8.125 9.89268 8.75122 9.89268 8.75122C9.38537 9.25854 9.13171 9.89268 9.13171 10.5268C9.13171 11.2878 9.38537 11.922 9.89268 12.3024L13.9512 15.8537V20.9268C13.9512 21.6244 14.522 22.1951 15.2195 22.1951C15.9171 22.1951 16.4878 21.6244 16.4878 20.9268V15.3463C16.4878 14.6868 16.2341 14.0654 15.7902 13.5961L13.6976 11.4146ZM24.0976 13.3171C20.5463 13.3171 17.7561 16.1073 17.7561 19.6585C17.7561 23.2098 20.5463 26 24.0976 26C27.6488 26 30.439 23.2098 30.439 19.6585C30.439 16.1073 27.6488 13.3171 24.0976 13.3171ZM24.0976 24.0976C21.6878 24.0976 19.6585 22.0683 19.6585 19.6585C19.6585 17.2488 21.6878 15.2195 24.0976 15.2195C26.5073 15.2195 28.5366 17.2488 28.5366 19.6585C28.5366 22.0683 26.5073 24.0976 24.0976 24.0976Z" fill="#42D697"/>
</svg>
