<svg width="50" height="50" viewBox="0 0 50 50" fill="none" xmlns="http://www.w3.org/2000/svg">
<path d="M25 45C13.975 45 5 36.025 5 25C5 13.975 13.975 5 25 5C36.025 5 45 13.975 45 25C45 36.025 36.025 45 25 45ZM25 50C38.8 50 50 38.8 50 25C50 11.2 38.8 0 25 0C11.2 0 0 11.2 0 25C0 38.8 11.2 50 25 50ZM22.5 25V32.5C22.5 33.875 23.625 35 25 35C26.375 35 27.5 33.875 27.5 32.5V25H31.975C33.1 25 33.65 23.65 32.85 22.875L25.875 15.9C25.375 15.4 24.6 15.4 24.1 15.9L17.125 22.875C16.35 23.65 16.9 25 18.025 25H22.5Z" fill="white"/>
</svg>
