<svg width="158" height="53" viewBox="0 0 158 53" fill="none" xmlns="http://www.w3.org/2000/svg">
<g filter="url(#filter0_d)">
<path d="M148.444 44.4444H9.55556C6.44444 44.4444 4 42 4 38.8889V5.55556C4 2.44444 6.44444 0 9.55556 0H148.444C151.556 0 154 2.44444 154 5.55556V38.8889C154 42 151.556 44.4444 148.444 44.4444Z" fill="black"/>
<path d="M79.6667 24.2222C77.0001 24.2222 74.889 26.2222 74.889 29C74.889 31.6667 77.0001 33.7778 79.6667 33.7778C82.3334 33.7778 84.4445 31.7778 84.4445 29C84.4445 26.1111 82.3334 24.2222 79.6667 24.2222ZM79.6667 31.7778C78.2223 31.7778 77.0001 30.5556 77.0001 28.8889C77.0001 27.2222 78.2223 26 79.6667 26C81.1112 26 82.3334 27.1111 82.3334 28.8889C82.3334 30.5556 81.1112 31.7778 79.6667 31.7778ZM69.3334 24.2222C66.6667 24.2222 64.5556 26.2222 64.5556 29C64.5556 31.6667 66.6667 33.7778 69.3334 33.7778C72.0001 33.7778 74.1112 31.7778 74.1112 29C74.1112 26.1111 72.0001 24.2222 69.3334 24.2222ZM69.3334 31.7778C67.889 31.7778 66.6668 30.5556 66.6668 28.8889C66.6668 27.2222 67.889 26 69.3334 26C70.7779 26 72.0001 27.1111 72.0001 28.8889C72.0001 30.5556 70.7779 31.7778 69.3334 31.7778ZM57.0001 25.6667V27.6667H61.7779C61.6668 28.7778 61.2223 29.6667 60.6668 30.2222C60.0001 30.8889 58.889 31.6667 57.0001 31.6667C54.0001 31.6667 51.7779 29.3333 51.7779 26.3333C51.7779 23.3333 54.1112 21 57.0001 21C58.5556 21 59.7779 21.6667 60.6668 22.4444L62.1112 21C60.889 19.8889 59.3334 19 57.1112 19C53.1112 19 49.6667 22.3333 49.6667 26.3333C49.6667 30.3333 53.1112 33.6667 57.1112 33.6667C59.3334 33.6667 60.889 33 62.2223 31.5556C63.5556 30.2222 64.0001 28.3333 64.0001 26.8889C64.0001 26.4444 64.0001 26 63.889 25.6667H57.0001V25.6667ZM107.445 27.2222C107 26.1111 105.889 24.2222 103.445 24.2222C101 24.2222 99.0001 26.1111 99.0001 29C99.0001 31.6667 101 33.7778 103.667 33.7778C105.778 33.7778 107.111 32.4444 107.556 31.6667L106 30.5556C105.445 31.3333 104.778 31.8889 103.667 31.8889C102.556 31.8889 101.889 31.4444 101.333 30.4444L107.667 27.7778L107.445 27.2222V27.2222ZM101 28.7778C101 27 102.445 26 103.445 26C104.222 26 105 26.4444 105.222 27L101 28.7778ZM95.7779 33.3333H97.889V19.4444H95.7779V33.3333ZM92.4445 25.2222C91.889 24.6667 91.0001 24.1111 89.889 24.1111C87.5556 24.1111 85.3334 26.2222 85.3334 28.8889C85.3334 31.5556 87.4445 33.5556 89.889 33.5556C91.0001 33.5556 91.889 33 92.3334 32.4444H92.4445V33.1111C92.4445 34.8889 91.4445 35.8889 89.889 35.8889C88.6668 35.8889 87.7779 35 87.5556 34.2222L85.7779 35C86.3334 36.2222 87.6668 37.7778 90.0001 37.7778C92.4445 37.7778 94.4445 36.3333 94.4445 32.8889V24.4444H92.4445V25.2222V25.2222ZM90.0001 31.7778C88.5556 31.7778 87.3334 30.5556 87.3334 28.8889C87.3334 27.2222 88.5556 26 90.0001 26C91.4445 26 92.5556 27.2222 92.5556 28.8889C92.5556 30.5556 91.4445 31.7778 90.0001 31.7778ZM117.111 19.4444H112.111V33.3333H114.222V28.1111H117.111C119.445 28.1111 121.667 26.4444 121.667 23.7778C121.667 21.1111 119.445 19.4444 117.111 19.4444V19.4444ZM117.222 26.1111H114.222V21.3333H117.222C118.778 21.3333 119.667 22.6667 119.667 23.6667C119.556 24.8889 118.667 26.1111 117.222 26.1111ZM130 24.1111C128.445 24.1111 126.889 24.7778 126.333 26.2222L128.222 27C128.667 26.2222 129.333 26 130.111 26C131.222 26 132.222 26.6667 132.333 27.7778V27.8889C132 27.6667 131.111 27.3333 130.222 27.3333C128.222 27.3333 126.222 28.4444 126.222 30.4444C126.222 32.3333 127.889 33.5556 129.667 33.5556C131.111 33.5556 131.778 32.8889 132.333 32.2222H132.445V33.3333H134.445V28C134.222 25.5556 132.333 24.1111 130 24.1111V24.1111ZM129.778 31.7778C129.111 31.7778 128.111 31.4444 128.111 30.5556C128.111 29.4444 129.333 29.1111 130.333 29.1111C131.222 29.1111 131.667 29.3333 132.222 29.5556C132 30.8889 130.889 31.7778 129.778 31.7778V31.7778ZM141.445 24.4444L139.111 30.4444H139L136.556 24.4444H134.333L138 32.8889L135.889 37.5556H138L143.667 24.4444H141.445V24.4444ZM122.778 33.3333H124.889V19.4444H122.778V33.3333Z" fill="white"/>
<path d="M15.5555 8.33325C15.2222 8.66659 15.1111 9.22214 15.1111 9.88881V34.4444C15.1111 35.111 15.3333 35.6666 15.6666 35.9999L15.7778 36.111L29.5555 22.3333V22.111L15.5555 8.33325Z" fill="url(#paint0_linear)"/>
<path d="M33.9999 27.0001L29.4443 22.4446V22.1112L33.9999 17.5557L34.111 17.6668L39.5554 20.7779C41.111 21.6668 41.111 23.1112 39.5554 24.0001L33.9999 27.0001V27.0001Z" fill="url(#paint1_linear)"/>
<path d="M34.111 26.8888L29.4443 22.2222L15.5554 36.1111C16.111 36.6666 16.8888 36.6666 17.8888 36.2222L34.111 26.8888" fill="url(#paint2_linear)"/>
<path d="M34.111 17.5555L17.8888 8.33327C16.8888 7.77771 16.111 7.88882 15.5554 8.44438L29.4443 22.2222L34.111 17.5555V17.5555Z" fill="url(#paint3_linear)"/>
<path opacity="0.2" d="M33.9999 26.7778L17.8888 35.8889C16.9999 36.4445 16.2221 36.3334 15.6665 35.8889L15.5554 36.0001L15.6665 36.1112C16.2221 36.5556 16.9999 36.6667 17.8888 36.1112L33.9999 26.7778Z" fill="black"/>
<path opacity="0.12" d="M15.5555 35.8888C15.2222 35.5555 15.1111 34.9999 15.1111 34.3333V34.4444C15.1111 35.1111 15.3333 35.6666 15.6666 35.9999V35.8888H15.5555ZM39.5555 23.6666L34 26.7777L34.1111 26.8888L39.5555 23.7777C40.3333 23.3333 40.6666 22.7777 40.6666 22.2222C40.6666 22.7777 40.2222 23.2222 39.5555 23.6666V23.6666Z" fill="black"/>
<path opacity="0.25" d="M17.8889 8.44453L39.5555 20.7779C40.2222 21.2223 40.6666 21.6667 40.6666 22.2223C40.6666 21.6667 40.3333 21.1112 39.5555 20.6667L17.8889 8.33342C16.3333 7.44453 15.1111 8.11119 15.1111 9.88897V10.0001C15.1111 8.33342 16.3333 7.55564 17.8889 8.44453Z" fill="white"/>
<path d="M51.0546 10.5488V13.4443H50.454V6.33496H52.8759C53.6148 6.33496 54.1975 6.52376 54.6239 6.90137C55.0536 7.27897 55.2684 7.79818 55.2684 8.45898C55.2684 9.1263 55.0617 9.64225 54.6483 10.0068C54.2382 10.3682 53.6425 10.5488 52.8612 10.5488H51.0546ZM51.0546 10.041H52.8759C53.4585 10.041 53.9029 9.90267 54.2089 9.62598C54.5149 9.34928 54.6678 8.96354 54.6678 8.46875C54.6678 7.97721 54.5149 7.58659 54.2089 7.29688C53.9061 7.00391 53.4748 6.85417 52.9149 6.84766H51.0546V10.041ZM58.9208 8.65918C58.7971 8.63639 58.6652 8.625 58.5253 8.625C58.1607 8.625 57.8514 8.72754 57.5975 8.93262C57.3469 9.13444 57.1678 9.42904 57.0604 9.81641V13.4443H56.4794V8.16113H57.0507L57.0604 9.00098C57.3697 8.37598 57.8661 8.06348 58.5497 8.06348C58.7124 8.06348 58.841 8.08464 58.9354 8.12695L58.9208 8.65918ZM59.4286 10.7246C59.4286 10.2168 59.5262 9.75944 59.7216 9.35254C59.9201 8.94564 60.1984 8.62988 60.5565 8.40527C60.9178 8.17741 61.3264 8.06348 61.7821 8.06348C62.4852 8.06348 63.0549 8.31087 63.4911 8.80566C63.9273 9.2972 64.1454 9.94987 64.1454 10.7637V10.8857C64.1454 11.3968 64.0461 11.8574 63.8475 12.2676C63.6522 12.6745 63.3755 12.9886 63.0175 13.21C62.6594 13.4313 62.2509 13.542 61.7919 13.542C61.092 13.542 60.5223 13.2962 60.0829 12.8047C59.6467 12.3099 59.4286 11.6556 59.4286 10.8418V10.7246ZM60.0145 10.8857C60.0145 11.5173 60.1773 12.0365 60.5028 12.4434C60.8316 12.847 61.2613 13.0488 61.7919 13.0488C62.3192 13.0488 62.7456 12.847 63.0712 12.4434C63.3999 12.0365 63.5643 11.501 63.5643 10.8369V10.7246C63.5643 10.321 63.4895 9.9515 63.3397 9.61621C63.19 9.28092 62.98 9.02214 62.7098 8.83984C62.4397 8.6543 62.1304 8.56152 61.7821 8.56152C61.2613 8.56152 60.8365 8.7666 60.5077 9.17676C60.1789 9.58366 60.0145 10.1175 60.0145 10.7783V10.8857ZM62.3632 5.94434H63.0712L61.9432 7.31152H61.4305L62.3632 5.94434ZM66.9091 10.3047L68.3348 8.16113H69.0282L67.2362 10.7539L69.1063 13.4443H68.4178L66.9139 11.208L65.41 13.4443H64.7216L66.5868 10.7539L64.7948 8.16113H65.4833L66.9091 10.3047ZM70.7665 13.4443H70.1805V8.16113H70.7665V13.4443ZM70.078 6.63281C70.078 6.52214 70.1138 6.42936 70.1854 6.35449C70.257 6.27637 70.3547 6.2373 70.4784 6.2373C70.6021 6.2373 70.6997 6.27637 70.7714 6.35449C70.8462 6.42936 70.8837 6.52214 70.8837 6.63281C70.8837 6.74349 70.8462 6.83626 70.7714 6.91113C70.6997 6.986 70.6021 7.02344 70.4784 7.02344C70.3547 7.02344 70.257 6.986 70.1854 6.91113C70.1138 6.83626 70.078 6.74349 70.078 6.63281ZM72.8905 8.16113L72.91 9.02051C73.1053 8.7015 73.3495 8.46224 73.6425 8.30273C73.9354 8.14323 74.2609 8.06348 74.619 8.06348C75.4524 8.06348 75.9813 8.40527 76.2059 9.08887C76.3947 8.76009 76.647 8.50781 76.9628 8.33203C77.2785 8.15299 77.6268 8.06348 78.0077 8.06348C79.1405 8.06348 79.7183 8.68197 79.7411 9.91895V13.4443H79.1552V9.96289C79.1519 9.49089 79.0494 9.14095 78.8475 8.91309C78.649 8.68522 78.3234 8.57129 77.871 8.57129C77.451 8.5778 77.0962 8.71452 76.8065 8.98145C76.5168 9.24512 76.3557 9.56738 76.3231 9.94824V13.4443H75.7372V9.91895C75.7339 9.46647 75.6265 9.12956 75.4149 8.9082C75.2066 8.68359 74.8843 8.57129 74.4481 8.57129C74.0803 8.57129 73.7645 8.67708 73.5009 8.88867C73.2372 9.09701 73.0419 9.40788 72.9149 9.82129V13.4443H72.329V8.16113H72.8905ZM84.5604 13.4443C84.5018 13.2783 84.4644 13.0326 84.4481 12.707C84.243 12.974 83.981 13.1807 83.662 13.3271C83.3462 13.4704 83.0109 13.542 82.6561 13.542C82.1483 13.542 81.7365 13.4004 81.4208 13.1172C81.1083 12.834 80.952 12.4759 80.952 12.043C80.952 11.5286 81.1652 11.1217 81.5917 10.8223C82.0214 10.5228 82.6187 10.373 83.3837 10.373H84.4432V9.77246C84.4432 9.39486 84.326 9.09863 84.0917 8.88379C83.8606 8.66569 83.522 8.55664 83.076 8.55664C82.6691 8.55664 82.3322 8.66081 82.0653 8.86914C81.7984 9.07747 81.6649 9.32812 81.6649 9.62109L81.079 9.61621C81.079 9.19629 81.2743 8.83333 81.6649 8.52734C82.0555 8.2181 82.5357 8.06348 83.1053 8.06348C83.6945 8.06348 84.1584 8.21159 84.4969 8.50781C84.8387 8.80078 85.0145 9.21094 85.0243 9.73828V12.2383C85.0243 12.7493 85.078 13.1318 85.1854 13.3857V13.4443H84.5604ZM82.7245 13.0244C83.1151 13.0244 83.4634 12.93 83.7694 12.7412C84.0787 12.5524 84.3033 12.3001 84.4432 11.9844V10.8223H83.3983C82.8156 10.8288 82.3599 10.9362 82.0311 11.1445C81.7024 11.3496 81.538 11.6328 81.538 11.9941C81.538 12.2904 81.647 12.5361 81.8651 12.7314C82.0865 12.9268 82.3729 13.0244 82.7245 13.0244ZM87.119 8.16113L87.1385 9.02051C87.3339 8.7015 87.578 8.46224 87.871 8.30273C88.1639 8.14323 88.4895 8.06348 88.8475 8.06348C89.6809 8.06348 90.2098 8.40527 90.4344 9.08887C90.6233 8.76009 90.8755 8.50781 91.1913 8.33203C91.507 8.15299 91.8553 8.06348 92.2362 8.06348C93.369 8.06348 93.9468 8.68197 93.9696 9.91895V13.4443H93.3837V9.96289C93.3804 9.49089 93.2779 9.14095 93.076 8.91309C92.8775 8.68522 92.552 8.57129 92.0995 8.57129C91.6796 8.5778 91.3247 8.71452 91.035 8.98145C90.7453 9.24512 90.5842 9.56738 90.5516 9.94824V13.4443H89.9657V9.91895C89.9624 9.46647 89.855 9.12956 89.6434 8.9082C89.4351 8.68359 89.1128 8.57129 88.6766 8.57129C88.3088 8.57129 87.993 8.67708 87.7294 8.88867C87.4657 9.09701 87.2704 9.40788 87.1434 9.82129V13.4443H86.5575V8.16113H87.119ZM97.4999 13.542C97.0507 13.542 96.6438 13.4313 96.2792 13.21C95.9178 12.9886 95.6363 12.681 95.4344 12.2871C95.2326 11.89 95.1317 11.4456 95.1317 10.9541V10.7441C95.1317 10.2363 95.2294 9.77897 95.4247 9.37207C95.6233 8.96517 95.8983 8.64616 96.2499 8.41504C96.6014 8.18066 96.9823 8.06348 97.3925 8.06348C98.0337 8.06348 98.5415 8.2832 98.9159 8.72266C99.2935 9.15885 99.4823 9.75618 99.4823 10.5146V10.8418H95.7128V10.9541C95.7128 11.5531 95.8837 12.0527 96.2255 12.4531C96.5705 12.8503 97.0035 13.0488 97.5243 13.0488C97.8368 13.0488 98.1119 12.9919 98.3495 12.8779C98.5904 12.764 98.8085 12.5817 99.0038 12.3311L99.37 12.6094C98.9403 13.2311 98.3169 13.542 97.4999 13.542ZM97.3925 8.56152C96.953 8.56152 96.5819 8.72266 96.2792 9.04492C95.9797 9.36719 95.7974 9.80013 95.7323 10.3438H98.9012V10.2803C98.885 9.77246 98.7401 9.35905 98.4667 9.04004C98.1932 8.72103 97.8352 8.56152 97.3925 8.56152ZM101.177 8.16113L101.196 9.06445C101.395 8.73893 101.642 8.49154 101.938 8.32227C102.235 8.14974 102.562 8.06348 102.92 8.06348C103.486 8.06348 103.908 8.22298 104.184 8.54199C104.461 8.861 104.601 9.33952 104.604 9.97754V13.4443H104.023V9.97266C104.02 9.50065 103.919 9.14909 103.721 8.91797C103.525 8.68685 103.211 8.57129 102.778 8.57129C102.417 8.57129 102.096 8.68522 101.816 8.91309C101.54 9.1377 101.335 9.44206 101.201 9.82617V13.4443H100.62V8.16113H101.177ZM107.026 6.80859V8.16113H108.12V8.63965H107.026V12.1602C107.026 12.4531 107.078 12.6712 107.182 12.8145C107.29 12.9577 107.467 13.0293 107.715 13.0293C107.812 13.0293 107.97 13.013 108.188 12.9805L108.213 13.459C108.06 13.5143 107.851 13.542 107.588 13.542C107.187 13.542 106.896 13.4264 106.714 13.1953C106.531 12.9609 106.44 12.6175 106.44 12.165V8.63965H105.469V8.16113H106.44V6.80859H107.026ZM111.377 13.542C110.928 13.542 110.521 13.4313 110.156 13.21C109.795 12.9886 109.513 12.681 109.311 12.2871C109.11 11.89 109.009 11.4456 109.009 10.9541V10.7441C109.009 10.2363 109.106 9.77897 109.302 9.37207C109.5 8.96517 109.775 8.64616 110.127 8.41504C110.478 8.18066 110.859 8.06348 111.269 8.06348C111.911 8.06348 112.418 8.2832 112.793 8.72266C113.17 9.15885 113.359 9.75618 113.359 10.5146V10.8418H109.59V10.9541C109.59 11.5531 109.761 12.0527 110.102 12.4531C110.447 12.8503 110.88 13.0488 111.401 13.0488C111.714 13.0488 111.989 12.9919 112.226 12.8779C112.467 12.764 112.685 12.5817 112.881 12.3311L113.247 12.6094C112.817 13.2311 112.194 13.542 111.377 13.542ZM111.269 8.56152C110.83 8.56152 110.459 8.72266 110.156 9.04492C109.857 9.36719 109.674 9.80013 109.609 10.3438H112.778V10.2803C112.762 9.77246 112.617 9.35905 112.344 9.04004C112.07 8.72103 111.712 8.56152 111.269 8.56152ZM118.974 13.542C118.525 13.542 118.118 13.4313 117.754 13.21C117.392 12.9886 117.111 12.681 116.909 12.2871C116.707 11.89 116.606 11.4456 116.606 10.9541V10.7441C116.606 10.2363 116.704 9.77897 116.899 9.37207C117.098 8.96517 117.373 8.64616 117.724 8.41504C118.076 8.18066 118.457 8.06348 118.867 8.06348C119.508 8.06348 120.016 8.2832 120.391 8.72266C120.768 9.15885 120.957 9.75618 120.957 10.5146V10.8418H117.187V10.9541C117.187 11.5531 117.358 12.0527 117.7 12.4531C118.045 12.8503 118.478 13.0488 118.999 13.0488C119.311 13.0488 119.586 12.9919 119.824 12.8779C120.065 12.764 120.283 12.5817 120.478 12.3311L120.845 12.6094C120.415 13.2311 119.792 13.542 118.974 13.542ZM118.867 8.56152C118.428 8.56152 118.057 8.72266 117.754 9.04492C117.454 9.36719 117.272 9.80013 117.207 10.3438H120.376V10.2803C120.36 9.77246 120.215 9.35905 119.941 9.04004C119.668 8.72103 119.31 8.56152 118.867 8.56152ZM122.651 8.16113L122.671 9.06445C122.869 8.73893 123.117 8.49154 123.413 8.32227C123.709 8.14974 124.036 8.06348 124.394 8.06348C124.961 8.06348 125.382 8.22298 125.659 8.54199C125.936 8.861 126.076 9.33952 126.079 9.97754V13.4443H125.498V9.97266C125.495 9.50065 125.394 9.14909 125.195 8.91797C125 8.68685 124.686 8.57129 124.253 8.57129C123.891 8.57129 123.571 8.68522 123.291 8.91309C123.014 9.1377 122.809 9.44206 122.676 9.82617V13.4443H122.095V8.16113H122.651Z" fill="white"/>
</g>
<defs>
<filter id="filter0_d" x="0" y="0" width="158" height="52.4444" filterUnits="userSpaceOnUse" color-interpolation-filters="sRGB">
<feFlood flood-opacity="0" result="BackgroundImageFix"/>
<feColorMatrix in="SourceAlpha" type="matrix" values="0 0 0 0 0 0 0 0 0 0 0 0 0 0 0 0 0 0 127 0"/>
<feOffset dy="4"/>
<feGaussianBlur stdDeviation="2"/>
<feColorMatrix type="matrix" values="0 0 0 0 0 0 0 0 0 0 0 0 0 0 0 0 0 0 0.25 0"/>
<feBlend mode="normal" in2="BackgroundImageFix" result="effect1_dropShadow"/>
<feBlend mode="normal" in="SourceGraphic" in2="effect1_dropShadow" result="shape"/>
</filter>
<linearGradient id="paint0_linear" x1="28.2222" y1="9.6777" x2="9.57442" y2="28.3244" gradientUnits="userSpaceOnUse">
<stop stop-color="#00A0FF"/>
<stop offset="0.007" stop-color="#00A1FF"/>
<stop offset="0.26" stop-color="#00BEFF"/>
<stop offset="0.512" stop-color="#00D2FF"/>
<stop offset="0.76" stop-color="#00DFFF"/>
<stop offset="1" stop-color="#00E3FF"/>
</linearGradient>
<linearGradient id="paint1_linear" x1="41.5932" y1="22.2234" x2="14.7077" y2="22.2234" gradientUnits="userSpaceOnUse">
<stop stop-color="#FFE000"/>
<stop offset="0.409" stop-color="#FFBD00"/>
<stop offset="0.775" stop-color="#FFA500"/>
<stop offset="1" stop-color="#FF9C00"/>
</linearGradient>
<linearGradient id="paint2_linear" x1="31.5854" y1="24.7733" x2="6.29876" y2="50.0599" gradientUnits="userSpaceOnUse">
<stop stop-color="#FF3A44"/>
<stop offset="1" stop-color="#C31162"/>
</linearGradient>
<linearGradient id="paint3_linear" x1="12.1076" y1="0.195491" x2="23.3999" y2="11.4877" gradientUnits="userSpaceOnUse">
<stop stop-color="#32A071"/>
<stop offset="0.069" stop-color="#2DA771"/>
<stop offset="0.476" stop-color="#15CF74"/>
<stop offset="0.801" stop-color="#06E775"/>
<stop offset="1" stop-color="#00F076"/>
</linearGradient>
</defs>
</svg>
