<svg width="50" height="50" viewBox="0 0 50 50" fill="none" xmlns="http://www.w3.org/2000/svg">
<path d="M25 5C36.025 5 45 13.975 45 25C45 36.025 36.025 45 25 45C13.975 45 5 36.025 5 25C5 13.975 13.975 5 25 5ZM25 0C11.2 0 0 11.2 0 25C0 38.8 11.2 50 25 50C38.8 50 50 38.8 50 25C50 11.2 38.8 0 25 0ZM27.5 25V17.5C27.5 16.125 26.375 15 25 15C23.625 15 22.5 16.125 22.5 17.5V25H18.025C16.9 25 16.35 26.35 17.15 27.125L24.125 34.1C24.625 34.6 25.4 34.6 25.9 34.1L32.875 27.125C33.65 26.35 33.1 25 32 25H27.5V25Z" fill="white"/>
</svg>
