<svg width="16" height="20" viewBox="0 0 16 20" fill="none" xmlns="http://www.w3.org/2000/svg">
<path d="M7.3 0.126277L1.3 2.37628C0.52 2.67628 0 3.41628 0 4.25628V8.96628C0 14.0163 3.41 18.7263 8 19.8763C12.59 18.7263 16 14.0163 16 8.96628V4.25628C16 3.42628 15.48 2.67628 14.7 2.38628L8.7 0.136277C8.25 -0.0437232 7.75 -0.0437232 7.3 0.126277ZM6.23 12.6963L4.11 10.5763C3.72 10.1863 3.72 9.55628 4.11 9.16628C4.5 8.77628 5.13 8.77628 5.52 9.16628L6.93 10.5763L10.47 7.03628C10.86 6.64628 11.49 6.64628 11.88 7.03628C12.27 7.42628 12.27 8.05628 11.88 8.44628L7.64 12.6863C7.26 13.0863 6.62 13.0863 6.23 12.6963Z" fill="none"/>
</svg>
