<svg width="790" height="513" viewBox="0 0 790 513" fill="none" xmlns="http://www.w3.org/2000/svg">
<g clip-path="url(#clip0)">
<path opacity="0.1" d="M742.444 141.838C739.33 152.021 723.343 157.125 714.387 164.721C697.508 179.038 704.081 199.946 714.79 216.69C718.374 222.296 722.443 228.232 720.924 234.244C719.073 241.598 709.238 246.973 698.911 249.824C680.092 255.014 657.555 253.777 640.255 246.597C625.308 240.393 614.6 230.319 599.397 224.38C573.952 214.472 541.566 218.231 513.934 225.042C494.39 229.871 473.017 236.154 453.594 231.112C439.928 227.56 430.479 218.914 425.331 209.77C422.848 205.346 421.043 200.557 416.298 197.052C413.475 194.965 409.792 193.485 406.024 192.241C371.577 180.847 328.062 186.949 294.623 174.31C272.032 165.777 257.564 149.681 251.161 132.893C244.758 116.105 245.502 98.504 247.129 81.2136C248.285 68.915 250.359 55.8134 262.125 46.3291C274.572 36.2985 295.931 32.5836 315.243 34.4754C334.554 36.3672 352.051 43.1785 367.45 51.1798C386.717 61.185 404.541 73.6391 428.167 77.6904C444.257 80.4504 461.18 78.9384 477.776 78.4139C505.52 77.5421 533.272 79.4991 560.859 81.6115C574.301 82.6497 587.788 83.7385 601.113 85.3156C604.1 85.6676 607.087 86.0475 610.074 86.455C611.571 86.6612 613.067 86.8746 614.555 87.0952C615.72 87.2653 616.88 87.457 618.041 87.627C619.872 87.9139 621.697 88.2154 623.516 88.5313C628.74 89.4356 633.915 90.4593 639.037 91.624C656.843 95.6789 671.118 103.044 687.933 108.187C698.893 111.54 710.843 112.466 721.22 116.735C733.989 121.976 745.719 131.131 742.444 141.838Z" fill="#00BFA6"/>
<path d="M544.202 308.753C543.106 307.595 542.254 306.185 541.705 304.624C541.155 303.063 540.923 301.387 541.023 299.716C541.123 298.044 541.553 296.417 542.284 294.95C543.015 293.482 544.028 292.209 545.252 291.221L550.47 241L568 248.64L560.264 294.312C561.631 296.694 562.159 299.548 561.748 302.331C561.338 305.115 560.018 307.636 558.038 309.416C556.058 311.196 553.556 312.111 551.006 311.989C548.456 311.867 546.035 310.715 544.202 308.753V308.753Z" fill="#FFB8B8"/>
<path d="M720.563 510.693L698 442.602C698 442.602 722.818 467.42 722.818 487.784L718.364 440.693C718.364 440.693 731.091 457.875 729.818 483.966C728.545 510.057 720.563 510.693 720.563 510.693Z" fill="#E6E6E6"/>
<path d="M236.021 448.693L214 382.239C214 382.239 238.222 406.461 238.222 426.335L233.874 380.376C233.874 380.376 246.295 397.145 245.053 422.608C243.811 448.072 236.021 448.693 236.021 448.693Z" fill="#E6E6E6"/>
<path d="M579.726 479.359C579.764 523.074 493.061 509.627 386.917 509.719C280.773 509.81 195.381 523.405 195.344 479.691C195.306 435.976 281.977 426.393 388.121 426.302C494.266 426.21 579.689 435.644 579.726 479.359Z" fill="#A8A8A8"/>
<path d="M790 509.693H0V511.693H790V509.693Z" fill="#3F3D56"/>
<path d="M505.336 420.322H491.459L484.855 366.797H505.336V420.322Z" fill="#FFB8B8"/>
<path d="M480.006 416.357H508.311V433.208H464.697V431.667C464.697 427.606 466.31 423.712 469.181 420.841C472.052 417.97 475.946 416.357 480.006 416.357V416.357Z" fill="#2F2E41"/>
<path d="M607.336 499.322H593.459L586.855 445.797H607.336V499.322Z" fill="#FFB8B8"/>
<path d="M582.006 495.357H610.311V512.208H566.697V510.667C566.697 506.606 568.31 502.712 571.181 499.841C574.052 496.97 577.946 495.357 582.006 495.357V495.357Z" fill="#2F2E41"/>
<path d="M671.345 340.309C672.304 339.145 672.997 337.786 673.374 336.325C673.751 334.865 673.804 333.34 673.528 331.857C673.251 330.375 672.654 328.971 671.776 327.744C670.899 326.517 669.763 325.498 668.449 324.758L636.219 193.465L615.611 202.332L653.947 329.281C652.849 331.57 652.63 334.183 653.331 336.624C654.031 339.064 655.603 341.163 657.747 342.523C659.892 343.882 662.461 344.407 664.967 343.999C667.473 343.592 669.742 342.278 671.345 340.309V340.309Z" fill="#FFB8B8"/>
<path d="M564 326.693L585.768 490.067L612.862 484.489C612.862 484.489 608.877 365.508 622.424 351.164C635.971 336.821 605 311.693 605 311.693L564 326.693Z" fill="#2F2E41"/>
<path d="M573 281.693L563 296.693C563 296.693 486 264.694 486 315.693C486 366.692 481.594 401.303 480 403.693C478.406 406.084 498.438 412.287 508 410.693C508 410.693 519.797 328.474 519 323.693C519 323.693 594.533 360.726 608.877 357.539C623.221 354.352 626.609 343.068 629 336.693C631.39 330.318 628 279.693 628 279.693L580.19 265.103L573 281.693Z" fill="#2F2E41"/>
<path d="M630.216 156.289C630.216 156.289 600.572 159.709 599.432 159.709C598.292 159.709 597.722 152.298 597.722 152.298L571.499 188.212C571.499 188.212 558.58 292.403 562 290.693C565.421 288.983 628.506 298.805 629.076 294.244C629.646 289.684 628.506 266.881 630.216 265.741C631.926 264.601 659.859 193.913 659.859 193.913C659.859 193.913 657.009 179.091 647.318 173.961C637.627 168.83 630.216 156.289 630.216 156.289Z" fill="#CCCCCC"/>
<path d="M650.737 184.222L659.858 193.913C659.858 193.913 673.41 305.273 665.999 308.693C658.588 312.113 643.999 311.693 643.999 311.693L629.645 258.9L650.737 184.222Z" fill="#CCCCCC"/>
<path d="M601.729 149.236C616.22 149.236 627.968 137.489 627.968 122.998C627.968 108.506 616.22 96.7588 601.729 96.7588C587.238 96.7588 575.49 108.506 575.49 122.998C575.49 137.489 587.238 149.236 601.729 149.236Z" fill="#FFB8B8"/>
<path d="M361.722 466.494C396.51 466.494 424.711 438.293 424.711 403.505C424.711 368.717 396.51 340.515 361.722 340.515C326.934 340.515 298.732 368.717 298.732 403.505C298.732 438.293 326.934 466.494 361.722 466.494Z" fill="#00BFA6"/>
<path d="M319.657 336.04C310.927 336.04 302.384 333.51 295.062 328.756C287.741 324.002 281.953 317.228 278.402 309.253L178.45 84.1616C175.139 76.7054 173.388 68.6509 173.304 60.493C173.22 52.3352 174.806 44.2465 177.963 36.724C181.121 29.2015 185.783 22.4043 191.664 16.75C197.546 11.0958 204.521 6.70401 212.162 3.84467C219.802 0.985328 227.947 -0.28118 236.095 0.123006C244.244 0.527192 252.223 2.59353 259.543 6.195C266.864 9.79647 273.37 14.857 278.663 21.0655C283.955 27.274 287.922 34.4993 290.32 42.2973L362.697 277.709C364.769 284.448 365.232 291.578 364.049 298.528C362.865 305.477 360.068 312.053 355.883 317.725C351.697 323.398 346.239 328.01 339.948 331.19C333.657 334.371 326.707 336.032 319.657 336.04H319.657Z" fill="#00BFA6"/>
<path d="M584.374 89.4526C583.722 90.0137 582.942 90.405 582.103 90.5918C581.682 90.6669 581.248 90.5723 580.896 90.3287C580.544 90.085 580.303 89.7121 580.225 89.2914C579.74 90.6386 578.838 91.7959 577.649 92.5951C576.388 93.2524 574.437 92.7012 574.255 91.2907C574.071 92.3617 573.597 93.3618 572.885 94.1827C572.514 94.5753 572.003 94.8057 571.462 94.8238C570.922 94.8418 570.397 94.6461 570 94.2791C570.552 97.2974 570.211 100.401 570.385 103.465C570.558 106.528 571.375 109.776 573.69 111.791C577.067 114.729 582.143 114.003 586.584 113.447C587.256 113.306 587.953 113.344 588.605 113.557C590.268 114.266 590.192 116.58 590.215 118.387C590.35 121.558 591.605 124.577 593.757 126.91C595.909 129.244 598.818 130.739 601.968 131.13C603.73 131.402 605.529 130.964 606.968 129.91C608.229 128.842 608.873 127.1 610.318 126.297C612.668 124.992 615.519 126.896 617.237 128.963C618.955 131.031 620.649 133.574 623.311 133.953C626.831 134.454 629.513 130.866 630.828 127.563C632.644 122.934 633.513 117.988 633.386 113.017C633.259 108.046 632.137 103.151 630.088 98.6198C622.737 82.5984 597.625 80.0643 584.374 89.4526Z" fill="#2F2E41"/>
<path d="M547.85 268.774L545 265.354C545 265.354 555.832 208.717 568.374 189.335C580.915 169.953 592.885 151.911 594.596 153.051C596.306 154.191 590.511 168.994 594.501 175.835C594.501 175.835 587.549 195.195 584.698 196.335C581.848 197.475 571.223 229.44 571.223 229.44L568.373 255.093L547.85 268.774Z" fill="#CCCCCC"/>
<path d="M166.849 360.579C182.694 363.579 196.678 372.65 205.729 385.794L205.726 385.796C210.409 392.601 213.581 403.862 215.684 417.006C217.783 430.129 218.806 445.053 219.236 459.128C219.666 473.2 219.502 486.412 219.231 496.106C219.095 500.953 218.933 504.92 218.804 507.674C218.74 509.052 218.684 510.126 218.645 510.856C218.635 511.031 218.626 511.186 218.619 511.321C218.487 511.278 218.334 511.227 218.161 511.169C217.458 510.935 216.424 510.587 215.101 510.135C212.454 509.231 208.652 507.908 204.029 506.234C194.783 502.887 182.258 498.136 169.142 492.524C156.024 486.912 142.323 480.442 130.721 473.656C119.101 466.86 109.653 459.785 104.969 452.982C95.9188 439.83 92.5478 423.68 95.5954 408.083C98.643 392.486 107.86 378.718 121.223 369.808C134.586 360.898 150.998 357.577 166.849 360.579Z" fill="#0A9D8A" stroke="#0A9D8A"/>
<path d="M121 369C121 369 192.473 423.538 219 512" stroke="#535461" stroke-miterlimit="10"/>
<path d="M237.08 437.251C237.08 437.251 186.549 428.66 221.058 512C221.058 512 256.171 498.673 258.907 465.513C259.45 459.062 257.599 452.636 253.703 447.453C249.808 442.269 244.139 438.688 237.77 437.386L237.08 437.251Z" fill="#00BFA6"/>
<path d="M237.324 437C237.324 437 246.725 483.18 221 512" stroke="#535461" stroke-miterlimit="10"/>
<path d="M733.828 501C733.828 501 726.648 479.701 735.169 464.019C738.792 457.463 739.884 450.057 738.28 442.912C737.473 439.522 736.312 436.204 734.811 433" stroke="#535461" stroke-width="2" stroke-miterlimit="10"/>
<path d="M739.968 422.756C739.968 425.378 734.968 433 734.968 433C734.968 433 730 425.378 730 422.756C730 421.495 730.527 420.285 731.464 419.393C732.402 418.501 733.674 418 735 418C736.326 418 737.598 418.501 738.536 419.393C739.473 420.285 740 421.495 740 422.756H739.968Z" fill="#00BFA6"/>
<path d="M748.106 437.193C746.601 439.322 738 443 738 443C738 443 738.161 434.339 739.666 432.21C740.016 431.685 740.477 431.229 741.023 430.869C741.569 430.509 742.189 430.253 742.845 430.116C743.502 429.979 744.182 429.963 744.845 430.07C745.508 430.177 746.141 430.405 746.706 430.739C747.271 431.073 747.757 431.508 748.134 432.016C748.512 432.525 748.774 433.098 748.904 433.701C749.035 434.303 749.032 434.924 748.895 435.526C748.757 436.127 748.489 436.698 748.106 437.203V437.193Z" fill="#00BFA6"/>
<path d="M748.175 462.337C745.642 463.56 736 462.716 736 462.716C736 462.716 741.024 454.751 743.558 453.528C744.16 453.236 744.816 453.061 745.488 453.013C746.16 452.966 746.836 453.046 747.476 453.249C748.116 453.452 748.708 453.775 749.219 454.198C749.729 454.622 750.148 455.138 750.451 455.717C750.755 456.296 750.936 456.927 750.986 457.573C751.036 458.22 750.953 458.87 750.741 459.485C750.53 460.101 750.194 460.671 749.754 461.162C749.314 461.653 748.777 462.056 748.175 462.347V462.337Z" fill="#00BFA6"/>
<path d="M743.063 480.888C740.757 482.346 731 483 731 483C731 483 734.592 475.213 736.899 473.764C738.007 473.122 739.364 472.871 740.684 473.063C742.005 473.256 743.187 473.877 743.983 474.798C744.78 475.718 745.129 476.866 744.957 478.001C744.786 479.136 744.107 480.17 743.063 480.888Z" fill="#00BFA6"/>
<path d="M727.484 444.207C729.515 446.067 739 448 739 448C739 448 736.684 439.131 734.609 437.271C733.623 436.421 732.325 435.966 730.989 436.002C729.653 436.039 728.384 436.564 727.453 437.466C726.522 438.369 726 439.578 726 440.836C726 442.095 726.52 443.304 727.451 444.207H727.484Z" fill="#00BFA6"/>
<path d="M721.825 466.337C724.358 467.56 734 466.716 734 466.716C734 466.716 728.976 458.751 726.443 457.528C725.227 456.939 723.817 456.838 722.524 457.249C721.231 457.659 720.161 458.547 719.549 459.717C718.936 460.886 718.832 462.242 719.259 463.485C719.686 464.729 720.609 465.758 721.825 466.347V466.337Z" fill="#00BFA6"/>
<path d="M719.937 487.888C722.243 489.346 732 490 732 490C732 490 728.408 482.213 726.101 480.764C724.993 480.122 723.636 479.871 722.316 480.063C720.995 480.256 719.813 480.877 719.017 481.798C718.22 482.718 717.871 483.866 718.043 485.001C718.214 486.136 718.893 487.17 719.937 487.888V487.888Z" fill="#00BFA6"/>
<path d="M719 499.395C719 499.395 731.483 497.075 734.805 493.979C738.126 490.883 753.106 485.478 754.778 489.34C756.449 493.203 777.247 506.343 763.092 508.662C748.937 510.982 729.811 511.728 725.698 510.205C721.585 508.683 719 499.395 719 499.395Z" fill="#A8A8A8"/>
</g>
<defs>
<clipPath id="clip0">
<rect width="790" height="512.208" fill="white"/>
</clipPath>
</defs>
</svg>
