<svg width="598" height="270" viewBox="0 0 598 270" fill="none" xmlns="http://www.w3.org/2000/svg">
<g clip-path="url(#clip0)">
<path d="M540.642 108.74H522.568V171.266H540.642V108.74Z" fill="#F2F2F2"/>
<path d="M552.578 159.504L508.619 107.239L420.381 108.045L366.854 160.15L367.935 160.845H367.549V269.224H552.46V160.845L552.578 159.504Z" fill="#F2F2F2"/>
<path d="M508.665 107.35L453.748 171.696V269.224H552.46V159.455L508.665 107.35Z" fill="#E6E6E6"/>
<path d="M513.533 215.29H493.373V233.098H513.533V215.29Z" fill="#3F3D56"/>
<path d="M513.533 184.466H493.373V201.992H513.533V184.466Z" fill="#3F3D56"/>
<path d="M513.533 215.29H493.373V233.098H513.533V215.29Z" fill="white"/>
<path d="M513.533 184.466H493.373V201.992H513.533V184.466Z" fill="white"/>
<path d="M423.941 210.565H403.781V228.373H423.941V210.565Z" fill="white"/>
<path d="M423.941 179.741H403.781V197.267H423.941V179.741Z" fill="white"/>
<path d="M398.013 108.74H379.939V171.266H398.013V108.74Z" fill="#F2F2F2"/>
<path d="M409.949 159.504L365.99 107.239L277.752 108.045L224.225 160.15L225.306 160.845H224.92V269.224H409.831V160.845L409.949 159.504Z" fill="#F2F2F2"/>
<path d="M366.036 107.35L311.119 171.696V269.224H409.831V159.455L366.036 107.35Z" fill="#E6E6E6"/>
<path d="M370.904 215.29H350.744V233.098H370.904V215.29Z" fill="#3F3D56"/>
<path d="M370.904 184.466H350.744V201.992H370.904V184.466Z" fill="#3F3D56"/>
<path d="M370.904 215.29H350.744V233.098H370.904V215.29Z" fill="white"/>
<path d="M370.904 184.466H350.744V201.992H370.904V184.466Z" fill="white"/>
<path d="M281.312 210.565H261.152V228.373H281.312V210.565Z" fill="white"/>
<path d="M281.312 179.741H261.152V197.267H281.312V179.741Z" fill="white"/>
<path d="M251.97 54.7778H227.818V138.328H251.97V54.7778Z" fill="#F2F2F2"/>
<path d="M267.919 122.611L209.179 52.7725L91.271 53.8493L19.7461 123.475L21.191 124.403H20.675V269.224H267.761V124.403L267.919 122.611Z" fill="#F2F2F2"/>
<path d="M209.242 52.9209L135.859 138.903V269.224H267.762V122.546L209.242 52.9209Z" fill="#E6E6E6"/>
<path d="M215.745 197.155H188.807V220.951H215.745V197.155Z" fill="#3F3D56"/>
<path d="M215.745 155.967H188.807V179.385H215.745V155.967Z" fill="#3F3D56"/>
<path d="M215.745 197.155H188.807V220.951H215.745V197.155Z" fill="white"/>
<path d="M215.745 155.967H188.807V179.385H215.745V155.967Z" fill="white"/>
<path d="M96.0297 190.841H69.0918V214.637H96.0297V190.841Z" fill="white"/>
<path d="M96.0297 149.653H69.0918V173.071H96.0297V149.653Z" fill="white"/>
<path d="M577.678 268.689H0V269.887H577.678V268.689Z" fill="#3F3D56"/>
<path d="M91.0149 246.665C100.646 246.665 108.454 230.744 108.454 211.104C108.454 191.465 100.646 175.543 91.0149 175.543C81.3837 175.543 73.5762 191.465 73.5762 211.104C73.5762 230.744 81.3837 246.665 91.0149 246.665Z" fill="#3F3D56"/>
<path d="M92.6237 269.312C85.6394 227.432 92.5534 185.703 92.6241 185.287L93.9827 185.517C93.9123 185.931 87.038 227.44 93.983 269.086L92.6237 269.312Z" fill="#00BFA6"/>
<path d="M106.367 203.458L90.5977 211.887L91.2477 213.102L107.017 204.672L106.367 203.458Z" fill="#00BFA6"/>
<path d="M74.6054 207.68L73.9551 208.895L89.7225 217.329L90.3728 216.115L74.6054 207.68Z" fill="#00BFA6"/>
<path d="M49.1139 225.814C67.9512 225.814 83.2219 194.674 83.2219 156.261C83.2219 117.849 67.9512 86.7087 49.1139 86.7087C30.2765 86.7087 15.0059 117.849 15.0059 156.261C15.0059 194.674 30.2765 225.814 49.1139 225.814Z" fill="#00BFA6"/>
<path d="M52.9143 270C39.2719 188.196 52.7767 106.689 52.9146 105.876L54.2732 106.106C54.1356 106.917 40.6705 188.205 54.2735 269.774L52.9143 270Z" fill="#3F3D56"/>
<path d="M79.455 141.886L48.6113 158.374L49.2613 159.588L80.105 143.1L79.455 141.886Z" fill="#3F3D56"/>
<path d="M16.7089 150.145L16.0586 151.359L46.8977 167.856L47.548 166.641L16.7089 150.145Z" fill="#3F3D56"/>
<path d="M129.897 209.577C155.674 209.577 176.571 166.964 176.571 114.399C176.571 61.8345 155.674 19.2222 129.897 19.2222C104.119 19.2222 83.2227 61.8345 83.2227 114.399C83.2227 166.964 104.119 209.577 129.897 209.577Z" fill="#00BFA6"/>
<path d="M135.346 270C116.684 158.099 135.157 46.6059 135.346 45.4929L136.705 45.7229C136.516 46.8339 118.083 158.107 136.705 269.774L135.346 270Z" fill="#3F3D56"/>
<path d="M171.535 94.9508L129.328 117.513L129.978 118.728L172.185 96.1654L171.535 94.9508Z" fill="#3F3D56"/>
<path d="M85.4335 106.253L84.7832 107.468L126.984 130.041L127.635 128.827L85.4335 106.253Z" fill="#3F3D56"/>
<path d="M521.991 246.665C531.623 246.665 539.43 230.744 539.43 211.104C539.43 191.465 531.623 175.543 521.991 175.543C512.36 175.543 504.553 191.465 504.553 211.104C504.553 230.744 512.36 246.665 521.991 246.665Z" fill="#3F3D56"/>
<path d="M520.381 269.312C527.365 227.432 520.451 185.703 520.38 185.287L519.022 185.517C519.092 185.931 525.966 227.44 519.021 269.086L520.381 269.312Z" fill="#00BFA6"/>
<path d="M506.638 203.457L505.988 204.672L521.758 213.102L522.408 211.887L506.638 203.457Z" fill="#00BFA6"/>
<path d="M538.4 207.68L522.633 216.115L523.283 217.329L539.051 208.895L538.4 207.68Z" fill="#00BFA6"/>
<path d="M563.891 225.814C582.729 225.814 597.999 194.674 597.999 156.261C597.999 117.849 582.729 86.7087 563.891 86.7087C545.054 86.7087 529.783 117.849 529.783 156.261C529.783 194.674 545.054 225.814 563.891 225.814Z" fill="#00BFA6"/>
<path d="M560.094 270C573.736 188.196 560.231 106.689 560.093 105.876L558.735 106.106C558.872 106.917 572.338 188.205 558.734 269.774L560.094 270Z" fill="#3F3D56"/>
<path d="M533.552 141.886L532.902 143.1L563.746 159.588L564.396 158.374L533.552 141.886Z" fill="#3F3D56"/>
<path d="M596.296 150.145L565.457 166.642L566.107 167.856L596.946 151.359L596.296 150.145Z" fill="#3F3D56"/>
<path d="M483.11 209.577C508.887 209.577 529.784 166.964 529.784 114.399C529.784 61.8345 508.887 19.2222 483.11 19.2222C457.332 19.2222 436.436 61.8345 436.436 114.399C436.436 166.964 457.332 209.577 483.11 209.577Z" fill="#00BFA6"/>
<path d="M477.66 270C496.322 158.099 477.848 46.6059 477.66 45.4929L476.301 45.7229C476.49 46.8339 494.923 158.107 476.301 269.774L477.66 270Z" fill="#3F3D56"/>
<path d="M441.472 94.9507L440.822 96.1653L483.029 118.728L483.679 117.513L441.472 94.9507Z" fill="#3F3D56"/>
<path d="M527.572 106.253L485.371 128.827L486.021 130.041L528.222 107.468L527.572 106.253Z" fill="#3F3D56"/>
<path d="M353.339 60.7703L358.856 56.3606C354.57 55.888 352.81 58.224 352.089 60.0729C348.741 58.6834 345.096 60.5044 345.096 60.5044L356.134 64.5093C355.577 63.0228 354.608 61.7258 353.339 60.7703Z" fill="#3F3D56"/>
<path d="M218.502 21.8404L224.018 17.4307C219.733 16.9581 217.972 19.2941 217.251 21.143C213.903 19.7535 210.258 21.5745 210.258 21.5745L221.296 25.5793C220.739 24.0929 219.77 22.7959 218.502 21.8404Z" fill="#3F3D56"/>
<path d="M438.437 4.47151L443.954 0.0617562C439.668 -0.410795 437.907 1.92517 437.187 3.77411C433.838 2.3846 430.193 4.20561 430.193 4.20561L441.231 8.21044C440.675 6.72398 439.705 5.42697 438.437 4.47151Z" fill="#3F3D56"/>
<path d="M449.575 261.761C448.109 261.761 446.668 262.147 445.399 262.881C444.109 261.716 442.509 260.95 440.793 260.676C439.076 260.402 437.317 260.631 435.729 261.337C434.14 262.043 432.791 263.195 431.845 264.652C430.899 266.109 430.396 267.81 430.398 269.547H457.935C457.785 267.433 456.839 265.455 455.288 264.01C453.737 262.566 451.696 261.762 449.575 261.761Z" fill="#3F3D56"/>
<path d="M169.71 261.761C168.244 261.761 166.803 262.147 165.534 262.881C164.244 261.716 162.644 260.95 160.928 260.676C159.211 260.402 157.452 260.631 155.864 261.337C154.275 262.043 152.926 263.195 151.98 264.652C151.034 266.109 150.531 267.81 150.533 269.547H178.07C177.92 267.433 176.974 265.455 175.423 264.01C173.872 262.566 171.831 261.762 169.71 261.761Z" fill="#3F3D56"/>
<path d="M312.939 261.761C311.472 261.761 310.032 262.147 308.762 262.881C307.473 261.716 305.873 260.95 304.156 260.676C302.44 260.402 300.68 260.631 299.092 261.337C297.504 262.043 296.155 263.195 295.208 264.652C294.262 266.109 293.76 267.81 293.762 269.547H321.298C321.148 267.433 320.202 265.455 318.651 264.01C317.1 262.566 315.059 261.762 312.939 261.761Z" fill="#3F3D56"/>
<path d="M282.717 242.102H203.271V244.663H215.662V268.995H218.224V244.663H266.483V268.995H269.046V244.663H282.717V242.102Z" fill="#3F3D56"/>
<path d="M282.873 234.439H203.428V237.001H282.873V234.439Z" fill="#3F3D56"/>
<path d="M282.873 228.036H203.428V230.598H282.873V228.036Z" fill="#3F3D56"/>
<path d="M282.873 221.633H203.428V224.195H282.873V221.633Z" fill="#3F3D56"/>
<path d="M406.768 242.102H327.322V244.663H339.712V268.995H342.275V244.663H390.533V268.995H393.096V244.663H406.768V242.102Z" fill="#3F3D56"/>
<path d="M406.924 234.439H327.479V237.001H406.924V234.439Z" fill="#3F3D56"/>
<path d="M406.924 228.036H327.479V230.598H406.924V228.036Z" fill="#3F3D56"/>
<path d="M406.924 221.633H327.479V224.195H406.924V221.633Z" fill="#3F3D56"/>
</g>
<defs>
<clipPath id="clip0">
<rect width="598" height="270" fill="white"/>
</clipPath>
</defs>
</svg>
