<svg width="287" height="225" viewBox="0 0 287 225" fill="none" xmlns="http://www.w3.org/2000/svg">
<g clip-path="url(#clip0)">
<path opacity="0.1" d="M101.021 219.82C128.574 219.82 150.91 215.585 150.91 210.361C150.91 205.136 128.574 200.901 101.021 200.901C73.4687 200.901 51.1328 205.136 51.1328 210.361C51.1328 215.585 73.4687 219.82 101.021 219.82Z" fill="#00BFA6"/>
<path opacity="0.1" d="M166.865 31.7493C148.53 31.1141 131.067 25.1875 114.392 18.7051C97.7173 12.2227 81.2011 5.04275 63.3052 1.60873C51.7948 -0.600277 38.63 -0.915039 29.3577 5.25543C20.431 11.2104 17.547 21.4614 15.9974 30.9809C14.8302 38.1438 14.1446 45.6839 17.3402 52.3903C19.5612 57.0466 23.4991 60.9598 26.2244 65.4204C35.7064 80.9373 29.0035 100.073 18.7312 115.224C13.9151 122.33 8.32001 129.119 4.60031 136.676C0.88062 144.233 -0.838995 152.921 2.41609 160.651C5.64002 168.308 13.3259 174.047 21.652 178.088C38.562 186.297 58.4806 188.645 77.9177 189.978C120.931 192.922 164.17 191.648 207.297 190.37C223.258 189.899 239.287 189.42 254.987 186.95C263.707 185.577 272.707 183.399 279.039 178.142C287.073 171.47 289.065 160.172 283.679 151.807C274.648 137.77 249.684 134.285 243.363 119.225C239.89 110.933 243.457 101.7 248.508 94.0127C259.341 77.5174 277.498 63.0469 278.453 44.1952C279.11 31.2474 270.381 18.2798 256.885 12.1518C242.74 5.72899 223.122 6.53717 212.691 17.1682C201.94 28.1026 183.055 32.3136 166.865 31.7493Z" fill="#00BFA6"/>
<path d="M152.295 102.737L143.617 96.8816L147.994 90.3595L125.075 88.5305L116.84 94.9051L106.531 89.1203L97.9327 90.1553L97.8307 87.8868C97.7243 85.5218 97.4869 83.1646 97.1196 80.8259C97.1565 80.117 97.182 79.3032 97.1791 78.4184C97.1791 74.6895 96.6749 69.7469 94.4595 66.4518L94.9694 61.8636L90.8333 56.9721C91.4975 55.6477 92.2549 54.3722 93.0996 53.1552C93.2413 52.951 93.3829 52.7525 93.5359 52.5597C98.9044 52.1712 103.14 47.7532 103.14 42.3512C103.14 42.1017 103.14 41.8521 103.111 41.6054C103.111 41.5062 103.092 41.4041 103.08 41.3048C103.604 41.5884 104.134 41.872 104.664 42.1556C104.763 42.2973 104.876 42.4391 105.001 42.6064L105.026 42.6376L105.185 42.8333L105.236 42.8928C105.293 42.9609 105.352 43.0261 105.412 43.0942L105.451 43.1395C105.602 43.3068 105.76 43.477 105.93 43.6443C105.95 43.6608 105.969 43.6788 105.987 43.6982L106.199 43.8967L106.259 43.9506C106.44 44.1122 106.633 44.2681 106.825 44.4156L106.888 44.461L107.131 44.6283L107.211 44.6793C107.304 44.736 107.4 44.7956 107.494 44.8495L107.528 44.8693C107.638 44.9289 107.752 44.9856 107.865 45.0395L107.922 45.0621C108.018 45.1037 108.113 45.1434 108.205 45.1812L108.293 45.2124C108.392 45.2465 108.488 45.2777 108.59 45.306L108.653 45.323C108.777 45.3542 108.902 45.3797 109.029 45.3996H109.044C109.164 45.419 109.285 45.4313 109.406 45.4365H109.488C109.597 45.4421 109.706 45.4421 109.814 45.4365H109.885C110.021 45.4286 110.156 45.4125 110.29 45.3882C110.924 45.3048 111.533 45.0863 112.075 44.7474C112.213 44.655 112.335 44.541 112.438 44.4099C113.004 43.667 112.381 42.8531 112.381 42.8531C112.16 42.3257 110.726 41.9542 110.726 41.9542C110.726 41.9542 106.194 40.06 106.194 38.5514C106.194 37.0428 105.06 29.2163 93.3631 27.427C93.3631 27.427 85.7538 26.9988 83.6149 31.0765L83.5695 31.5529C82.9406 31.9471 82.4193 32.7382 81.7989 32.9707C81.5309 33.0284 81.2724 33.1238 81.0312 33.2543V33.2004C80.9596 33.2631 80.9009 33.3392 80.8584 33.4245C80.7251 33.6899 80.6452 33.9789 80.6232 34.2752C80.5594 34.637 80.4339 34.9852 80.2521 35.3045C80.2014 35.3952 80.1447 35.4824 80.0821 35.5654L80.034 35.642C80.3629 35.6676 80.6931 35.6141 80.9972 35.486C80.9493 35.8742 80.8541 36.2552 80.7139 36.6203C80.894 36.6261 81.072 36.58 81.2266 36.4875C81.3813 36.395 81.5062 36.26 81.5864 36.0985V36.0758L81.6233 36.0248C81.6945 35.8935 81.7533 35.7559 81.7989 35.6136L81.7678 35.6476C81.8244 35.4633 81.8754 35.2762 81.9377 35.0947C81.9663 34.9924 82.0133 34.8963 82.0765 34.8111C82.1522 34.7348 82.2446 34.6774 82.3465 34.6434C82.4483 34.6094 82.5567 34.5998 82.663 34.6154L82.5468 37.074H82.5978C82.5296 37.2528 82.4462 37.4255 82.3485 37.5901C81.9462 38.2423 81.2153 38.6875 80.9462 39.4021C80.8302 39.7468 80.7858 40.1115 80.8159 40.474C80.8159 40.6867 80.8414 40.9022 80.8584 41.1149V41.0978C80.898 41.665 80.9094 42.2038 80.6034 42.6603C80.3938 42.9722 80.0566 43.2076 79.9405 43.5621C79.9084 43.6608 79.894 43.7645 79.898 43.8683C79.9207 44.1791 79.9855 44.4853 80.0906 44.7786C80.0919 44.773 80.0919 44.7672 80.0906 44.7616C80.1613 44.9773 80.1778 45.2071 80.1388 45.4308C80.0113 45.9979 79.3229 46.4715 79.3569 47.0131C79.355 47.0843 79.3655 47.1554 79.3881 47.2229C79.5205 47.4875 79.7499 47.6907 80.0283 47.7901C80.4651 48.0387 80.9667 48.1494 81.4675 48.1077C81.6551 48.0737 81.8366 48.0116 82.0057 47.9234C81.8074 48.3799 81.6034 48.8308 81.3966 49.259C81.3655 49.327 81.3315 49.3951 81.2975 49.4631C81.2975 49.4631 79.5467 48.292 78.5523 50.6797C78.262 51.1758 78.0544 51.716 77.9376 52.279C77.8878 52.5042 77.8176 52.7244 77.7279 52.9369C77.2865 53.6849 76.6258 54.2789 75.8355 54.6383C73.8071 55.5684 65.6141 65.7967 65.4697 68.4453C65.3988 69.4791 65.2241 70.5033 64.9484 71.5022C64.3034 73.8545 64.1377 76.3126 64.4611 78.7303C64.5623 79.5117 64.7301 80.283 64.9626 81.0358C65.8323 83.6815 66.413 88.6184 66.413 88.6184L67.3536 97.1879C67.3187 98.3706 67.3698 99.5543 67.5066 100.73C66.5462 101.827 62.6905 106.401 64.1637 107.646C65.2968 108.627 67.2799 108.465 68.3933 108.264C67.4556 110.587 65.9796 114.625 65.7841 117.398C65.5008 121.501 66.2686 126.937 67.4839 129.024C68.6993 131.111 72.7504 136.465 72.7504 136.465C72.7504 136.465 72.5606 143.81 74.0082 146.478C75.4559 149.146 76.0395 154.682 76.0395 154.682C76.0395 154.682 77.3908 159.355 76.7137 161.073C76.0366 162.792 77.9687 164.221 75.9403 165.364C73.9119 166.506 71.3169 192.263 71.3169 192.263C71.3169 192.263 70.2716 209.144 71.3169 210.003C71.3729 210.044 71.4326 210.079 71.4954 210.108V215.779C71.4954 215.779 70.7701 216.97 73.7193 217.211C75.7392 217.373 81.4646 217.739 84.8614 217.952L87.4932 218.116C87.4932 218.116 93.7257 219.358 96.4794 218.116C99.233 216.874 104.114 216.902 103.389 213.621C103.293 213.175 103.164 212.736 103.004 212.309C102.208 210.272 100.856 210.04 98.3661 209.473C98.2217 209.442 98.0829 209.413 97.9554 209.391C95.332 208.934 94.4708 210.156 93.0005 208.565C91.7228 207.19 87.6547 205.65 86.2694 205.163C86.3033 205.06 86.3458 204.961 86.3798 204.856C85.9876 204.79 85.6227 204.612 85.3288 204.343L89.0825 204.581L91.3177 204.72C91.3177 204.72 96.6154 205.778 98.9667 204.72C101.318 203.662 105.454 203.691 104.837 200.903C104.755 200.524 104.646 200.15 104.511 199.786C103.834 198.056 102.684 197.866 100.567 197.387C100.446 197.362 100.332 197.336 100.219 197.316C97.9894 196.928 97.2585 197.966 96.0091 196.616C94.9383 195.465 91.5585 194.174 90.3432 193.735C90.3432 193.105 89.4933 192.209 88.9578 191.31C88.3289 190.261 89.4904 186.589 89.4904 186.589L90.1534 171.353C90.4058 171.24 90.6728 171.164 90.9466 171.126C90.9466 171.126 93.9439 168.262 93.2668 165.211C93.1288 164.288 93.0569 163.356 93.0515 162.423C94.0374 161.507 95.3944 160.154 95.7796 159.321C96.4086 157.962 95.7796 151.381 95.7796 151.381V126.214L100.794 126.722L105.344 127.19L106.729 127.331L111.279 127.791L121.735 128.848L131.158 127.062L135.234 126.291L143.617 124.703V104.172L152.295 102.737ZM83.2806 34.7062L82.697 34.6438C82.8896 34.6523 83.0936 34.6892 83.2806 34.7062Z" fill="url(#paint0_linear)"/>
<path d="M131.957 116.068C129.124 120.126 118.939 117.976 118.939 117.976L111.047 110.584L109.984 109.583L111.766 105.794C111.766 105.794 112.333 105.95 113.305 106.228C118.407 107.711 134.348 112.657 131.957 116.068Z" fill="#EFB7B9"/>
<path opacity="0.1" d="M113.299 106.228C112.951 107.442 111.996 109.259 111.047 110.584L109.984 109.583L111.766 105.794C111.766 105.794 112.339 105.95 113.299 106.228Z" fill="black"/>
<path d="M86.2297 63.5056C86.2297 63.5056 78.9546 66.7355 79.3115 74.6669C79.5684 79.7767 80.1246 84.867 80.9773 89.9116C80.9773 89.9116 79.49 101.847 85.6829 104.924C91.8758 108 97.6069 110.53 97.6069 110.53C97.6069 110.53 107.296 111.573 108.5 112.004C109.704 112.436 113.466 105.845 112.772 104.819C112.078 103.792 103.185 101.64 102.052 99.9273C100.919 98.2145 98.2981 97.1568 98.2981 97.1568C98.2981 97.1568 95.5926 95.5178 95.4085 94.0375C95.2244 92.5573 95.9383 91.4542 96.1196 90.8048C96.3009 90.1555 96.7598 83.8858 96.7598 83.8858C96.7598 83.8858 99.8138 61.5688 86.2297 63.5056Z" fill="#DCE6F2"/>
<path opacity="0.1" d="M91.0316 89.5854C91.0316 89.5854 81.051 91.2585 82.017 94.7549C82.017 94.7549 85.6404 90.9806 91.0316 89.5854Z" fill="black"/>
<path opacity="0.1" d="M91.1097 91.0005C91.1097 91.0005 85.6222 95.4837 86.6959 95.7134C87.7696 95.9431 91.1097 91.0005 91.1097 91.0005Z" fill="black"/>
<path opacity="0.1" d="M93.747 92.5627C93.747 92.5627 92.2767 95.5771 93.1804 95.3729C94.0841 95.1687 93.747 92.5627 93.747 92.5627Z" fill="black"/>
<path opacity="0.1" d="M113.669 106.548L113.062 106.375C113.235 105.808 113.283 105.349 113.142 105.136C112.448 104.11 103.561 101.96 102.43 100.245C101.3 98.5291 98.6765 97.4742 98.6765 97.4742C98.6765 97.4742 95.971 95.8352 95.7868 94.3549C95.6027 92.8747 96.3166 91.7716 96.4979 91.1222C96.6792 90.4729 97.1382 84.2003 97.1382 84.2003C97.1382 84.2003 100.184 61.8862 86.5995 63.823C86.5995 63.823 79.3244 67.0557 79.6785 74.9871C79.9355 80.0971 80.4927 85.1874 81.3472 90.2318C81.3472 90.2318 79.8598 102.167 86.0527 105.244C92.2456 108.321 97.9767 110.85 97.9767 110.85C97.9767 110.85 107.663 111.891 108.87 112.325C109.326 112.489 110.15 111.641 110.957 110.476L111.416 110.904L119.309 118.294C119.309 118.294 129.494 120.446 132.327 116.388C134.72 112.974 118.782 108.029 113.669 106.548Z" fill="black"/>
<path d="M82.0433 33.7364C81.766 33.7906 81.5004 33.8933 81.2586 34.0398C80.9753 34.2751 80.9753 34.6778 80.9045 35.0294C80.8213 35.5186 80.6275 35.9822 80.3379 36.3849C80.6603 36.4086 80.9836 36.3551 81.2813 36.2289C81.2328 36.6171 81.1377 36.9979 80.998 37.3632C81.1745 37.3677 81.3486 37.3211 81.4993 37.2291C81.6501 37.1371 81.7711 37.0034 81.8479 36.8443C81.9978 36.5247 82.1164 36.1914 82.202 35.849C82.2286 35.7465 82.2748 35.6502 82.338 35.5654C82.5986 35.2563 83.083 35.3952 83.4853 35.4349C83.8201 35.4632 84.1563 35.4013 84.4592 35.2557C84.7621 35.1101 85.0205 34.8861 85.2078 34.6069C85.6355 33.9575 85.661 32.2958 84.6412 32.12C83.576 31.9442 82.9131 33.4131 82.0433 33.7364Z" fill="#965D7B"/>
<g opacity="0.1">
<path opacity="0.1" d="M81.2308 34.3886C81.2563 34.2496 81.2733 34.105 81.3045 33.9661C81.0353 34.2014 81.0212 34.6013 80.9503 34.9557C80.9147 35.1602 80.8587 35.3607 80.7832 35.5541C81.0063 35.1982 81.1583 34.8024 81.2308 34.3886Z" fill="black"/>
<path opacity="0.1" d="M81.3214 36.731C81.4625 36.3661 81.5576 35.9851 81.6047 35.5967C81.3211 35.7162 81.0139 35.7695 80.7066 35.7526C80.6172 35.9521 80.5081 36.1421 80.3809 36.3198C80.7021 36.3447 81.0246 36.2922 81.3214 36.1667C81.2743 36.555 81.1792 36.9361 81.0381 37.3009C81.2146 37.3051 81.3885 37.2584 81.5392 37.1664C81.6898 37.0744 81.8109 36.9409 81.888 36.782C81.9586 36.6531 82.0156 36.5172 82.058 36.3765C81.9749 36.4928 81.8638 36.5862 81.7351 36.6482C81.6063 36.7101 81.4641 36.7386 81.3214 36.731Z" fill="black"/>
<path opacity="0.1" d="M83.8092 34.8027C83.407 34.763 82.9197 34.624 82.6591 34.9331C82.597 35.0186 82.5509 35.1147 82.5231 35.2167C82.4976 35.2904 82.4749 35.367 82.4551 35.4435C82.7242 35.2308 83.1605 35.3443 83.5259 35.3811C83.8606 35.4085 84.1965 35.3462 84.4992 35.2007C84.8019 35.0552 85.0605 34.8317 85.2484 34.5531C85.3342 34.4154 85.3983 34.2652 85.4382 34.1079C85.2442 34.3483 84.9942 34.5373 84.7102 34.6584C84.4262 34.7796 84.1168 34.8291 83.8092 34.8027Z" fill="black"/>
</g>
<path d="M90.5701 57.1565L94.8904 62.3572L94.3266 67.606L89.1055 59.425L90.5701 57.1565Z" fill="#DCE6F2"/>
<path opacity="0.1" d="M94.8876 62.3572L94.3578 67.2941L94.3238 67.606L89.6126 60.2219L89.1055 59.425L89.2528 59.1954L90.5673 57.1565L90.8591 57.5081L94.8876 62.3572Z" fill="black"/>
<path d="M97.1323 50.1153C95.6705 50.535 94.2739 51.9756 93.0585 53.7252C92.2371 54.9324 91.5024 56.1965 90.8601 57.508C90.4607 58.3077 90.1094 59.0761 89.8176 59.7454L89.6136 60.2218C89.1207 61.3872 88.8459 62.167 88.8459 62.167C88.8459 62.167 77.6557 53.745 79.4263 53.1779C80.0212 52.9879 80.8031 51.7118 81.5765 50.104L81.6728 49.8998C82.1629 48.8676 82.6445 47.7163 83.0723 46.6331C83.9477 44.4071 84.5965 42.4731 84.5965 42.4731C84.5965 42.4731 101.594 48.8393 97.1323 50.1153Z" fill="#EFB7B9"/>
<path d="M103.826 41.9995C103.826 41.9995 106.41 46.6784 109.88 46.0404C113.351 45.4024 111.923 43.528 111.923 43.528L103.826 41.9995Z" fill="#444053"/>
<path d="M98.8207 203.96C96.5317 205.007 91.3558 203.96 91.3558 203.96L89.1744 203.824C86.3415 203.643 81.5991 203.336 79.922 203.2C77.4743 202.999 78.0748 201.995 78.0748 201.995V195.929L89.9507 192.918C89.9507 192.918 94.6449 194.526 95.9311 195.929C97.1521 197.268 97.866 196.239 100.045 196.624C100.152 196.644 100.266 196.667 100.385 196.695C102.453 197.169 103.574 197.356 104.237 199.071C104.371 199.432 104.478 199.801 104.557 200.177C105.169 202.939 101.107 202.919 98.8207 203.96Z" fill="#A36468"/>
<path opacity="0.1" d="M104.237 199.071C103.812 199.338 103.364 199.567 102.9 199.758C101.342 200.469 99.8604 201.337 98.2853 202.009C96.7102 202.681 95.0132 203.161 93.3078 203.033C92.4154 202.968 91.5031 202.749 90.6504 203.005C90.1231 203.208 89.6264 203.484 89.1744 203.824C86.3415 203.643 81.5991 203.336 79.922 203.2C77.4743 202.999 78.0748 201.995 78.0748 201.995V201.286C78.1627 201.286 78.2618 201.261 78.3752 201.252C78.9614 201.243 79.5452 201.33 80.1033 201.51C81.3328 201.845 82.5566 202.174 83.7861 202.503C83.8873 202.121 84.065 201.763 84.3085 201.452C84.552 201.141 84.8562 200.883 85.2026 200.693C85.9044 200.321 86.692 200.14 87.486 200.169C89.3926 200.194 91.1972 201.099 93.1009 201.19C93.6332 201.239 94.169 201.149 94.6562 200.929C94.9169 200.798 95.1463 200.608 95.4013 200.464C95.8094 200.266 96.2405 200.12 96.6847 200.03C97.9331 199.719 99.1588 199.323 100.353 198.845C100.693 198.711 101.09 198.47 101.045 198.107C100.985 197.625 100.229 197.569 100.03 197.126C99.9954 197.046 99.9792 196.96 99.9832 196.873C99.9871 196.786 100.011 196.701 100.053 196.624C100.161 196.644 100.274 196.667 100.393 196.695C102.453 197.169 103.574 197.356 104.237 199.071Z" fill="black"/>
<path d="M96.401 217.231C93.7097 218.462 87.6188 217.231 87.6188 217.231L85.0549 217.081C81.7347 216.868 76.1424 216.514 74.1678 216.347C71.2867 216.108 71.9949 214.929 71.9949 214.929V207.78L85.97 204.235C85.97 204.235 91.4943 206.127 93.0071 207.78C94.4434 209.354 95.2735 208.143 97.8486 208.597C97.9761 208.619 98.1093 208.648 98.2481 208.679C100.682 209.246 102.002 209.459 102.781 211.478C102.939 211.902 103.065 212.337 103.158 212.779C103.86 216.029 99.0923 216.003 96.401 217.231Z" fill="#A36468"/>
<path opacity="0.1" d="M102.775 211.478C102.275 211.791 101.749 212.061 101.203 212.286C99.3699 213.122 97.6248 214.143 95.7721 214.934C93.9193 215.726 91.922 216.287 89.9135 216.14C88.8653 216.063 87.7916 215.799 86.7972 216.106C86.1741 216.348 85.5878 216.677 85.0549 217.081C81.7347 216.868 76.1424 216.514 74.1678 216.347C71.2867 216.108 71.9949 214.929 71.9949 214.929V214.095C72.1122 214.076 72.2304 214.063 72.349 214.055C73.0392 214.043 73.7266 214.145 74.3831 214.359L78.7147 215.527C78.8354 215.076 79.0466 214.655 79.3354 214.289C79.6243 213.923 79.9847 213.619 80.3947 213.397C81.2204 212.957 82.1481 212.744 83.0832 212.779C85.3269 212.81 87.4488 213.874 89.6897 213.982C90.3137 214.039 90.942 213.934 91.5141 213.678C91.8229 213.522 92.0807 213.298 92.3923 213.131C92.8714 212.896 93.379 212.725 93.9023 212.621C95.3633 212.251 96.7981 211.785 98.1971 211.225C98.5965 211.067 99.064 210.783 99.0102 210.358C98.9393 209.79 98.0498 209.722 97.8146 209.201C97.775 209.106 97.757 209.005 97.7619 208.903C97.7668 208.8 97.7945 208.701 97.843 208.611C97.9705 208.634 98.1036 208.662 98.2424 208.693C100.676 209.238 101.996 209.459 102.775 211.478Z" fill="black"/>
<path d="M90.3091 168.177L89.5527 185.993C89.5527 185.993 88.4195 189.631 89.0342 190.672C89.649 191.713 90.6858 192.751 90.3091 193.366C89.9323 193.981 85.3995 200.634 83.9349 198.082C82.4702 195.53 81.0254 184.47 81.0254 184.47L82.3767 170.811L90.3091 168.177Z" fill="#444053"/>
<path d="M93.5893 123.787L95.6914 126.6V151.066C95.6914 151.066 96.3061 157.588 95.6914 158.935C95.0766 160.282 91.9603 162.976 91.9603 162.976L89.3398 149.506L89.9064 135.257L93.5893 123.787Z" fill="#444053"/>
<path opacity="0.1" d="M90.3091 168.177L89.5527 185.993C89.5527 185.993 88.4195 189.631 89.0342 190.672C89.649 191.713 90.6858 192.751 90.3091 193.366C89.9323 193.981 85.3995 200.634 83.9349 198.082C82.4702 195.53 81.0254 184.47 81.0254 184.47L82.3767 170.811L90.3091 168.177Z" fill="black"/>
<path opacity="0.1" d="M93.5893 123.787L95.6914 126.6V151.066C95.6914 151.066 96.3061 157.588 95.6914 158.935C95.0766 160.282 91.9603 162.976 91.9603 162.976L89.3398 149.506L89.9064 135.257L93.5893 123.787Z" fill="black"/>
<path d="M95.6928 113.351V126.586L93.3329 136.888C93.3329 136.888 92.5765 161.748 93.2366 164.771C93.8967 167.794 90.9702 170.632 90.9702 170.632C90.9702 170.632 89.2704 170.822 89.2704 172.144C89.2704 173.465 86.4375 177.248 86.4375 177.248L86.5309 184.621C86.5309 184.621 87.7605 198.422 85.8709 201.068C83.9813 203.714 86.5309 204.094 86.5309 204.094C84.1711 211.843 72.8392 210.049 71.8165 209.198C70.7938 208.347 71.8165 191.616 71.8165 191.616C71.8165 191.616 74.3492 166.095 76.3322 164.961C78.3153 163.827 76.4286 162.409 77.0886 160.707C77.7487 159.006 76.4286 154.375 76.4286 154.375C76.4286 154.375 75.862 148.891 74.4455 146.245C73.029 143.6 73.216 136.32 73.216 136.32C73.216 136.32 69.2498 131.026 68.0713 128.948C66.8928 126.869 66.1335 121.481 66.4168 117.415C66.6095 114.667 68.0515 110.666 68.9665 108.363C69.4056 107.26 69.7229 106.546 69.7229 106.546L69.992 106.617L85.4658 110.672L95.6928 113.351Z" fill="#444053"/>
<path opacity="0.1" d="M97.1312 50.1154C95.6694 50.5351 94.2728 51.9756 93.0574 53.7253H92.7401C90.9587 53.7265 89.2085 53.257 87.6665 52.3643C86.1244 51.4715 84.8451 50.1871 83.9579 48.6409C83.5871 48.0002 83.2888 47.3201 83.0684 46.6133C83.9437 44.3873 84.5925 42.4534 84.5925 42.4534C84.5925 42.4534 101.593 48.8394 97.1312 50.1154Z" fill="black"/>
<path d="M102.869 43.0261C102.872 44.5777 102.518 46.1091 101.836 47.5025C101.154 48.8959 100.162 50.1139 98.9356 51.0629C97.7092 52.0119 96.2816 52.6664 94.7627 52.9761C93.2438 53.2858 91.6742 53.2424 90.1747 52.8492C88.6752 52.456 87.2858 51.7236 86.1137 50.7083C84.9416 49.6929 84.0179 48.4219 83.4139 46.9929C82.8098 45.564 82.5415 44.0153 82.6297 42.4663C82.7178 40.9172 83.1599 39.409 83.9221 38.058C84.2291 37.509 84.5877 36.9906 84.993 36.5097C85.661 35.713 86.4462 35.0227 87.3217 34.4623C88.8003 33.5218 90.4975 32.9812 92.2473 32.8935C93.9971 32.8059 95.7396 33.174 97.3048 33.962C98.8699 34.7501 100.204 35.931 101.177 37.3895C102.15 38.848 102.728 40.5341 102.855 42.2832C102.861 42.5327 102.869 42.7794 102.869 43.0261Z" fill="#EFB7B9"/>
<path opacity="0.1" d="M94.3589 67.294L94.3249 67.606L89.6137 60.2332C89.1207 61.3986 88.8459 62.1785 88.8459 62.1785C88.8459 62.1785 77.6557 53.7451 79.4263 53.178C80.0212 52.988 80.8031 51.7119 81.5765 50.1041L81.6728 49.8999C82.4944 52.3499 87.268 57.2472 89.2539 59.2095C89.4833 59.4363 89.6732 59.6235 89.8205 59.7596L90.1236 60.0432L90.2822 60.202C91.0047 60.9478 94.0529 64.2372 94.3589 67.294Z" fill="black"/>
<path d="M97.8794 92.3107L97.3638 108.919L97.2732 111.877C97.2732 111.877 91.1653 111.31 85.4653 110.686C80.8759 110.184 76.55 109.642 75.8842 109.325C75.0343 108.925 73.2127 108.616 71.7764 108.42C70.6659 108.27 69.7933 108.191 69.7933 108.191C69.7933 108.191 69.4675 108.287 68.9661 108.378C67.8726 108.576 65.9518 108.738 64.8328 107.765C63.4021 106.52 67.1615 101.997 68.0992 100.911L68.306 100.676L67.9519 97.4007L67.0312 88.9078C67.0312 88.9078 66.4646 84.0163 65.6147 81.3932C65.3875 80.6475 65.2235 79.8839 65.1246 79.1105C64.8088 76.7148 64.9706 74.2803 65.6005 71.9475C65.8697 70.9563 66.0405 69.941 66.1104 68.9162C66.2521 66.2932 74.2552 56.1556 76.2383 55.234C77.1304 54.8176 77.8482 54.101 78.2667 53.2093C78.4049 52.9289 78.5086 52.6327 78.5755 52.3274C79.4254 48.641 81.5756 50.1042 81.5756 50.1042C82.0941 52.9881 90.1199 60.6218 90.1199 60.6218L90.2785 60.7806C91.0746 61.5973 94.6215 65.4311 94.3694 68.7035C94.319 69.9215 94.5007 71.1379 94.9048 72.2878C96.5373 77.4331 97.4758 82.7737 97.6953 88.1677L97.8794 92.3107Z" fill="#DCE6F2"/>
<path opacity="0.1" d="M86.5075 72.5884C86.5075 72.5884 84.5244 77.4091 83.0371 78.1889C81.5497 78.9687 87.2157 79.8336 86.5075 72.5884Z" fill="black"/>
<path opacity="0.1" d="M87.9957 81.5916C87.9957 81.5916 83.4629 82.1587 83.4629 83.0094C83.4629 83.8601 87.9957 81.5916 87.9957 81.5916Z" fill="black"/>
<path opacity="0.1" d="M92.7409 87.1211C92.7409 87.1211 86.1543 101.158 84.3128 101.583C82.4714 102.008 92.7409 87.1211 92.7409 87.1211Z" fill="black"/>
<path opacity="0.1" d="M89.9958 61.3333L84.548 63.7039L77.9727 53.762C78.1108 53.4816 78.2145 53.1855 78.2814 52.8801C79.1313 49.1937 81.2816 50.6569 81.2816 50.6569C81.8 53.5408 89.8258 61.1745 89.8258 61.1745L89.9958 61.3333Z" fill="black"/>
<path d="M90.279 60.7662L84.8312 63.1368L78.2559 53.1949C78.394 52.9145 78.4977 52.6183 78.5647 52.313C79.4145 48.6266 81.5648 50.0898 81.5648 50.0898C82.0832 52.9737 90.109 60.6074 90.109 60.6074L90.279 60.7662Z" fill="#DCE6F2"/>
<path opacity="0.1" d="M97.2729 111.877C97.2729 111.877 91.165 111.31 85.465 110.686L95.692 113.366V116.485C95.2444 116.89 94.8563 117.1 94.6042 116.992C93.4257 116.496 83.8077 114.936 83.8077 114.936C83.8077 114.936 78.2211 112.101 72.1925 108.698C72.0462 108.617 71.9043 108.528 71.7676 108.431C71.0646 107.954 70.4589 107.346 69.9828 106.642C68.8694 105.029 68.3255 102.956 68.0904 100.922C67.9582 99.7573 67.909 98.5841 67.9431 97.4119C67.9723 96.0827 68.0934 94.7572 68.3057 93.4447C67.7227 88.3616 67.4389 83.2485 67.4558 78.132C67.5266 70.1921 74.9632 67.3564 74.9632 67.3564C88.6323 66.1512 84.3942 88.2696 84.3942 88.2696C84.3942 88.2696 83.6037 94.5081 83.3884 95.1462C83.1731 95.7842 82.3997 96.8476 82.5046 98.3363C82.6094 99.8251 85.2214 101.606 85.2214 101.606C85.2214 101.606 87.7711 102.803 88.8221 104.575C89.587 105.882 94.556 107.654 97.3635 108.919L97.2729 111.877Z" fill="black"/>
<path opacity="0.1" d="M101.851 36.731C101.856 37.1981 101.759 37.6606 101.567 38.0865C101.422 38.4339 101.254 38.7712 101.063 39.096C100.765 39.6934 100.342 40.2195 99.8221 40.6386C99.1677 41.1065 98.3405 41.2369 97.5558 41.4269C96.771 41.6169 95.9551 41.9203 95.5075 42.5895C95.2649 43.0197 95.1027 43.4906 95.0288 43.979C94.9537 44.467 94.759 44.9288 94.4622 45.3232C94.3076 45.5157 94.0935 45.6513 93.8535 45.7088C93.6135 45.7663 93.3612 45.7424 93.1363 45.6407C92.8994 45.4809 92.7197 45.2494 92.6236 44.98C92.3006 44.2513 92.2184 43.4431 92.0881 42.6576C91.9578 41.8721 91.7737 41.0639 91.2921 40.4316C90.8105 39.7992 89.9577 39.3824 89.2013 39.6291C88.9482 39.7266 88.7173 39.8744 88.5226 40.0634C88.3278 40.2525 88.1733 40.479 88.0681 40.7293C87.8588 41.2305 87.715 41.7566 87.6404 42.2946C87.2891 44.2191 86.8745 46.1323 86.3967 48.0341C86.3821 48.112 86.3502 48.1857 86.3032 48.2496C86.2279 48.3247 86.1262 48.3675 86.0199 48.3687C85.3853 48.4538 84.7762 48.0086 84.136 48.0568C84.07 48.0612 84.0046 48.0716 83.9405 48.088C82.9053 46.2872 82.4483 44.2114 82.6312 42.1419C82.8141 40.0724 83.6282 38.1092 84.9632 36.5183L85.0142 36.5041C85.4401 36.3528 85.8271 36.1087 86.1474 35.7895C86.5563 35.3799 86.9351 34.9411 87.2806 34.4766L87.5072 34.193C88.1584 33.4078 88.9001 32.7025 89.7169 32.0918C89.9399 31.909 90.1957 31.7704 90.4705 31.6835C90.7057 31.6376 90.9468 31.6299 91.1844 31.6608C92.1628 31.7783 93.1491 31.8153 94.1335 31.7714C94.8195 31.6634 95.5108 31.5934 96.2044 31.5615C97.9977 31.6126 99.5275 32.8801 100.661 34.2696C101.27 34.9814 101.814 35.8009 101.851 36.731Z" fill="black"/>
<path d="M82.5988 38.3274C82.205 38.9739 81.4939 39.4135 81.2276 40.1224C80.8366 41.1518 81.4967 42.4335 80.8905 43.3523C80.6893 43.6613 80.3579 43.891 80.2446 44.2455C80.0519 44.8438 80.5788 45.4819 80.4429 46.0972C80.3069 46.7126 79.4967 47.2315 79.712 47.8327C79.8392 48.0948 80.0624 48.2979 80.3352 48.3998C80.7645 48.6463 81.2586 48.7561 81.7517 48.7146C82.5251 48.5869 83.1002 47.827 83.8849 47.7703C84.5223 47.7249 85.1314 48.1673 85.766 48.085C85.8724 48.0813 85.9735 48.0378 86.0493 47.9631C86.0975 47.8999 86.1295 47.8259 86.1428 47.7476C86.6187 45.8477 87.0342 43.9345 87.3893 42.0081C87.4617 41.47 87.6045 40.9437 87.8143 40.4428C87.9202 40.193 88.0751 39.967 88.2697 39.778C88.4643 39.589 88.6948 39.441 88.9474 39.3426C89.7039 39.0987 90.5537 39.5127 91.0382 40.1451C91.5226 40.7774 91.7068 41.5856 91.8371 42.3711C91.9674 43.1566 92.0496 43.9648 92.3697 44.6935C92.467 44.9638 92.6475 45.1962 92.8853 45.3571C93.3102 45.6038 93.8825 45.4081 94.2083 45.0395C94.5067 44.645 94.7016 44.1819 94.7749 43.6925C94.8488 43.205 95.011 42.7351 95.2537 42.3059C95.7013 41.6367 96.52 41.3332 97.3019 41.1432C98.0838 40.9533 98.9082 40.82 99.5683 40.3521C100.087 39.9335 100.51 39.4084 100.809 38.8123C101.228 38.0807 101.619 37.2867 101.585 36.4445C101.549 35.5257 101.005 34.7062 100.424 33.9916C99.2906 32.6021 97.758 31.3346 95.9647 31.2864C95.2709 31.3154 94.5794 31.3855 93.8938 31.4962C92.9093 31.5405 91.9229 31.5026 90.9447 31.3828C90.7068 31.3543 90.466 31.3629 90.2308 31.4083C89.9556 31.4924 89.7003 31.6313 89.4801 31.8167C88.6624 32.4263 87.9198 33.1307 87.2675 33.9151C86.8469 34.4732 86.3908 35.0037 85.902 35.5031C85.5816 35.8228 85.1947 36.0677 84.7688 36.2205C84.4855 36.2999 84.2022 36.2432 83.9331 36.3311C83.0974 36.5948 82.9869 37.6865 82.5988 38.3274Z" fill="#965D7B"/>
<path opacity="0.1" d="M109.88 46.0375C107.614 46.4544 105.736 44.6197 104.696 43.2812C104.377 42.8748 104.086 42.4465 103.826 41.9995L111.606 43.4684L111.92 43.5279C111.92 43.5279 113.351 45.4023 109.88 46.0375Z" fill="black"/>
<g opacity="0.1">
<path opacity="0.1" d="M80.4426 45.2862C80.4743 44.9153 80.418 44.5422 80.2783 44.1973C80.2783 44.2256 80.2528 44.254 80.2443 44.2823C80.1225 44.6623 80.2868 45.0565 80.3916 45.4506C80.4141 45.3977 80.4312 45.3426 80.4426 45.2862Z" fill="black"/>
<path opacity="0.1" d="M81.117 40.6443C81.0878 41.0364 81.0954 41.4304 81.1396 41.8211C81.1686 41.429 81.1611 41.035 81.117 40.6443Z" fill="black"/>
<path opacity="0.1" d="M100.792 37.9928C100.494 38.5903 100.071 39.1164 99.5514 39.5355C98.897 40.0033 98.0726 40.1338 97.285 40.3238C96.4974 40.5138 95.6844 40.8172 95.2368 41.4864C94.9946 41.9168 94.8324 42.3876 94.758 42.8759C94.6842 43.3651 94.4894 43.8281 94.1914 44.2229C93.8656 44.5915 93.2933 44.79 92.8684 44.5405C92.6306 44.3796 92.4501 44.1472 92.3528 43.8769C92.0327 43.1481 91.9477 42.3428 91.8202 41.5545C91.6927 40.7661 91.5029 39.9608 91.0213 39.3285C90.5397 38.6961 89.687 38.2792 88.9306 38.526C88.6776 38.6239 88.447 38.7718 88.2523 38.9608C88.0576 39.1499 87.9029 39.3761 87.7974 39.6262C87.5877 40.127 87.4448 40.6533 87.3724 41.1915C87.0193 43.1179 86.6038 45.031 86.1259 46.9309C86.1127 47.0093 86.0806 47.0833 86.0324 47.1465C85.9566 47.2212 85.8555 47.2647 85.7491 47.2684C85.1146 47.3506 84.5055 46.9083 83.868 46.9536C83.0833 47.0103 82.5082 47.7703 81.7348 47.8951C81.2415 47.9394 80.7466 47.8294 80.3183 47.5803C80.1214 47.4955 79.9447 47.3699 79.7999 47.2117C79.7336 47.3067 79.6897 47.4155 79.6716 47.53C79.6534 47.6444 79.6615 47.7615 79.6951 47.8724C79.8199 48.1364 80.0439 48.3403 80.3183 48.4395C80.7466 48.6886 81.2415 48.7986 81.7348 48.7543C82.5082 48.6295 83.0833 47.8696 83.868 47.8128C84.5055 47.7675 85.1146 48.2098 85.7491 48.1276C85.8555 48.1239 85.9566 48.0804 86.0324 48.0057C86.0806 47.9425 86.1127 47.8685 86.1259 47.7902C86.6019 45.8997 87.0174 43.9866 87.3724 42.0507C87.4448 41.5125 87.5877 40.9862 87.7974 40.4854C87.9029 40.2353 88.0576 40.0091 88.2523 39.8201C88.447 39.631 88.6776 39.4832 88.9306 39.3852C89.687 39.1385 90.5369 39.5553 91.0213 40.1877C91.5057 40.82 91.6899 41.6282 91.8202 42.4137C91.9505 43.1992 92.0327 44.0073 92.3528 44.7361C92.4501 45.0064 92.6306 45.2388 92.8684 45.3997C93.2933 45.6464 93.8656 45.4507 94.1914 45.0821C94.4894 44.6874 94.6842 44.2243 94.758 43.7351C94.8324 43.2468 94.9946 42.776 95.2368 42.3456C95.6844 41.6764 96.5031 41.3758 97.285 41.183C98.0669 40.9902 98.8913 40.8626 99.5514 40.3947C100.071 39.9756 100.494 39.4495 100.792 38.8521C101.212 38.1233 101.602 37.3293 101.568 36.4871C101.563 36.3788 101.552 36.2709 101.534 36.1638C101.398 36.8129 101.146 37.4322 100.792 37.9928Z" fill="black"/>
</g>
<path opacity="0.1" d="M101.579 38.0779C102.305 39.3709 102.736 40.8092 102.839 42.2889C100.315 40.8711 97.941 39.3143 96.7426 38.7727C94.6547 37.8284 86.8471 37.9702 83.9121 38.0581C84.2191 37.5091 84.5777 36.9907 84.983 36.5098C85.6536 35.7125 86.4417 35.0221 87.3202 34.4624C88.4835 33.7234 89.7852 33.2296 91.1457 33.0113C92.5061 32.7929 93.8968 32.8545 95.2327 33.1924C96.5685 33.5303 97.8215 34.1373 98.9151 34.9763C100.009 35.8153 100.92 36.8688 101.593 38.0723L101.579 38.0779Z" fill="black"/>
<path opacity="0.1" d="M110.588 44.8352C109.226 45.2549 107.002 44.4439 104.696 43.2812C104.377 42.8748 104.086 42.4465 103.826 41.9995L111.606 43.4684C112.121 43.82 112.251 44.3219 110.588 44.8352Z" fill="black"/>
<path d="M93.3432 28.2465C93.3432 28.2465 85.9066 27.8212 83.8159 31.862L83.4787 35.4435L82.9121 35.3811L82.7988 37.817C82.7988 37.817 94.1647 37.3207 96.7512 38.489C99.3377 39.6573 107.375 45.5442 110.596 44.5517C113.817 43.5593 110.313 42.6377 110.313 42.6377C110.313 42.6377 105.879 40.7576 105.879 39.283C105.879 37.8085 104.78 30.0188 93.3432 28.2465Z" fill="#444053"/>
<path opacity="0.1" d="M79 161.014C79 161.014 83.7452 165.622 85.7991 165.267C85.7991 165.267 79.9915 164.771 79 161.014Z" fill="black"/>
<path opacity="0.1" d="M78.0098 163.149C78.0098 163.149 78.4347 165.52 79.5679 165.287C80.7011 165.055 78.0098 163.149 78.0098 163.149Z" fill="black"/>
<path opacity="0.1" d="M85.4467 202.769C85.4467 202.769 78.7098 208.015 79.8459 208.157C80.9819 208.299 85.4467 202.769 85.4467 202.769Z" fill="black"/>
<path d="M94.457 98.651L116.271 95.0979V115.77L95.5449 114.684L94.457 98.651Z" fill="#00BFA6"/>
<path opacity="0.05" d="M94.457 98.651L116.271 95.0979V115.77L95.5449 114.684L94.457 98.651Z" fill="black"/>
<path d="M116.271 95.0979L142.431 97.0574L140.984 115.047L116.271 115.77V95.0979Z" fill="#00BFA6"/>
<path opacity="0.1" d="M116.271 95.0979L142.431 97.0574L140.984 115.047L116.271 115.77V95.0979Z" fill="black"/>
<path d="M124.314 88.7886L116.271 95.098L142.431 97.0575L146.706 90.6006L124.314 88.7886Z" fill="#00BFA6"/>
<path d="M86.5586 91.7603L106.197 89.3669L116.271 95.0979L94.4569 98.651L86.5586 91.7603Z" fill="#00BFA6"/>
<path d="M121.053 100.466V128.729L110.834 127.68L106.39 127.226L105.035 127.085L100.593 126.628L94.457 125.999V98.6511L116.268 100.137L121.053 100.466Z" fill="#00BFA6"/>
<path d="M142.432 97.0574V124.62L134.242 126.194L130.259 126.96L121.055 128.729V100.466L142.432 97.0574Z" fill="#00BFA6"/>
<path opacity="0.05" d="M142.432 97.0574V124.62L134.242 126.194L130.259 126.96L121.055 128.729V100.466L142.432 97.0574Z" fill="black"/>
<path d="M86.5586 104.6L94.4569 98.6511L121.053 100.466L117.138 107.067L86.5586 104.6Z" fill="#00BFA6"/>
<path opacity="0.1" d="M86.5586 104.6L94.4569 98.6511L121.053 100.466L117.138 107.067L86.5586 104.6Z" fill="white"/>
<path d="M142.432 97.0574L121.055 100.466L128.012 106.704L150.911 102.859L142.432 97.0574Z" fill="#00BFA6"/>
<path opacity="0.1" d="M142.432 97.0574L121.055 100.466L128.012 106.704L150.911 102.859L142.432 97.0574Z" fill="white"/>
<path opacity="0.1" d="M134.241 126.194L130.258 126.96V121.07L133.989 120.129L134.241 126.194Z" fill="white"/>
<path opacity="0.1" d="M110.834 123.784V127.68L106.389 127.226V123.784H110.834Z" fill="white"/>
<path opacity="0.1" d="M105.036 125.012V127.085L100.594 126.628V125.012H105.036Z" fill="white"/>
<path opacity="0.1" d="M118.379 121.717C115.334 125.616 105.277 122.922 105.277 122.922L97.8033 115.118L96.7891 114.06L98.7721 110.374C98.7721 110.374 99.3387 110.561 100.285 110.89C105.294 112.643 120.943 118.436 118.379 121.717Z" fill="black"/>
<path d="M118.096 121.149C115.05 125.048 104.993 122.355 104.993 122.355L97.5201 114.551L96.5059 113.493L98.4889 109.807C98.4889 109.807 99.0555 109.994 100.002 110.323C105.01 112.075 120.66 117.869 118.096 121.149Z" fill="#EFB7B9"/>
<path opacity="0.1" d="M99.99 110.323C99.5764 111.514 98.5254 113.278 97.5083 114.551L96.4941 113.493L98.4772 109.807C98.4772 109.807 99.0467 109.994 99.99 110.323Z" fill="black"/>
<path d="M75.2464 66.2222C75.2464 66.2222 67.8098 69.0579 67.739 76.9978C67.7221 82.1143 68.0059 87.2274 68.5889 92.3106C68.5889 92.3106 66.4642 104.15 72.4842 107.552C78.5043 110.955 84.0994 113.791 84.0994 113.791C84.0994 113.791 93.7174 115.351 94.8987 115.847C96.0801 116.343 100.185 109.963 99.5476 108.899C98.9102 107.836 90.1535 105.213 89.1138 103.441C88.0741 101.668 85.5131 100.475 85.5131 100.475C85.5131 100.475 82.9011 98.6909 82.7963 97.2021C82.6914 95.7134 83.462 94.65 83.6801 94.012C83.8983 93.374 84.6887 87.1354 84.6887 87.1354C84.6887 87.1354 88.9155 65.0028 75.2464 66.2222Z" fill="#DCE6F2"/>
<path opacity="0.1" d="M78.6472 92.509C78.6472 92.509 68.5901 93.6433 69.3692 97.1879C69.3692 97.1879 73.1909 93.6121 78.6472 92.509Z" fill="black"/>
<path opacity="0.1" d="M78.6462 93.9268C78.6462 93.9268 72.9377 98.1094 73.9859 98.393C75.0341 98.6766 78.6462 93.9268 78.6462 93.9268Z" fill="black"/>
<path opacity="0.1" d="M81.1953 95.6282C81.1953 95.6282 79.5663 98.5603 80.487 98.4071C81.4077 98.254 81.1953 95.6282 81.1953 95.6282Z" fill="black"/>
<path d="M185.909 32.0293C185.909 32.0293 175.143 31.38 176.401 38.9399C176.401 38.9399 176.149 40.2755 177.359 40.8824C177.359 40.8824 177.378 40.3152 178.463 40.5109C178.85 40.576 179.243 40.595 179.633 40.5676C180.163 40.5322 180.667 40.3241 181.067 39.975C181.067 39.975 184.095 38.7244 185.274 33.7676C185.274 33.7676 186.146 32.6844 186.124 32.4065L184.305 33.1863C184.305 33.1863 184.925 34.4992 184.435 35.591C184.435 35.591 184.379 33.2345 184.027 33.2884C183.957 33.2884 183.084 33.7449 183.084 33.7449C183.084 33.7449 184.152 36.0305 183.345 37.6951C183.345 37.6951 183.651 34.8764 182.75 33.9094L181.469 34.658C181.469 34.658 182.719 37.0202 181.872 38.9484C181.872 38.9484 182.09 35.9908 181.2 34.8395L180.039 35.7441C180.039 35.7441 181.214 38.075 180.498 39.6744C180.498 39.6744 180.404 36.2318 179.786 35.971C179.786 35.971 178.772 36.867 178.619 37.2357C178.619 37.2357 179.421 38.9371 178.922 39.819C178.922 39.819 178.616 37.5249 178.356 37.5136C178.356 37.5136 177.344 39.0335 177.24 40.0657C177.289 39.1034 177.588 38.1707 178.109 37.3604C177.526 37.4708 176.989 37.7498 176.563 38.1629C176.563 38.1629 176.718 37.0882 178.359 36.9946C178.359 36.9946 179.209 35.8405 179.418 35.7696C179.418 35.7696 177.786 35.6335 176.798 36.073C176.798 36.073 177.667 35.0607 179.718 35.5059L180.852 34.5701C180.852 34.5701 178.704 34.2866 177.792 34.6013C177.792 34.6013 178.84 33.7052 181.16 34.3574L182.407 33.6117C182.407 33.6117 180.577 33.2147 179.486 33.3593C179.486 33.3593 180.636 32.7383 182.772 33.4103L183.665 33.0105C183.665 33.0105 182.322 32.7468 181.931 32.7042C181.54 32.6617 181.517 32.5539 181.517 32.5539C182.367 32.4124 183.239 32.5106 184.036 32.8375C184.036 32.8375 185.948 32.1484 185.909 32.0293Z" fill="#00BFA6"/>
<path opacity="0.1" d="M218.617 69.8406C218.617 69.8406 207.852 69.1912 209.11 76.7512C209.11 76.7512 208.858 78.0868 210.068 78.6937C210.068 78.6937 210.087 78.1265 211.175 78.3222C211.562 78.3873 211.954 78.4063 212.345 78.3789C212.869 78.3409 213.366 78.1339 213.762 77.7891C213.762 77.7891 216.793 76.5357 217.972 71.5789C217.972 71.5789 218.841 70.4985 218.807 70.2206L216.989 70.9976C216.989 70.9976 217.609 72.3105 217.122 73.4022C217.122 73.4022 217.062 71.0458 216.714 71.0997C216.643 71.0997 215.768 71.5562 215.768 71.5562C215.768 71.5562 216.838 73.8446 216.031 75.5063C216.031 75.5063 216.337 72.6877 215.433 71.7207L214.167 72.4608C214.167 72.4608 215.416 74.8229 214.569 76.7512C214.569 76.7512 214.787 73.7936 213.898 72.6423L212.739 73.5497C212.739 73.5497 213.912 75.8778 213.198 77.4771C213.198 77.4771 213.105 74.0346 212.487 73.7737C212.487 73.7737 211.473 74.6698 211.317 75.0384C211.317 75.0384 212.121 76.7399 211.623 77.6218C211.623 77.6218 211.317 75.3277 211.056 75.3163C211.056 75.3163 210.045 76.8363 209.94 77.8685C209.991 76.9061 210.291 75.9736 210.813 75.1632C210.229 75.2739 209.69 75.5528 209.263 75.9657C209.263 75.9657 209.422 74.891 211.062 74.7974C211.062 74.7974 211.898 73.6433 212.121 73.5724C212.121 73.5724 210.49 73.4363 209.501 73.8758C209.501 73.8758 210.371 72.8635 212.419 73.3229L213.552 72.3871C213.552 72.3871 211.402 72.1035 210.493 72.4183C210.493 72.4183 211.541 71.5222 213.861 72.1744L215.107 71.4286C215.107 71.4286 213.274 71.0344 212.184 71.1762C212.184 71.1762 213.337 70.5552 215.473 71.2273L216.365 70.8274C216.365 70.8274 215.022 70.5637 214.629 70.5212C214.235 70.4786 214.215 70.3709 214.215 70.3709C215.065 70.2293 215.939 70.3275 216.736 70.6545C216.736 70.6545 218.651 69.9597 218.617 69.8406Z" fill="#00BFA6"/>
<path opacity="0.1" d="M153.219 63.1284C153.219 63.1284 155.698 52.6108 148.037 52.574C148.037 52.574 146.765 52.0976 145.964 53.1865C145.964 53.1865 146.51 53.3027 146.139 54.3406C146.011 54.7076 145.925 55.0882 145.884 55.4749C145.829 56.002 145.948 56.5326 146.221 56.9863C146.221 56.9863 146.938 60.1906 151.604 62.1983C151.604 62.1983 152.522 63.2418 152.8 63.2532L152.346 61.3277C152.346 61.3277 150.947 61.7162 149.955 61.0442C149.955 61.0442 152.287 61.3873 152.29 61.0442C152.29 60.9733 152.006 60.0347 152.006 60.0347C152.006 60.0347 149.573 60.6982 148.071 59.6178C148.071 59.6178 150.794 60.4005 151.901 59.6774L151.392 58.2822C151.392 58.2822 148.842 59.1131 147.097 57.9476C147.097 57.9476 149.972 58.6679 151.258 57.9873L150.564 56.6886C150.564 56.6886 148.071 57.4485 146.618 56.4702C146.618 56.4702 150.018 56.9636 150.386 56.4021C150.386 56.4021 149.678 55.248 149.34 55.0325C149.34 55.0325 147.539 55.5373 146.745 54.8936C146.745 54.8936 149.054 54.9815 149.108 54.7376C149.108 54.7376 147.785 53.4814 146.777 53.1978C147.716 53.412 148.584 53.8674 149.295 54.5192C149.285 53.9249 149.102 53.3465 148.768 52.8547C148.768 52.8547 149.799 53.195 149.618 54.8397C149.618 54.8397 150.61 55.8605 150.641 56.0931C150.641 56.0931 151.052 54.5079 150.788 53.4559C150.788 53.4559 151.638 54.4881 150.836 56.4305L151.561 57.7207C151.561 57.7207 152.219 55.6507 152.052 54.6979C152.052 54.6979 152.757 55.8832 151.717 58.061L152.241 59.4193C152.241 59.4193 152.941 57.6782 152.986 56.5836C152.986 56.5836 153.403 57.8257 152.375 59.8192L152.618 60.7663C152.618 60.7663 153.105 59.4874 153.213 59.1074C153.321 58.7274 153.431 58.7246 153.431 58.7246C153.427 59.5873 153.183 60.4317 152.726 61.1633C152.726 61.1633 153.097 63.1426 153.219 63.1284Z" fill="#00BFA6"/>
<path opacity="0.1" d="M129.642 66.7126C129.642 66.7126 120.996 60.2387 117.905 67.2514C117.905 67.2514 116.962 68.2297 117.639 69.4008C117.639 69.4008 117.962 68.9443 118.772 69.7014C119.059 69.9686 119.377 70.2009 119.719 70.3933C120.181 70.6512 120.715 70.7508 121.24 70.6769C121.24 70.6769 124.458 71.2979 128.164 67.8071C128.164 67.8071 129.487 67.3818 129.611 67.1323L127.659 66.7891C127.659 66.7891 127.455 68.2268 126.45 68.8705C126.45 68.8705 127.693 66.8685 127.37 66.7239C127.305 66.6927 126.331 66.5821 126.331 66.5821C126.331 66.5821 125.968 69.0832 124.382 70.0275C124.382 70.0275 126.186 67.8412 125.962 66.5368L124.481 66.4574C124.481 66.4574 124.229 69.1201 122.461 70.2657C122.461 70.2657 124.265 67.9149 124.161 66.463L122.693 66.5821C122.693 66.5821 122.396 69.1711 120.92 70.1126C120.92 70.1126 122.73 67.1861 122.359 66.6303C122.359 66.6303 121.019 66.8203 120.687 67.0415C120.687 67.0415 120.43 68.8961 119.523 69.3668C119.523 69.3668 120.529 67.2825 120.325 67.1379C120.325 67.1379 118.645 67.8497 117.985 68.6607C118.556 67.8842 119.319 67.2703 120.2 66.8799C119.652 66.6519 119.05 66.5888 118.466 66.6984C118.466 66.6984 119.186 65.8874 120.608 66.7126C120.608 66.7126 121.94 66.2107 122.166 66.273C122.166 66.273 120.877 65.2607 119.809 65.0849C119.809 65.0849 121.095 64.7162 122.554 66.2192L124.025 66.0689C124.025 66.0689 122.39 64.651 121.452 64.4128C121.452 64.4128 122.821 64.2398 124.399 66.0604L125.849 66.1256C125.849 66.1256 124.537 64.7871 123.549 64.3051C123.549 64.3051 124.849 64.4185 126.266 66.1568L127.232 66.3127C127.232 66.3127 126.254 65.3543 125.948 65.1047C125.642 64.8552 125.685 64.7503 125.685 64.7503C126.473 65.0996 127.149 65.6611 127.637 66.3723C127.637 66.3723 129.606 66.8288 129.642 66.7126Z" fill="#00BFA6"/>
<path opacity="0.1" d="M158.428 6.56467C158.428 6.56467 149.781 0.0879374 146.691 7.10345C146.691 7.10345 145.747 8.08176 146.424 9.2529C146.424 9.2529 146.747 8.79636 147.557 9.55349C147.846 9.81935 148.164 10.0506 148.507 10.2426C148.969 10.5006 149.503 10.6002 150.028 10.5261C150.028 10.5261 153.246 11.1471 156.952 7.65357C156.952 7.65357 158.275 7.23105 158.396 6.97868L156.445 6.64123C156.445 6.64123 156.243 8.07893 155.235 8.72263C155.235 8.72263 156.481 6.72063 156.158 6.57601C156.093 6.54482 155.119 6.43422 155.119 6.43422C155.119 6.43422 154.745 8.94098 153.158 9.87959C153.158 9.87959 154.96 7.69327 154.739 6.38885L153.257 6.30945C153.257 6.30945 153.002 8.97217 151.238 10.115C151.238 10.115 153.042 7.76416 152.937 6.31229L151.473 6.43139C151.473 6.43139 151.172 9.02321 149.696 9.96466C149.696 9.96466 151.509 7.03823 151.138 6.48243C151.138 6.48243 149.798 6.67242 149.467 6.8936C149.467 6.8936 149.209 8.74815 148.303 9.21888C148.303 9.21888 149.308 7.13464 149.104 6.98718C149.104 6.98718 147.424 7.70178 146.764 8.51279C147.334 7.73544 148.098 7.1214 148.98 6.73197C148.431 6.50229 147.827 6.43918 147.243 6.55049C147.243 6.55049 147.965 5.73948 149.388 6.56467C149.388 6.56467 150.719 6.05991 150.946 6.12513C150.946 6.12513 149.657 5.11279 148.589 4.93414C148.589 4.93414 149.872 4.56834 151.331 6.06842L152.801 5.91813C152.801 5.91813 151.17 4.50028 150.229 4.25924C150.229 4.25924 151.597 4.0891 153.178 5.90962L154.629 5.972C154.629 5.972 153.317 4.63356 152.325 4.15432C152.325 4.15432 153.629 4.26775 155.045 6.00603L156.008 6.16199C156.008 6.16199 155.028 5.21487 154.722 4.971C154.416 4.72713 154.459 4.61938 154.459 4.61938C155.247 4.96833 155.923 5.52994 156.411 6.2414C156.411 6.2414 158.379 6.67242 158.428 6.56467Z" fill="#00BFA6"/>
<path opacity="0.1" d="M191.468 14.7685C191.468 14.7685 188.012 4.52879 181.493 8.55264C181.493 8.55264 180.161 8.83621 180.057 10.1718C180.057 10.1718 180.581 9.979 180.813 11.0566C180.899 11.4399 181.03 11.8119 181.201 12.1653C181.435 12.6409 181.817 13.0279 182.289 13.2684C182.289 13.2684 184.589 15.6079 189.621 14.8337C189.621 14.8337 190.949 15.2364 191.193 15.0974L189.777 13.7051C189.777 13.7051 188.796 14.7742 187.601 14.7316C187.601 14.7316 189.762 13.7902 189.584 13.4868C189.547 13.4272 188.808 12.7835 188.808 12.7835C188.808 12.7835 187.091 14.6352 185.249 14.5133C185.249 14.5133 187.972 13.7363 188.527 12.5283L187.354 11.6237C187.354 11.6237 185.638 13.6711 183.533 13.6087C183.533 13.6087 186.366 12.6984 187.082 11.4394L185.808 10.7049C185.808 10.7049 184.108 12.6701 182.346 12.6077C182.346 12.6077 185.496 11.2267 185.504 10.5575C185.504 10.5575 184.295 9.95348 183.895 9.94781C183.895 9.94781 182.632 11.3288 181.629 11.204C181.629 11.204 183.635 10.0556 183.55 9.8202C183.55 9.8202 181.765 9.4544 180.759 9.74931C181.669 9.43229 182.646 9.35897 183.592 9.53663C183.269 9.03726 182.807 8.64308 182.264 8.40235C182.264 8.40235 183.317 8.14431 184.023 9.63021C184.023 9.63021 185.405 9.97333 185.553 10.152C185.553 10.152 185.065 8.58951 184.286 7.83521C184.286 7.83521 185.553 8.2634 185.898 10.3363L187.196 11.0452C187.196 11.0452 186.66 8.94397 186.014 8.20953C186.014 8.20953 187.241 8.84472 187.507 11.2409L188.669 12.1171C188.669 12.1171 188.346 10.2682 187.802 9.30978C187.802 9.30978 188.811 10.1435 188.992 12.3808L189.697 13.0557C189.697 13.0557 189.437 11.7116 189.329 11.3316C189.221 10.9516 189.309 10.9261 189.309 10.9261C189.76 11.6617 189.998 12.5077 189.998 13.3705C189.998 13.3705 191.369 14.8422 191.468 14.7685Z" fill="#00BFA6"/>
<path opacity="0.1" d="M168.91 15.2731C168.91 15.2731 158.173 14.0765 159.06 21.7016C159.06 21.7016 158.74 23.0231 159.91 23.6866C159.91 23.6866 159.958 23.1195 161.043 23.3747C161.426 23.4573 161.818 23.4963 162.21 23.491C162.74 23.4814 163.252 23.2992 163.669 22.972C163.669 22.972 166.76 21.8746 168.202 16.983C168.202 16.983 169.125 15.948 169.106 15.6673L167.25 16.3535C167.25 16.3535 167.817 17.6948 167.25 18.761C167.25 18.761 167.309 16.4046 166.967 16.4414C166.896 16.4414 166.001 16.8498 166.001 16.8498C166.001 16.8498 166.953 19.1892 166.063 20.8197C166.063 20.8197 166.511 18.0181 165.658 17.0086L164.341 17.6891C164.341 17.6891 165.474 20.1137 164.525 21.9966C164.525 21.9966 164.893 19.0531 164.063 17.8593L162.859 18.71C162.859 18.71 163.913 21.0948 163.117 22.6573C163.117 22.6573 163.199 19.2147 162.595 18.9227C162.595 18.9227 161.536 19.7734 161.363 20.125C161.363 20.125 162.08 21.8548 161.539 22.7197C161.539 22.7197 161.349 20.4142 161.1 20.3916C161.1 20.3916 160.012 21.8576 159.853 22.8926C159.951 21.933 160.299 21.016 160.862 20.2328C160.274 20.3141 159.722 20.5654 159.275 20.9559C159.275 20.9559 159.485 19.8925 161.128 19.8811C161.128 19.8811 162.02 18.7724 162.261 18.7128C162.261 18.7128 160.638 18.4945 159.626 18.883C159.626 18.883 160.547 17.9132 162.57 18.4775L163.763 17.6012C163.763 17.6012 161.607 17.1645 160.694 17.4481C160.694 17.4481 161.788 16.5974 164.071 17.3772L165.355 16.6938C165.355 16.6938 163.544 16.2061 162.448 16.294C162.448 16.294 163.629 15.7268 165.729 16.5123L166.641 16.1579C166.641 16.1579 165.312 15.8261 164.921 15.7637C164.53 15.7013 164.516 15.5936 164.516 15.5936C165.373 15.4952 166.24 15.6366 167.021 16.0019C167.021 16.0019 168.93 15.3922 168.91 15.2731Z" fill="#00BFA6"/>
<path opacity="0.1" d="M262.852 98.6907C262.852 98.6907 252.12 97.4941 253.007 105.111C253.007 105.111 252.687 106.432 253.857 107.096C253.857 107.096 253.905 106.529 254.99 106.781C255.373 106.866 255.765 106.905 256.157 106.897C256.687 106.889 257.2 106.707 257.616 106.378C257.616 106.378 260.707 105.281 262.135 100.392C262.135 100.392 263.059 99.3543 263.039 99.0764L261.183 99.7598C261.183 99.7598 261.75 101.104 261.183 102.17C261.183 102.17 261.243 99.8108 260.9 99.8505C260.829 99.8505 259.934 100.256 259.934 100.256C259.934 100.256 260.886 102.595 259.996 104.226C259.996 104.226 260.444 101.427 259.591 100.415L258.274 101.098C258.274 101.098 259.407 103.523 258.461 105.406C258.461 105.406 258.826 102.462 257.996 101.266L256.792 102.116C256.792 102.116 257.846 104.501 257.05 106.061C257.05 106.061 257.132 102.618 256.529 102.329C256.529 102.329 255.472 103.18 255.296 103.531C255.296 103.531 256.016 105.261 255.472 106.126C255.472 106.126 255.282 103.82 255.033 103.798C255.033 103.798 253.945 105.264 253.786 106.299C253.884 105.339 254.232 104.422 254.795 103.639C254.206 103.719 253.655 103.97 253.208 104.362C253.208 104.362 253.418 103.296 255.061 103.285C255.061 103.285 255.956 102.176 256.194 102.119C256.194 102.119 254.571 101.898 253.56 102.286C253.56 102.286 254.48 101.319 256.506 101.884L257.696 101.007C257.696 101.007 255.565 100.605 254.639 100.883C254.639 100.883 255.732 100.032 258.016 100.809L259.299 100.128C259.299 100.128 257.489 99.6407 256.393 99.7286C256.393 99.7286 257.574 99.1614 259.673 99.9469L260.585 99.5896C260.585 99.5896 259.257 99.2579 258.866 99.1983C258.475 99.1388 258.461 99.0282 258.461 99.0282C259.317 98.928 260.184 99.0684 260.965 99.4337C260.965 99.4337 262.88 98.8127 262.852 98.6907Z" fill="#00BFA6"/>
<path opacity="0.1" d="M279.258 108.724C279.258 108.724 268.527 107.53 269.413 115.144C269.413 115.144 269.096 116.465 270.263 117.129C270.263 117.129 270.311 116.561 271.396 116.817C271.779 116.9 272.17 116.938 272.561 116.93C273.088 116.919 273.598 116.738 274.014 116.414C274.014 116.414 277.102 115.317 278.53 110.425C278.53 110.425 279.456 109.39 279.434 109.109L277.578 109.793C277.578 109.793 278.145 111.137 277.578 112.203C277.578 112.203 277.638 109.846 277.295 109.883C277.224 109.883 276.329 110.289 276.329 110.289C276.329 110.289 277.281 112.628 276.391 114.259C276.391 114.259 276.839 111.46 275.986 110.45L274.669 111.131C274.669 111.131 275.802 113.556 274.856 115.438C274.856 115.438 275.221 112.495 274.391 111.301L273.187 112.152C273.187 112.152 274.241 114.537 273.448 116.099C273.448 116.099 273.527 112.654 272.923 112.365C272.923 112.365 271.867 113.215 271.691 113.567C271.691 113.567 272.411 115.297 271.867 116.162C271.867 116.162 271.677 113.856 271.428 113.833C271.428 113.833 270.34 115.3 270.184 116.335C270.282 115.375 270.629 114.458 271.19 113.675C270.602 113.756 270.05 114.007 269.603 114.398C269.603 114.398 269.816 113.332 271.459 113.323C271.459 113.323 272.351 112.214 272.592 112.155C272.592 112.155 270.969 111.936 269.957 112.325C269.957 112.325 270.878 111.355 272.904 111.919L274.093 111.043C274.093 111.043 271.963 110.64 271.037 110.918C271.037 110.918 272.13 110.068 274.414 110.847L275.697 110.164C275.697 110.164 273.887 109.676 272.79 109.764C272.79 109.764 273.972 109.197 276.071 109.983L276.983 109.628C276.983 109.628 275.654 109.296 275.266 109.234C274.878 109.172 274.858 109.064 274.858 109.064C275.715 108.965 276.582 109.107 277.363 109.472C277.363 109.472 279.286 108.845 279.258 108.724Z" fill="#00BFA6"/>
<path opacity="0.1" d="M242.834 24.217C242.834 24.217 234.188 17.7431 231.097 24.7558C231.097 24.7558 230.153 25.7341 230.831 26.9052C230.831 26.9052 231.153 26.4487 231.964 27.2058C232.251 27.473 232.568 27.7053 232.91 27.8977C233.373 28.1554 233.907 28.255 234.431 28.1813C234.431 28.1813 237.649 28.8023 241.358 25.3115C241.358 25.3115 242.678 24.8862 242.803 24.6367L240.856 24.285C240.856 24.285 240.652 25.7227 239.647 26.3664C239.647 26.3664 240.89 24.3644 240.567 24.2198C240.502 24.1886 239.531 24.078 239.531 24.078C239.531 24.078 239.165 26.5791 237.579 27.5234C237.579 27.5234 239.383 25.3371 239.159 24.0327L237.678 23.9533C237.678 23.9533 237.426 26.616 235.658 27.7616C235.658 27.7616 237.465 25.4108 237.358 23.9589L235.89 24.078C235.89 24.078 235.607 26.667 234.117 27.6085C234.117 27.6085 235.93 24.682 235.556 24.1262C235.556 24.1262 234.216 24.3162 233.884 24.5374C233.884 24.5374 233.63 26.3919 232.723 26.8627C232.723 26.8627 233.726 24.7784 233.522 24.6338C233.522 24.6338 231.842 25.3456 231.182 26.1566C231.753 25.3801 232.516 24.7662 233.397 24.3758C232.849 24.1478 232.247 24.0847 231.663 24.1943C231.663 24.1943 232.386 23.3833 233.808 24.2085C233.808 24.2085 235.137 23.7065 235.363 23.7689C235.363 23.7689 234.074 22.7566 233.006 22.5808C233.006 22.5808 234.292 22.2121 235.751 23.7151L237.222 23.5648C237.222 23.5648 235.59 22.1469 234.649 21.9087C234.649 21.9087 236.018 21.7357 237.596 23.5563L239.049 23.6215C239.049 23.6215 237.734 22.283 236.746 21.801C236.746 21.801 238.049 21.9144 239.463 23.6527L240.429 23.8086C240.429 23.8086 239.451 22.8502 239.145 22.6006C238.839 22.3511 238.885 22.2688 238.885 22.2688C239.672 22.6188 240.346 23.1802 240.834 23.8909C240.834 23.8909 242.797 24.3332 242.834 24.217Z" fill="#00BFA6"/>
<path opacity="0.1" d="M249.515 70.9548C249.515 70.9548 246.535 60.5676 239.832 64.2966C239.832 64.2966 238.489 64.5036 238.322 65.8477C238.322 65.8477 238.855 65.6804 239.039 66.7665C239.107 67.1566 239.221 67.5374 239.379 67.9007C239.589 68.3894 239.953 68.7957 240.416 69.0577C240.416 69.0577 242.609 71.4964 247.668 70.9519C247.668 70.9519 248.977 71.4113 249.226 71.2865L247.886 69.829C247.886 69.829 246.858 70.8555 245.668 70.7591C245.668 70.7591 247.867 69.9084 247.697 69.605C247.663 69.5426 246.954 68.8649 246.954 68.8649C246.954 68.8649 245.158 70.64 243.322 70.433C243.322 70.433 246.079 69.7808 246.685 68.6068L245.552 67.6484C245.552 67.6484 243.745 69.6163 241.645 69.4632C241.645 69.4632 244.501 68.6777 245.289 67.4555L244.048 66.6644C244.048 66.6644 242.249 68.5501 240.504 68.4083C240.504 68.4083 243.713 67.1691 243.753 66.5027C243.753 66.5027 242.569 65.8448 242.169 65.8222C242.169 65.8222 240.846 67.1436 239.841 66.9735C239.841 66.9735 241.897 65.9157 241.824 65.6775C241.824 65.6775 240.056 65.2323 239.039 65.479C239.96 65.2056 240.937 65.1773 241.872 65.3968C241.572 64.8837 241.129 64.4697 240.597 64.2058C240.597 64.2058 241.662 63.9931 242.297 65.5102C242.297 65.5102 243.66 65.9129 243.801 66.1001C243.801 66.1001 243.385 64.5149 242.64 63.7294C242.64 63.7294 243.886 64.2115 244.138 66.2986L245.402 67.067C245.402 67.067 244.96 64.9403 244.348 64.1916C244.348 64.1916 245.544 64.8807 245.705 67.2854L246.838 68.2127C246.838 68.2127 246.597 66.3524 246.099 65.377C246.099 65.377 247.07 66.256 247.15 68.4962L247.824 69.2051C247.824 69.2051 247.626 67.8497 247.541 67.464C247.456 67.0784 247.541 67.0245 247.541 67.0245C247.96 67.7788 248.161 68.635 248.122 69.4972C248.122 69.4972 249.413 71.0228 249.515 70.9548Z" fill="#00BFA6"/>
<path opacity="0.1" d="M183.104 94.3606C183.104 94.3606 177.316 85.2353 171.942 90.6969C171.942 90.6969 170.712 91.264 170.928 92.611C170.928 92.611 171.395 92.299 171.877 93.2915C172.05 93.6433 172.265 93.9727 172.517 94.2727C172.855 94.6821 173.318 94.9691 173.834 95.0894C173.834 95.0894 176.625 96.8135 181.328 94.8625C181.328 94.8625 182.713 94.9362 182.917 94.7462L181.217 93.7254C181.217 93.7254 180.517 95.0015 179.347 95.2425C179.347 95.2425 181.223 93.8247 180.971 93.5638C180.922 93.5127 180.05 93.0647 180.05 93.0647C180.05 93.0647 178.823 95.2709 177.004 95.5913C177.004 95.5913 179.466 94.1876 179.721 92.8889L178.364 92.2905C178.364 92.2905 177.183 94.6867 175.126 95.1262C175.126 95.1262 177.647 93.5694 178.058 92.1743L176.642 91.7659C176.642 91.7659 175.446 94.0827 173.732 94.4372C173.732 94.4372 176.463 92.3444 176.313 91.6922C176.313 91.6922 174.993 91.3945 174.613 91.4852C174.613 91.4852 173.715 93.1271 172.701 93.2462C172.701 93.2462 174.378 91.6525 174.239 91.4427C174.239 91.4427 172.418 91.5136 171.511 92.0382C172.32 91.5138 173.252 91.2107 174.214 91.1591C173.783 90.751 173.242 90.478 172.659 90.3736C172.659 90.3736 173.619 89.8717 174.642 91.1478C174.642 91.1478 176.058 91.1478 176.254 91.2895C176.254 91.2895 175.404 89.8717 174.472 89.3414C174.472 89.3414 175.803 89.4548 176.63 91.386L178.061 91.7659C178.061 91.7659 177.038 89.8518 176.242 89.3046C176.242 89.3046 177.582 89.6278 178.412 91.8935L179.75 92.4607C179.75 92.4607 178.996 90.7451 178.24 89.9426C178.24 89.9426 179.418 90.5097 180.124 92.6393L180.973 93.1299C180.973 93.1299 180.407 91.885 180.206 91.5419C180.005 91.1988 180.084 91.1194 180.084 91.1194C180.697 91.7255 181.129 92.4903 181.333 93.3284C181.333 93.3284 183.027 94.457 183.104 94.3606Z" fill="#00BFA6"/>
<path d="M221.142 47.7362C221.142 47.7362 215.638 38.438 210.094 43.7294C210.094 43.7294 208.847 44.2682 209.023 45.6123C209.023 45.6123 209.496 45.3117 209.949 46.3184C210.111 46.6762 210.316 47.0133 210.558 47.3222C210.884 47.7404 211.338 48.0394 211.85 48.1729C211.85 48.1729 214.584 49.9821 219.346 48.1729C219.346 48.1729 220.729 48.2892 220.938 48.1049L219.275 47.033C219.275 47.033 218.539 48.2835 217.36 48.4905C217.36 48.4905 219.278 47.1209 219.037 46.8629C218.986 46.809 218.131 46.3326 218.131 46.3326C218.131 46.3326 216.836 48.5019 215.015 48.7656C215.015 48.7656 217.519 47.4385 217.811 46.1511L216.474 45.5216C216.474 45.5216 215.219 47.8837 213.148 48.2609C213.148 48.2609 215.717 46.7835 216.17 45.4025L214.771 44.9488C214.771 44.9488 213.502 47.2173 211.779 47.5292C211.779 47.5292 214.573 45.5216 214.442 44.8665C214.442 44.8665 213.133 44.5262 212.743 44.6056C212.743 44.6056 211.793 46.2192 210.776 46.3071C210.776 46.3071 212.502 44.7701 212.371 44.5546C212.371 44.5546 210.547 44.5688 209.626 45.065C210.451 44.5671 211.391 44.2934 212.354 44.271C211.936 43.8495 211.403 43.5597 210.822 43.4373C210.822 43.4373 211.799 42.9638 212.805 44.271C212.805 44.271 214.221 44.3192 214.411 44.4639C214.411 44.4639 213.609 43.046 212.692 42.4619C212.692 42.4619 214.017 42.615 214.785 44.5716L216.202 44.997C216.202 44.997 215.241 43.0517 214.459 42.4789C214.459 42.4789 215.791 42.8447 216.55 45.1331L217.867 45.7484C217.867 45.7484 217.168 44.0101 216.451 43.1963C216.451 43.1963 217.61 43.8003 218.253 45.9498L219.083 46.4659C219.083 46.4659 218.55 45.204 218.363 44.8552C218.176 44.5064 218.255 44.4298 218.255 44.4298C218.849 45.0546 219.258 45.8321 219.437 46.6757C219.437 46.6757 221.06 47.8298 221.142 47.7362Z" fill="#00BFA6"/>
<path d="M186.316 67.2882C186.316 67.2882 186.6 56.4842 179.101 58.0069C179.101 58.0069 177.758 57.7999 177.191 59.0306C177.191 59.0306 177.758 59.0306 177.599 60.1224C177.547 60.5117 177.542 60.9057 177.582 61.2963C177.634 61.8262 177.858 62.3244 178.22 62.7142C178.22 62.7142 179.571 65.703 184.56 66.7182C184.56 66.7182 185.668 67.5547 185.945 67.5094L185.095 65.7172C185.095 65.7172 183.806 66.3808 182.699 65.9299C182.699 65.9299 185.05 65.7909 184.985 65.445C184.985 65.3741 184.498 64.512 184.498 64.512C184.498 64.512 182.248 65.6605 180.563 64.9062C180.563 64.9062 183.396 65.1189 184.322 64.1859L183.532 62.9297C183.532 62.9297 181.214 64.2568 179.259 63.4742C179.259 63.4742 182.22 63.5933 183.342 62.666L182.398 61.5317C182.398 61.5317 180.112 62.7851 178.492 62.1215C178.492 62.1215 181.925 61.9145 182.175 61.2878C182.175 61.2878 181.245 60.3039 180.871 60.1536C180.871 60.1536 179.211 61.0043 178.305 60.5449C178.305 60.5449 180.571 60.1649 180.585 59.9125C180.585 59.9125 179.036 58.9512 177.99 58.8803C178.954 58.8976 179.897 59.1674 180.724 59.663C180.595 59.0834 180.3 58.5541 179.874 58.1402C179.874 58.1402 180.954 58.2622 181.101 59.8984C181.101 59.8984 182.282 60.698 182.359 60.9192C182.359 60.9192 182.441 59.283 181.968 58.3075C181.968 58.3075 183.01 59.1441 182.619 61.2084L183.591 62.3257C183.591 62.3257 183.812 60.1649 183.458 59.266C183.458 59.266 184.387 60.284 183.815 62.6263L184.6 63.8485C184.6 63.8485 184.934 62.0024 184.755 60.9164C184.755 60.9164 185.413 62.0506 184.812 64.2086L185.243 65.0877C185.243 65.0877 185.461 63.735 185.489 63.3409C185.518 62.9467 185.625 62.9212 185.625 62.9212C185.796 63.7671 185.728 64.6438 185.43 65.4535C185.43 65.4535 186.192 67.325 186.316 67.2882Z" fill="#00BFA6"/>
<path opacity="0.1" d="M198.713 204.57C202.927 204.57 206.342 203.992 206.342 203.28C206.342 202.567 202.927 201.99 198.713 201.99C194.5 201.99 191.084 202.567 191.084 203.28C191.084 203.992 194.5 204.57 198.713 204.57Z" fill="#00BFA6"/>
<path opacity="0.1" d="M170.903 224.159C175.116 224.159 178.532 223.581 178.532 222.869C178.532 222.156 175.116 221.578 170.903 221.578C166.689 221.578 163.273 222.156 163.273 222.869C163.273 223.581 166.689 224.159 170.903 224.159Z" fill="#00BFA6"/>
<path opacity="0.1" d="M27.0823 214.123C31.2958 214.123 34.7115 213.546 34.7115 212.833C34.7115 212.121 31.2958 211.543 27.0823 211.543C22.8688 211.543 19.4531 212.121 19.4531 212.833C19.4531 213.546 22.8688 214.123 27.0823 214.123Z" fill="#00BFA6"/>
<path opacity="0.1" d="M228.768 222.869C232.981 222.869 236.397 222.291 236.397 221.579C236.397 220.866 232.981 220.288 228.768 220.288C224.554 220.288 221.139 220.866 221.139 221.579C221.139 222.291 224.554 222.869 228.768 222.869Z" fill="#00BFA6"/>
<path d="M236.712 207.136C243.003 207.136 248.103 206.273 248.103 205.208C248.103 204.143 243.003 203.28 236.712 203.28C230.42 203.28 225.32 204.143 225.32 205.208C225.32 206.273 230.42 207.136 236.712 207.136Z" fill="#00BFA6"/>
<path d="M241.436 202.052C241.956 201.629 242.334 201.057 242.521 200.413C242.662 199.761 242.385 198.981 241.764 198.743C241.067 198.476 240.322 198.958 239.756 199.446C239.189 199.934 238.546 200.492 237.807 200.39C238.186 200.045 238.47 199.607 238.631 199.12C238.792 198.633 238.824 198.112 238.725 197.608C238.692 197.4 238.604 197.204 238.47 197.041C238.081 196.627 237.382 196.806 236.917 197.132C235.444 198.17 235.033 200.172 235.025 201.975C234.877 201.326 235.002 200.648 234.999 199.99C234.996 199.332 234.812 198.572 234.248 198.226C233.902 198.033 233.511 197.935 233.115 197.943C232.452 197.92 231.713 197.985 231.263 198.47C230.696 199.071 230.846 200.084 231.333 200.739C231.821 201.394 232.566 201.816 233.251 202.276C233.8 202.604 234.268 203.05 234.622 203.583C234.663 203.657 234.696 203.735 234.722 203.816H238.875C239.804 203.347 240.666 202.753 241.436 202.052Z" fill="#00BFA6"/>
<path d="M21.9609 206.836C21.9609 206.836 26.3096 206.702 27.6269 205.767C28.9442 204.831 34.3212 203.716 34.647 205.216C34.9728 206.717 41.1855 212.672 36.2731 212.711C31.3607 212.751 24.8591 211.946 23.5502 211.146C22.2414 210.346 21.9609 206.836 21.9609 206.836Z" fill="#A8A8A8"/>
<path opacity="0.2" d="M36.3553 212.19C31.4429 212.229 24.9412 211.424 23.6324 210.624C22.6352 210.017 22.2386 207.837 22.1054 206.83H21.9609C21.9609 206.83 22.2442 210.344 23.5446 211.14C24.8449 211.937 31.3551 212.745 36.2674 212.706C37.6839 212.706 38.174 212.19 38.1485 211.441C37.9502 211.897 37.4091 212.181 36.3553 212.19Z" fill="black"/>
</g>
<defs>
<linearGradient id="paint0_linear" x1="63.869" y1="123.064" x2="152.295" y2="123.064" gradientUnits="userSpaceOnUse">
<stop stop-color="#808080" stop-opacity="0.25"/>
<stop offset="0.54" stop-color="#808080" stop-opacity="0.12"/>
<stop offset="1" stop-color="#808080" stop-opacity="0.1"/>
</linearGradient>
<clipPath id="clip0">
<rect width="286" height="224" fill="white" transform="translate(0.697266 0.158936)"/>
</clipPath>
</defs>
</svg>
