<svg width="25" height="25" viewBox="0 0 25 25" fill="none" xmlns="http://www.w3.org/2000/svg">
<path d="M12.5 25C5.58608 25 0 19.3681 0 12.5C0 5.58608 5.58608 0 12.5 0C19.3681 0 25 5.58608 25 12.5C25 19.3681 19.3681 25 12.5 25Z" fill="white"/>
<path fill-rule="evenodd" clip-rule="evenodd" d="M10.1649 12.5V19.7344C10.1649 19.826 10.2565 19.9176 10.3481 19.9176H13.0495C13.1411 19.9176 13.2327 19.826 13.2327 19.7344V12.4084H15.2015C15.2931 12.4084 15.3847 12.3168 15.3847 12.2253L15.5678 10.0275C15.5678 9.93589 15.4763 9.84431 15.3847 9.84431H13.2327V8.28754C13.2327 7.92124 13.5532 7.60072 13.9195 7.60072H15.4305C15.5221 7.60072 15.6136 7.50915 15.6136 7.41757V5.21977C15.6136 5.1282 15.5221 5.03662 15.4305 5.03662H12.9122C11.4012 5.03662 10.2107 6.2271 10.2107 7.73809V9.8901H8.88286C8.79128 9.8901 8.69971 9.98168 8.69971 10.0733V12.2711C8.69971 12.3626 8.79128 12.4542 8.88286 12.4542H10.1649V12.5Z" fill="black"/>
</svg>
