<svg width="30" height="30" viewBox="0 0 25 25" fill="none" xmlns="http://www.w3.org/2000/svg">
<path d="M12.3617 23.3395C18.4246 23.3395 23.3395 18.4246 23.3395 12.3617C23.3395 6.29874 18.4246 1.38379 12.3617 1.38379C6.29875 1.38379 1.38379 6.29874 1.38379 12.3617C1.38379 18.4246 6.29875 23.3395 12.3617 23.3395Z" fill="black"/>
<path d="M12.5 25C5.62731 25 0 19.4188 0 12.5C0 5.62731 5.62731 0 12.5 0C19.3727 0 25 5.62731 25 12.5C25 19.4188 19.4188 25 12.5 25ZM16.7435 7.4262C16.2362 7.4262 15.821 7.84133 15.821 8.34871C15.821 8.85609 16.2362 9.27122 16.7435 9.27122C17.2509 9.27122 17.6661 8.85609 17.6661 8.34871C17.6661 7.84133 17.2509 7.4262 16.7435 7.4262ZM12.5923 8.62546C10.4705 8.62546 8.71771 10.3782 8.71771 12.5C8.71771 14.6218 10.4705 16.3745 12.5923 16.3745C14.714 16.3745 16.4668 14.6218 16.4668 12.5C16.4668 10.3782 14.7601 8.62546 12.5923 8.62546ZM12.5923 14.9908C11.2085 14.9908 10.1015 13.8838 10.1015 12.5C10.1015 11.1162 11.2085 10.0092 12.5923 10.0092C13.976 10.0092 15.083 11.1162 15.083 12.5C15.083 13.8838 13.976 14.9908 12.5923 14.9908ZM20.4336 9.27122C20.4336 6.64207 18.3118 4.5203 15.6827 4.5203H9.45572C6.82657 4.5203 4.7048 6.64207 4.7048 9.27122V15.5443C4.7048 18.1734 6.82657 20.2952 9.45572 20.2952H15.7288C18.3579 20.2952 20.4797 18.1734 20.4797 15.5443V9.27122H20.4336ZM18.9576 15.5443C18.9576 17.3432 17.4815 18.8192 15.6827 18.8192H9.45572C7.65683 18.8192 6.18081 17.3432 6.18081 15.5443V9.27122C6.18081 7.47232 7.65683 5.99631 9.45572 5.99631H15.7288C17.5277 5.99631 19.0037 7.47232 19.0037 9.27122V15.5443H18.9576Z" fill="white"/>
</svg>
