<svg width="93" height="39" viewBox="0 0 93 39" fill="none" xmlns="http://www.w3.org/2000/svg">
<path d="M8.71873 9.9781C10.425 11.9737 10.425 15.2193 8.71873 17.2149C7.86248 18.2164 6.74373 18.7135 5.62498 18.7135C4.50623 18.7135 3.38748 18.2164 2.53123 17.2149C0.356227 14.6711 -2.30077e-05 7.01758 -2.30077e-05 7.01758C-2.30077e-05 7.01758 6.54373 7.43424 8.71873 9.9781ZM3.41248 16.1842C4.00623 16.8714 4.78748 17.2515 5.62498 17.2515C6.18123 17.2515 7.03125 16.6886 7.5 16.3743C6.925 14.269 5.53748 12.7997 4.12498 11.4035C5.76873 12.3977 7.04375 13.9328 8 15.7895C8.925 14.3568 8.94998 12.3173 7.83123 11.0088C6.74373 9.73688 3.72498 8.95471 1.37498 8.62577C1.65623 11.3743 2.32498 14.905 3.41248 16.1842Z" fill="#fff"/>
<path d="M20.7519 22.848C20.9599 23.04 21.0639 23.24 21.0639 23.448C21.0639 23.624 20.9999 23.784 20.8719 23.928C20.7439 24.056 20.5919 24.12 20.4159 24.12C20.2559 24.12 20.0879 24.048 19.9119 23.904L13.3839 18.336V23.376C13.3839 23.616 13.3119 23.8 13.1679 23.928C13.0399 24.056 12.8719 24.12 12.6639 24.12C12.4399 24.12 12.2559 24.056 12.1119 23.928C11.9839 23.8 11.9199 23.616 11.9199 23.376V7.704C11.9199 7.464 11.9839 7.28 12.1119 7.152C12.2559 7.024 12.4399 6.96 12.6639 6.96C12.8719 6.96 13.0399 7.024 13.1679 7.152C13.3119 7.28 13.3839 7.464 13.3839 7.704V17.736L19.3599 12.36C19.5359 12.216 19.7039 12.144 19.8639 12.144C20.0559 12.144 20.2159 12.216 20.3439 12.36C20.4879 12.488 20.5599 12.648 20.5599 12.84C20.5599 13.08 20.4639 13.272 20.2719 13.416L15.0879 18L20.7519 22.848ZM28.0357 12.072C29.4437 12.072 30.4917 12.44 31.1797 13.176C31.8837 13.912 32.2357 15.024 32.2357 16.512V23.352C32.2357 23.576 32.1717 23.76 32.0437 23.904C31.9157 24.032 31.7397 24.096 31.5157 24.096C31.2917 24.096 31.1157 24.032 30.9877 23.904C30.8597 23.76 30.7957 23.576 30.7957 23.352V21.912C30.4597 22.632 29.9717 23.192 29.3317 23.592C28.6917 23.976 27.9557 24.168 27.1237 24.168C26.3717 24.168 25.6837 24.016 25.0597 23.712C24.4517 23.408 23.9637 22.992 23.5957 22.464C23.2277 21.936 23.0437 21.344 23.0437 20.688C23.0277 19.808 23.2437 19.128 23.6917 18.648C24.1397 18.152 24.8837 17.8 25.9237 17.592C26.9637 17.384 28.4197 17.28 30.2917 17.28H30.7957V16.392C30.7957 15.336 30.5797 14.568 30.1477 14.088C29.7157 13.592 29.0357 13.344 28.1077 13.344C26.9237 13.344 25.7957 13.656 24.7237 14.28C24.6757 14.312 24.5477 14.4 24.3397 14.544C24.1477 14.672 23.9797 14.736 23.8357 14.736C23.6757 14.736 23.5397 14.68 23.4277 14.568C23.3317 14.44 23.2837 14.288 23.2837 14.112C23.2837 13.76 23.5637 13.416 24.1237 13.08C24.6837 12.76 25.3077 12.512 25.9957 12.336C26.6837 12.16 27.3637 12.072 28.0357 12.072ZM27.2437 22.896C28.2837 22.896 29.1317 22.544 29.7877 21.84C30.4597 21.136 30.7957 20.24 30.7957 19.152V18.36H30.3397C28.8037 18.36 27.6277 18.424 26.8117 18.552C25.9957 18.68 25.4197 18.904 25.0837 19.224C24.7477 19.528 24.5797 19.976 24.5797 20.568C24.5797 21.24 24.8357 21.8 25.3477 22.248C25.8597 22.68 26.4917 22.896 27.2437 22.896ZM41.5325 12.072C42.5565 12.072 43.4605 12.32 44.2445 12.816C45.0285 13.312 45.6365 14.016 46.0685 14.928C46.5005 15.824 46.7165 16.872 46.7165 18.072C46.7165 19.288 46.5005 20.36 46.0685 21.288C45.6365 22.2 45.0285 22.912 44.2445 23.424C43.4605 23.92 42.5565 24.168 41.5325 24.168C40.5885 24.168 39.7725 23.968 39.0845 23.568C38.3965 23.152 37.8765 22.552 37.5245 21.768V23.352C37.5245 23.576 37.4605 23.76 37.3325 23.904C37.2045 24.032 37.0285 24.096 36.8045 24.096C36.5805 24.096 36.3965 24.032 36.2525 23.904C36.1245 23.76 36.0605 23.576 36.0605 23.352V7.704C36.0605 7.48 36.1245 7.304 36.2525 7.176C36.3965 7.032 36.5805 6.96 36.8045 6.96C37.0285 6.96 37.2045 7.032 37.3325 7.176C37.4605 7.304 37.5245 7.48 37.5245 7.704V14.472C37.8765 13.688 38.3965 13.096 39.0845 12.696C39.7725 12.28 40.5885 12.072 41.5325 12.072ZM41.3405 22.872C42.5565 22.872 43.5005 22.448 44.1725 21.6C44.8605 20.752 45.2045 19.576 45.2045 18.072C45.2045 16.568 44.8605 15.408 44.1725 14.592C43.5005 13.76 42.5485 13.344 41.3165 13.344C40.1005 13.344 39.1645 13.76 38.5085 14.592C37.8525 15.424 37.5245 16.6 37.5245 18.12C37.5245 19.64 37.8525 20.816 38.5085 21.648C39.1805 22.464 40.1245 22.872 41.3405 22.872ZM54.4263 12.072C55.8343 12.072 56.8823 12.44 57.5703 13.176C58.2743 13.912 58.6263 15.024 58.6263 16.512V23.352C58.6263 23.576 58.5623 23.76 58.4343 23.904C58.3063 24.032 58.1303 24.096 57.9063 24.096C57.6823 24.096 57.5063 24.032 57.3783 23.904C57.2503 23.76 57.1863 23.576 57.1863 23.352V21.912C56.8503 22.632 56.3623 23.192 55.7223 23.592C55.0823 23.976 54.3463 24.168 53.5143 24.168C52.7623 24.168 52.0743 24.016 51.4503 23.712C50.8423 23.408 50.3543 22.992 49.9863 22.464C49.6183 21.936 49.4343 21.344 49.4343 20.688C49.4183 19.808 49.6343 19.128 50.0823 18.648C50.5303 18.152 51.2743 17.8 52.3143 17.592C53.3543 17.384 54.8103 17.28 56.6823 17.28H57.1863V16.392C57.1863 15.336 56.9703 14.568 56.5383 14.088C56.1063 13.592 55.4263 13.344 54.4983 13.344C53.3143 13.344 52.1863 13.656 51.1143 14.28C51.0663 14.312 50.9383 14.4 50.7303 14.544C50.5383 14.672 50.3703 14.736 50.2263 14.736C50.0663 14.736 49.9303 14.68 49.8183 14.568C49.7223 14.44 49.6743 14.288 49.6743 14.112C49.6743 13.76 49.9543 13.416 50.5143 13.08C51.0743 12.76 51.6983 12.512 52.3863 12.336C53.0743 12.16 53.7543 12.072 54.4263 12.072ZM53.6343 22.896C54.6743 22.896 55.5223 22.544 56.1783 21.84C56.8503 21.136 57.1863 20.24 57.1863 19.152V18.36H56.7303C55.1943 18.36 54.0183 18.424 53.2023 18.552C52.3863 18.68 51.8103 18.904 51.4743 19.224C51.1383 19.528 50.9703 19.976 50.9703 20.568C50.9703 21.24 51.2263 21.8 51.7383 22.248C52.2503 22.68 52.8823 22.896 53.6343 22.896ZM66.2191 24.168C65.5471 24.168 64.8831 24.08 64.2271 23.904C63.5871 23.712 63.0191 23.456 62.5231 23.136C62.2191 22.928 62.0031 22.752 61.8751 22.608C61.7631 22.448 61.7071 22.272 61.7071 22.08C61.7071 21.92 61.7551 21.784 61.8511 21.672C61.9631 21.56 62.0911 21.504 62.2351 21.504C62.3791 21.504 62.6271 21.624 62.9791 21.864C63.4431 22.168 63.9151 22.416 64.3951 22.608C64.8911 22.8 65.5071 22.896 66.2431 22.896C67.1871 22.896 67.9231 22.728 68.4511 22.392C68.9791 22.04 69.2431 21.544 69.2431 20.904C69.2431 20.52 69.1471 20.208 68.9551 19.968C68.7631 19.712 68.4431 19.496 67.9951 19.32C67.5471 19.128 66.9071 18.944 66.0751 18.768C64.6511 18.448 63.6351 18.04 63.0271 17.544C62.4351 17.032 62.1391 16.352 62.1391 15.504C62.1391 14.48 62.5391 13.656 63.3391 13.032C64.1391 12.392 65.1791 12.072 66.4591 12.072C67.0831 12.072 67.6751 12.152 68.2351 12.312C68.8111 12.472 69.3071 12.704 69.7231 13.008C70.2831 13.392 70.5631 13.768 70.5631 14.136C70.5631 14.296 70.5071 14.44 70.3951 14.568C70.2991 14.68 70.1791 14.736 70.0351 14.736C69.8751 14.736 69.6271 14.608 69.2911 14.352C68.8591 14.048 68.4271 13.808 67.9951 13.632C67.5791 13.44 67.0431 13.344 66.3871 13.344C65.5551 13.344 64.8911 13.536 64.3951 13.92C63.8991 14.288 63.6511 14.792 63.6511 15.432C63.6511 15.8 63.7311 16.104 63.8911 16.344C64.0671 16.584 64.3551 16.8 64.7551 16.992C65.1711 17.168 65.7631 17.344 66.5311 17.52C67.6351 17.776 68.4831 18.048 69.0751 18.336C69.6671 18.624 70.0911 18.968 70.3471 19.368C70.6031 19.768 70.7311 20.28 70.7311 20.904C70.7311 21.88 70.3151 22.672 69.4831 23.28C68.6671 23.872 67.5791 24.168 66.2191 24.168ZM78.8589 22.896C79.3069 22.944 79.5309 23.152 79.5309 23.52C79.5309 23.712 79.4589 23.864 79.3149 23.976C79.1709 24.088 78.9389 24.136 78.6189 24.12L77.9469 24.072C76.7309 23.992 75.8269 23.624 75.2349 22.968C74.6589 22.296 74.3709 21.28 74.3709 19.92V13.536H72.5469C72.3549 13.536 72.2029 13.488 72.0909 13.392C71.9789 13.28 71.9229 13.136 71.9229 12.96C71.9229 12.784 71.9789 12.64 72.0909 12.528C72.2029 12.416 72.3549 12.36 72.5469 12.36H74.3709V9.384C74.3709 9.144 74.4349 8.96 74.5629 8.832C74.6909 8.704 74.8669 8.64 75.0909 8.64C75.3149 8.64 75.4909 8.704 75.6189 8.832C75.7629 8.96 75.8349 9.144 75.8349 9.384V12.36H78.7389C78.9469 12.36 79.1069 12.416 79.2189 12.528C79.3309 12.64 79.3869 12.784 79.3869 12.96C79.3869 13.136 79.3309 13.28 79.2189 13.392C79.1069 13.488 78.9469 13.536 78.7389 13.536H75.8349V19.992C75.8349 20.984 76.0269 21.696 76.4109 22.128C76.7949 22.544 77.3949 22.784 78.2109 22.848L78.8589 22.896ZM86.2784 24.168C85.2064 24.168 84.2624 23.92 83.4464 23.424C82.6464 22.928 82.0224 22.224 81.5744 21.312C81.1264 20.4 80.9024 19.336 80.9024 18.12C80.9024 16.904 81.1264 15.84 81.5744 14.928C82.0224 14.016 82.6464 13.312 83.4464 12.816C84.2624 12.32 85.2064 12.072 86.2784 12.072C87.3344 12.072 88.2704 12.32 89.0864 12.816C89.9024 13.312 90.5264 14.016 90.9584 14.928C91.4064 15.84 91.6304 16.904 91.6304 18.12C91.6304 19.336 91.4064 20.4 90.9584 21.312C90.5264 22.224 89.9024 22.928 89.0864 23.424C88.2704 23.92 87.3344 24.168 86.2784 24.168ZM86.2544 22.872C87.4864 22.872 88.4384 22.464 89.1104 21.648C89.7824 20.832 90.1184 19.656 90.1184 18.12C90.1184 16.616 89.7744 15.448 89.0864 14.616C88.4144 13.768 87.4784 13.344 86.2784 13.344C85.0624 13.344 84.1184 13.768 83.4464 14.616C82.7744 15.448 82.4384 16.616 82.4384 18.12C82.4384 19.656 82.7664 20.832 83.4224 21.648C84.0784 22.464 85.0224 22.872 86.2544 22.872Z" fill="#fff"/>
</svg>
