<svg width="22" height="33" viewBox="0 0 22 33" fill="none" xmlns="http://www.w3.org/2000/svg">
<path d="M8.71873 8.53125C10.425 10.2375 10.425 13.0125 8.71873 14.7188C7.86248 15.575 6.74373 16 5.62498 16C4.50623 16 3.38748 15.575 2.53123 14.7188C0.356225 12.5438 -2.47955e-05 6 -2.47955e-05 6C-2.47955e-05 6 6.54373 6.35625 8.71873 8.53125ZM3.41248 13.8375C4.00623 14.425 4.78748 14.75 5.62498 14.75C6.18123 14.75 7.03125 14.2688 7.5 14C6.925 12.2 5.53748 10.9438 4.12498 9.75C5.76873 10.6 7.04375 11.9125 8 13.5C8.925 12.275 8.94998 10.5312 7.83123 9.4125C6.74373 8.325 3.72498 7.65625 1.37498 7.375C1.65623 9.725 2.32498 12.7438 3.41248 13.8375Z" fill="black"/>
<path d="M20.752 22.848C20.96 23.04 21.064 23.24 21.064 23.448C21.064 23.624 21 23.784 20.872 23.928C20.744 24.056 20.592 24.12 20.416 24.12C20.256 24.12 20.088 24.048 19.912 23.904L13.384 18.336V23.376C13.384 23.616 13.312 23.8 13.168 23.928C13.04 24.056 12.872 24.12 12.664 24.12C12.44 24.12 12.256 24.056 12.112 23.928C11.984 23.8 11.92 23.616 11.92 23.376V7.704C11.92 7.464 11.984 7.28 12.112 7.152C12.256 7.024 12.44 6.96 12.664 6.96C12.872 6.96 13.04 7.024 13.168 7.152C13.312 7.28 13.384 7.464 13.384 7.704V17.736L19.36 12.36C19.536 12.216 19.704 12.144 19.864 12.144C20.056 12.144 20.216 12.216 20.344 12.36C20.488 12.488 20.56 12.648 20.56 12.84C20.56 13.08 20.464 13.272 20.272 13.416L15.088 18L20.752 22.848Z" fill="black"/>
</svg>
