<svg width="454" height="353" viewBox="0 0 454 353" fill="none" xmlns="http://www.w3.org/2000/svg">
<g clip-path="url(#clip0)">
<path d="M287.558 351.948C287.558 351.948 280.615 334.844 301.445 322.015L287.558 351.948Z" fill="#E6E6E6"/>
<path d="M279.019 351.637C279.019 351.637 276.901 339.446 260.508 339.55L279.019 351.637Z" fill="#E6E6E6"/>
<path d="M435.626 351.948C435.626 351.948 426.453 329.351 453.971 312.403L435.626 351.948Z" fill="#E6E6E6"/>
<path d="M424.343 351.537C424.343 351.537 421.545 335.431 399.887 335.569L424.343 351.537Z" fill="#E6E6E6"/>
<path d="M264.059 98.6894L255 93.8737L255.678 93.5129L264.737 98.3292L264.059 98.6894Z" fill="#CBCBCB"/>
<path d="M256.156 98.6894L255.479 98.3292L264.537 93.5129L265.215 93.8737L256.156 98.6894Z" fill="#CBCBCB"/>
<path d="M188.73 61.3605L188.293 62.2144L190.852 63.5268L191.289 62.673L188.73 61.3605Z" fill="#CBCBCB"/>
<path d="M241.79 89.6494L236.697 87.0371L237.134 86.1833L242.228 88.7955L241.79 89.6494ZM231.603 84.4249L226.509 81.8124L226.946 80.9585L232.04 83.571L231.603 84.4249ZM221.416 79.2002L216.322 76.588L216.759 75.7341L221.853 78.3463L221.416 79.2002ZM211.228 73.9757L206.135 71.3635L206.572 70.5096L211.665 73.1218L211.228 73.9757ZM201.041 68.7513L195.947 66.139L196.384 65.2852L201.478 67.8974L201.041 68.7513Z" fill="#CBCBCB"/>
<path d="M247.32 91.4076L246.883 92.2615L249.442 93.5739L249.879 92.7201L247.32 91.4076Z" fill="#CBCBCB"/>
<path d="M54.0945 125.58C54.0945 125.88 54.0848 126.177 54.0654 126.472C53.9566 128.171 53.5276 129.835 52.8011 131.374C52.7955 131.387 52.7889 131.4 52.7833 131.412C52.7495 131.483 52.7148 131.555 52.6791 131.625C52.463 132.061 52.2233 132.484 51.9611 132.893C50.7632 134.772 49.1213 136.327 47.1806 137.42C45.2398 138.513 43.0599 139.111 40.8334 139.16L40.9677 146.885L42.7181 145.963L43.0306 146.557L40.9808 147.638L41.2314 161.985L41.2342 162.177L39.8808 162.478L39.8836 162.286L40.3097 139.161C38.5177 139.136 36.7485 138.754 35.1051 138.038C33.4617 137.322 31.9767 136.287 30.7363 134.993C30.6509 134.904 30.5664 134.813 30.4838 134.723L30.4744 134.713C29.441 133.585 28.6052 132.29 28.0023 130.884C28.0154 130.899 28.0295 130.913 28.0426 130.928C26.68 127.739 26.5876 124.149 27.7843 120.894C28.9811 117.639 31.3763 114.965 34.4793 113.421C34.5262 113.397 34.5741 113.375 34.6211 113.351C37.6905 111.872 41.2033 111.6 44.4633 112.591C47.7233 113.581 50.4925 115.761 52.222 118.699C52.3046 118.838 52.3844 118.98 52.4614 119.123C53.5357 121.105 54.0971 123.325 54.0945 125.58Z" fill="#E5E5E5"/>
<path d="M52.2661 131.419C62.091 131.419 70.0557 123.448 70.0557 113.615C70.0557 103.783 62.091 95.8115 52.2661 95.8115C42.4412 95.8115 34.4766 103.783 34.4766 113.615C34.4766 123.448 42.4412 131.419 52.2661 131.419Z" fill="#E5E5E5"/>
<path opacity="0.2" d="M39.1307 101.724C37.4713 105.609 37.2462 109.957 38.4956 113.993C39.745 118.028 42.3875 121.488 45.9508 123.753C49.5141 126.018 53.7662 126.941 57.9471 126.358C62.128 125.774 65.9653 123.722 68.7734 120.567C67.7597 122.94 66.2426 125.065 64.3271 126.793C62.4116 128.521 60.1435 129.812 57.6801 130.576C55.2166 131.34 52.6167 131.559 50.0603 131.218C47.504 130.876 45.0524 129.982 42.8754 128.599C40.6984 127.215 38.848 125.374 37.4525 123.203C36.057 121.033 35.1498 118.584 34.7936 116.028C34.4374 113.471 34.6407 110.868 35.3896 108.398C36.1385 105.928 37.415 103.651 39.1307 101.724Z" fill="black"/>
<path d="M53.2289 163.214L51.4121 162.704L51.4159 162.508L51.9604 132.893L51.9876 131.417L51.9881 131.374L52.0834 126.199L52.2212 118.7V118.699L52.3148 113.616H52.3649L52.4607 119.123L52.5854 126.291L52.6747 131.377V131.415L52.6785 131.624V131.625L52.8511 141.54L52.8691 142.525L53.2257 163.017L53.2289 163.214Z" fill="#3F3D56"/>
<path d="M55.1438 140.331L52.2031 141.88L52.6129 142.659L55.5536 141.11L55.1438 140.331Z" fill="#3F3D56"/>
<path d="M282.872 55.9958C260.418 54.6673 237.897 55.0137 215.495 57.0323C204.698 58.0091 193.729 59.0641 183.131 61.4213C174.594 63.3199 164.687 66.5289 159.368 74.003C158.255 75.509 157.504 77.2525 157.175 79.097C156.846 80.9416 156.949 82.8373 157.474 84.6358C158.742 88.8966 161.896 92.4431 165.256 95.221C172.989 101.614 182.583 105.335 191.153 110.414C206.801 119.688 221.122 132.188 230.314 148.066C234.358 155.054 238.206 164.345 233.702 172.044C229.29 179.586 219.44 182.185 211.407 183.411C201.339 184.947 190.968 184.53 180.857 183.67C169.773 182.635 158.751 181.02 147.836 178.829C126.452 174.72 105.264 169.493 83.5833 167.116C72.7126 165.836 61.7502 165.519 50.8238 166.168C40.9559 166.834 31.0036 168.396 21.7335 171.957C14.5901 174.701 6.97553 178.853 3.11694 185.777C-0.602567 192.451 0.848159 200.147 4.89824 206.305C9.77132 213.715 17.3702 218.792 25.2705 222.503C34.2658 226.728 43.887 229.467 53.5206 231.796C58.4064 232.977 63.3187 234.045 68.2314 235.107C69.2563 235.329 69.6942 233.753 68.6656 233.531C58.7587 231.389 48.8231 229.239 39.1621 226.138C30.222 223.268 21.0729 219.591 13.7517 213.565C7.82885 208.689 2.19743 201.568 2.54702 193.471C2.89944 185.309 9.74216 179.61 16.449 176.102C24.8306 171.719 34.3533 169.583 43.6844 168.467C54.3687 167.276 65.1437 167.129 75.8564 168.029C97.4857 169.676 118.632 174.607 139.839 178.908C160.44 183.087 181.685 186.956 202.798 185.884C211.167 185.459 220.133 184.259 227.522 180.032C230.905 178.096 233.956 175.367 235.675 171.815C237.224 168.435 237.714 164.665 237.08 161.001C235.882 152.953 231.106 145.491 226.34 139.08C221.116 132.128 215.056 125.845 208.297 120.375C200.879 114.401 192.881 109.186 184.423 104.81C179.938 102.447 175.389 100.174 171.114 97.4368C167.016 94.8121 162.973 91.654 160.47 87.3932C158.305 83.7079 157.908 79.5019 160.163 75.7642C162.443 71.9838 166.372 69.3473 170.247 67.4206C179.582 62.7785 190.435 61.5359 200.649 60.2626C222.579 57.5381 244.68 56.4353 266.773 56.963C272.143 57.0894 277.509 57.3119 282.872 57.6305C283.922 57.6923 283.918 56.0574 282.872 55.9958V55.9958Z" fill="black"/>
<path d="M268.627 3.59661L272.018 0.881771C269.383 0.590842 268.301 2.02897 267.858 3.16726C265.799 2.31184 263.559 3.43291 263.559 3.43291L270.345 5.89846C270.002 4.98333 269.406 4.18484 268.627 3.59661Z" fill="#3F3D56"/>
<path d="M252.168 12.1913L255.559 9.4765C252.925 9.18557 251.842 10.6237 251.399 11.762C249.34 10.9066 247.1 12.0276 247.1 12.0276L253.886 14.4932C253.543 13.5781 252.947 12.7796 252.168 12.1913Z" fill="#3F3D56"/>
<path d="M268.627 25.7997L272.018 23.0849C269.383 22.794 268.301 24.2321 267.858 25.3704C265.799 24.515 263.559 25.636 263.559 25.636L270.345 28.1016C270.002 27.1864 269.406 26.388 268.627 25.7997Z" fill="#3F3D56"/>
<path d="M217.781 29.8217C223.425 29.8217 228 25.243 228 19.5949C228 13.9469 223.425 9.36816 217.781 9.36816C212.137 9.36816 207.562 13.9469 207.562 19.5949C207.562 25.243 212.137 29.8217 217.781 29.8217Z" fill="#FF6583"/>
<path d="M249.825 51.1085H199.695C199.632 51.1093 199.57 51.1043 199.508 51.0936L223.217 9.99558C223.362 9.73956 223.572 9.52658 223.826 9.37838C224.079 9.23019 224.368 9.1521 224.662 9.1521C224.956 9.1521 225.244 9.23019 225.498 9.37838C225.752 9.52658 225.962 9.73956 226.107 9.99558L242.018 37.5746L242.78 38.8941L249.825 51.1085Z" fill="#00BFA6"/>
<path d="M277.734 51.109H234.377L242.778 38.8955L243.383 38.0154L254.33 22.0992C254.524 21.8557 254.767 21.6557 255.043 21.5122C255.319 21.3687 255.622 21.2849 255.932 21.2664C256.242 21.2478 256.553 21.2949 256.844 21.4045C257.135 21.5141 257.4 21.6838 257.621 21.9025C257.678 21.9647 257.73 22.0304 257.779 22.0992L277.734 51.109Z" fill="#00BFA6"/>
<path d="M206.216 145.368C210.967 147.745 213.86 150.884 213.86 154.327C213.86 161.744 200.45 167.757 183.907 167.757C176.715 167.757 170.117 166.619 164.953 164.725C170.437 167.468 178.398 169.196 187.262 169.196C203.804 169.196 217.215 163.183 217.215 155.766C217.215 151.573 212.929 147.831 206.216 145.368Z" fill="#F1F1F1"/>
<path d="M216.785 150.463C222.146 153.145 225.41 156.687 225.41 160.572C225.41 168.941 210.278 175.726 191.612 175.726C183.496 175.726 176.051 174.442 170.225 172.305C176.413 175.4 185.396 177.349 195.397 177.349C214.064 177.349 229.196 170.565 229.196 162.195C229.196 157.465 224.359 153.242 216.785 150.463Z" fill="#F1F1F1"/>
<path d="M202.17 147.612C205.518 149.287 207.556 151.498 207.556 153.924C207.556 159.149 198.108 163.386 186.453 163.386C181.913 163.444 177.396 162.722 173.1 161.25C176.963 163.182 182.572 164.399 188.817 164.399C200.471 164.399 209.919 160.163 209.919 154.938C209.919 151.984 206.9 149.347 202.17 147.612Z" fill="#F1F1F1"/>
<path d="M155.135 146.653C155.135 146.653 155.87 157.414 176.957 157.414C198.044 157.414 204.34 146.653 204.34 146.653H155.135Z" fill="#3F3D56"/>
<path d="M185.067 118.419C182.022 116.105 178.202 115.059 174.404 115.5C177.798 116.319 180.795 118.308 182.869 121.118C184.944 123.928 185.963 127.379 185.749 130.866C185.534 134.353 184.099 137.653 181.696 140.187C179.292 142.721 176.074 144.326 172.605 144.722C175.923 145.524 179.415 145.158 182.495 143.685C185.575 142.213 188.054 139.725 189.516 136.639C190.978 133.552 191.334 130.056 190.524 126.738C189.714 123.42 187.786 120.483 185.067 118.419Z" fill="#3F3D56"/>
<path d="M178.156 113.558H176.719V147.809H178.156V113.558Z" fill="#3F3D56"/>
<path d="M272.643 88.1097L272.636 88.0965L272.616 87.2599L277.12 80.715L272.622 86.6337L272.606 86.8105L272.452 80.1209L276.342 73.3353L272.441 78.9457L272.481 65.0864L272.481 65.0403L272.48 65.0857L272.221 76.0086L268.676 71.5717L272.21 76.9496L272.133 82.9334L268.87 77.0935L272.121 83.8131L272.077 87.1403L271.958 96.3584L271.95 97.0472C272.25 97.0495 272.547 97.0445 272.842 97.0322L272.638 88.178L272.643 88.1097Z" fill="#CBCBCB"/>
<path d="M251.077 90.9874L251.069 90.9742L251.05 90.1376L255.554 83.5927L251.055 89.5114L251.039 89.6882L250.885 82.9986L254.776 76.2131L250.874 81.8233L250.915 67.9641L250.915 67.918L250.913 67.9633L250.655 78.8863L247.109 74.4494L250.644 79.8273L250.566 85.811L247.303 79.9712L250.554 86.6908L250.511 90.018L250.392 99.2361L250.383 99.9249C250.684 99.9272 250.981 99.9222 251.275 99.9099L251.071 91.0557L251.077 90.9874Z" fill="#CBCBCB"/>
<path d="M261.62 81.8744L261.612 81.8612L261.593 81.0245L266.097 74.4797L261.598 80.3983L261.582 80.5752L261.428 73.8855L265.318 67.1L261.417 72.7103L261.458 58.8511L261.458 58.8049L261.456 58.8503L261.198 69.7732L257.652 65.3364L261.187 70.7143L261.109 76.698L257.846 70.8581L261.097 77.5777L261.054 80.905L260.935 90.1231L260.926 90.8119C261.227 90.8141 261.524 90.8091 261.818 90.7968L261.614 81.9427L261.62 81.8744Z" fill="#CBCBCB"/>
<path d="M83.5049 241.141C86.6811 241.141 89.2559 238.564 89.2559 235.385C89.2559 232.207 86.6811 229.63 83.5049 229.63C80.3287 229.63 77.7539 232.207 77.7539 235.385C77.7539 238.564 80.3287 241.141 83.5049 241.141Z" fill="#00BFA6"/>
<path d="M390.472 341.629L385.148 343.609L374.984 323.998L382.842 321.077L390.472 341.629Z" fill="#FFB7B7"/>
<path d="M393.747 346.289L376.58 352.673L376.499 352.455C375.841 350.682 375.913 348.719 376.701 346.999C377.488 345.279 378.926 343.942 380.698 343.283L380.698 343.283L391.184 339.384L393.747 346.289Z" fill="#2F2E41"/>
<path d="M338.075 347.163L332.395 347.162L329.693 325.237L338.076 325.237L338.075 347.163Z" fill="#FFB7B7"/>
<path d="M339.06 352.673L320.746 352.672V352.44C320.746 350.548 321.497 348.734 322.834 347.396C324.171 346.058 325.984 345.306 327.874 345.306H327.875L339.061 345.307L339.06 352.673Z" fill="#2F2E41"/>
<path d="M364.079 195.1L362.226 191.391L346.474 199.273L346.937 202.519L343.926 206.46C343.926 206.46 338.83 209.242 339.756 218.515L340.683 227.325L341.841 238.684L333.734 266.736L329.564 303.828L326.553 333.734L341.146 333.039L354.582 284.355L378.209 336.748L394.424 332.575L372.186 280.645L369.407 258.853C369.407 258.853 371.26 247.262 362.457 239.38L363.847 235.207V230.064L368.48 205.532L364.079 195.1Z" fill="#2F2E41"/>
<path opacity="0.2" d="M364.513 248.115L354.32 284.281L354.844 284.429L365.037 248.263L364.513 248.115Z" fill="black"/>
<path d="M363.617 238.684H340.916V241.002H363.617V238.684Z" fill="#3F3D56"/>
<path d="M340.915 242.393C341.427 242.393 341.841 241.355 341.841 240.075C341.841 238.795 341.427 237.757 340.915 237.757C340.403 237.757 339.988 238.795 339.988 240.075C339.988 241.355 340.403 242.393 340.915 242.393Z" fill="#3F3D56"/>
<path d="M357.075 189.104C363.059 185.83 365.259 178.32 361.987 172.331C358.716 166.342 351.213 164.141 345.228 167.415C339.244 170.689 337.045 178.198 340.316 184.187C343.587 190.177 351.091 192.378 357.075 189.104Z" fill="#FFB7B7"/>
<path d="M370.05 173.847C376.083 173.847 380.975 168.952 380.975 162.913C380.975 156.875 376.083 151.98 370.05 151.98C364.016 151.98 359.125 156.875 359.125 162.913C359.125 168.952 364.016 173.847 370.05 173.847Z" fill="#2F2E41"/>
<path d="M383.913 161.742C384.344 163.191 384.47 164.713 384.283 166.213C384.097 167.713 383.601 169.158 382.829 170.457C382.056 171.755 381.022 172.879 379.794 173.758C378.565 174.637 377.167 175.251 375.689 175.562C374.211 175.873 372.685 175.874 371.207 175.565C369.728 175.256 368.33 174.643 367.1 173.766C365.87 172.888 364.836 171.765 364.061 170.468C363.287 169.17 362.79 167.726 362.602 166.226C363.384 168.856 365.127 171.096 367.483 172.5C369.839 173.904 372.637 174.37 375.32 173.805C378.004 173.241 380.377 171.687 381.969 169.452C383.561 167.217 384.255 164.465 383.913 161.742Z" fill="#2F2E41"/>
<path d="M340.753 174.828C340.432 177.654 341.052 180.507 342.516 182.945C343.98 185.383 346.206 187.27 348.85 188.313C351.495 189.356 354.409 189.497 357.141 188.714C359.873 187.932 362.271 186.269 363.964 183.984C365.656 181.699 366.548 178.919 366.502 176.075C366.456 173.231 365.473 170.482 363.707 168.253C361.941 166.025 359.49 164.441 356.733 163.748C353.977 163.055 351.069 163.292 348.46 164.421C346.303 162.679 343.628 163.219 341.454 165.057C338.994 167.135 338.265 168.562 336.357 171.979C338.233 172.243 338.877 174.564 340.753 174.828Z" fill="#2F2E41"/>
<path d="M386.147 211.995C386.009 215.658 385.735 222.867 385.735 223.235C385.735 223.623 380.273 234.94 377.914 239.81V239.813C377.746 240.156 377.596 240.467 377.463 240.741C377.28 241.119 376.993 241.437 376.636 241.657C376.279 241.877 375.866 241.989 375.446 241.981L365.136 241.796C364.569 241.786 364.028 241.558 363.626 241.158C363.223 240.759 362.991 240.219 362.977 239.652L361.827 194.255C361.823 194.105 361.849 193.956 361.903 193.817C361.958 193.677 362.04 193.55 362.144 193.443C362.249 193.336 362.374 193.25 362.511 193.192C362.649 193.134 362.797 193.104 362.947 193.104H376.243C376.805 193.104 377.355 193.263 377.831 193.561C378.307 193.86 378.689 194.287 378.933 194.793L385.315 208.007C385.913 209.248 386.199 210.618 386.147 211.995V211.995Z" fill="#00BFA6"/>
<path d="M362.798 236.537C360.152 234.932 357.775 232.922 355.753 230.578C351.055 225.29 348.198 218.62 347.61 211.568C347.086 205.535 348.282 201.05 351.165 198.239C354.83 194.665 359.819 195.184 360.03 195.208L360.253 195.233L363.633 198.095L362.676 199.227L359.652 196.666C358.727 196.619 354.947 196.609 352.187 199.312C349.646 201.799 348.602 205.88 349.085 211.44C349.644 218.154 352.358 224.507 356.821 229.55C358.746 231.779 361.003 233.698 363.512 235.239L362.798 236.537Z" fill="#00BFA6"/>
<path d="M381.984 219.29L363.969 222.993L364.068 223.476L382.083 219.773L381.984 219.29Z" fill="#3F3D56"/>
<path d="M370.108 193.094L369.615 193.114L370.785 221.803L371.279 221.783L370.108 193.094Z" fill="#3F3D56"/>
<path d="M386.147 211.995C386.008 215.658 385.735 222.868 385.735 223.236C385.735 223.623 380.273 234.94 377.914 239.81L382.312 214.255C382.482 213.272 382.91 212.352 383.552 211.588C384.194 210.825 385.027 210.246 385.967 209.911C386.114 210.595 386.175 211.296 386.147 211.995Z" fill="#3F3D56"/>
<path d="M359.129 265.552C359.518 265.05 359.793 264.468 359.933 263.848C360.074 263.229 360.077 262.585 359.942 261.964C359.807 261.343 359.538 260.759 359.153 260.253C358.769 259.748 358.278 259.332 357.716 259.037L358.609 249.142L352.734 247.132L351.668 261.123C351.234 262.101 351.175 263.205 351.5 264.224C351.825 265.244 352.513 266.108 353.433 266.654C354.352 267.2 355.44 267.389 356.49 267.186C357.54 266.983 358.479 266.402 359.129 265.552Z" fill="#FFB7B7"/>
<path d="M359.896 255.977L349.484 255.6L349.925 205.348C349.917 203.926 350.357 202.538 351.181 201.379C352.005 200.221 353.171 199.351 354.516 198.892C355.773 198.474 357.131 198.473 358.389 198.889C359.815 199.372 361.04 200.317 361.87 201.574C362.701 202.831 363.089 204.329 362.974 205.832L359.896 255.977Z" fill="#CBCBCB"/>
<path d="M451.233 352.844H243.796C243.652 352.844 243.514 352.786 243.411 352.684C243.309 352.582 243.252 352.443 243.252 352.299C243.252 352.154 243.309 352.016 243.411 351.914C243.514 351.811 243.652 351.754 243.796 351.754H451.233C451.377 351.754 451.516 351.811 451.618 351.914C451.72 352.016 451.777 352.154 451.777 352.299C451.777 352.443 451.72 352.582 451.618 352.684C451.516 352.786 451.377 352.844 451.233 352.844Z" fill="#CBCBCB"/>
</g>
<defs>
<clipPath id="clip0">
<rect width="453" height="352" fill="white" transform="translate(0.970703 0.84375)"/>
</clipPath>
</defs>
</svg>
