<svg width="900" height="600" viewBox="0 0 900 600" fill="none" xmlns="http://www.w3.org/2000/svg">
<path d="M309.086 85.767C416.558 79.529 529.235 112.016 512.673 159.11C496.109 206.204 601.223 142.384 643.169 159.363C673.034 171.45 661.096 208.25 675.543 223.078C708.668 257.074 742.549 214.264 784.709 239.951C826.869 265.638 740.552 505.382 696.507 506.72L194.149 503.668L158.099 500.428C158.099 500.428 58.3795 445.892 129.713 395.585C177.946 361.569 143.241 336.867 137.995 321.294C131.972 303.413 117.919 272.186 179.152 249.27C240.386 226.354 224.576 176.488 223.069 166.165C221.565 155.837 201.617 92.004 309.086 85.767V85.767Z" fill="url(#paint0_linear)"/>
<path fill-rule="evenodd" clip-rule="evenodd" d="M326.749 316.212C280.59 299.411 256.789 248.376 273.588 202.223C290.386 156.069 341.424 132.273 387.583 149.073C433.742 165.874 457.543 216.909 440.744 263.063C423.946 309.217 372.908 333.012 326.749 316.212Z" fill="#C7D4D9"/>
<path fill-rule="evenodd" clip-rule="evenodd" d="M333.996 295.842C298.994 283.103 280.946 244.404 293.684 209.407C306.422 174.409 345.123 156.365 380.124 169.105C415.126 181.844 433.174 220.543 420.436 255.541C407.698 290.538 368.997 308.582 333.996 295.842Z" fill="white"/>
<path d="M370.656 315.915C368.292 308.639 372.274 300.825 379.55 298.461C386.825 296.097 394.64 300.078 397.004 307.354L407.816 340.63L381.468 349.19L370.656 315.915V315.915Z" fill="#E1E4E5"/>
<path d="M405.127 331.539L376.915 340.706C373.601 341.783 371.787 345.343 372.864 348.657L413.779 474.58C414.856 477.894 418.415 479.708 421.73 478.631L449.942 469.464C453.256 468.388 455.07 464.828 453.993 461.513L413.078 335.591C412.002 332.276 408.442 330.463 405.127 331.539Z" fill="#31446C"/>
<path fill-rule="evenodd" clip-rule="evenodd" d="M548.267 439.876L538.468 424.514C526.441 405.659 509.397 390.529 489.249 380.823L449.065 361.466C442.587 358.345 435.489 356.724 428.298 356.724H419.77L423.011 367.48L377.348 356.327C372.035 355.029 366.805 358.739 366.273 364.182C366.119 365.762 366.385 367.355 367.047 368.799C367.708 370.242 368.74 371.485 370.037 372.4L382.66 381.302C374.751 385.112 373.654 395.931 380.637 401.251L387.051 406.138C380.963 409.903 380.611 418.629 386.376 422.872L395.681 429.721C395.106 432.63 395.516 435.648 396.845 438.299C398.174 440.95 400.348 443.084 403.023 444.363L412.973 449.119C414.447 449.824 415.98 450.396 417.555 450.829L463.566 463.48L514.914 497.904L548.267 439.876V439.876Z" fill="#F8AE9D"/>
<path fill-rule="evenodd" clip-rule="evenodd" d="M633.334 505.999L522.033 399.423L445.408 476.677L476.153 505.999H633.334V505.999Z" fill="#00BFA6"/>
<path d="M525 425C521.686 425 519 427.686 519 431C519 434.314 521.686 437 525 437C528.314 437 531 434.314 531 431C531 427.686 528.314 425 525 425Z" fill="white"/>
<path d="M322.747 497.582C263.144 475.823 221.454 423.928 196.978 384.228C170.402 341.126 157.806 302.683 157.682 302.298L155.051 303.347C155.175 303.732 167.86 342.466 194.601 385.859C219.313 425.956 261.435 478.379 321.777 500.41L322.747 497.582Z" fill="#00BFA6"/>
<path d="M160.012 288.329C165.434 298.58 166.38 310.23 163.477 320.327C154.003 318.009 145.216 311.292 139.793 301.041C134.365 290.79 133.418 279.139 136.322 269.043C145.801 271.361 154.583 278.078 160.012 288.329ZM154.175 327.531C159.104 329.467 163.575 332.411 167.301 336.174C171.027 339.937 173.926 344.436 175.813 349.384C166.919 354.045 155.979 354.904 145.618 350.825C140.691 348.887 136.221 345.942 132.495 342.18C128.769 338.417 125.869 333.918 123.98 328.971C132.874 324.305 143.814 323.452 154.175 327.531ZM162.348 387.812C177.664 385.624 189.303 378.384 188.345 371.641C187.386 364.898 174.193 361.206 158.877 363.395C143.561 365.584 131.922 372.824 132.88 379.566C133.839 386.309 147.032 390.001 162.348 387.812ZM183.365 422.093C198.681 419.905 210.32 412.665 209.361 405.922C208.403 399.179 195.21 395.487 179.893 397.676C164.577 399.865 152.938 407.105 153.897 413.847C154.855 420.59 168.048 424.282 183.365 422.093Z" fill="#00BFA6"/>
<path d="M178.871 344.197C179.474 333.377 183.974 323.606 190.597 316.936C196.487 323.381 199.911 333.009 199.308 343.829C198.705 354.649 194.205 364.42 187.581 371.09C181.686 364.645 178.268 355.017 178.871 344.197ZM200.81 379.675C201.254 368.849 205.618 358.995 212.14 352.207C218.131 358.533 221.691 368.09 221.247 378.916C220.804 389.742 216.439 399.596 209.911 406.385C203.932 400.058 200.367 390.501 200.81 379.675ZM216.387 433.029C220.621 430.788 225.275 430.717 229.201 432.424C228.001 436.847 225.068 440.796 220.84 443.037C216.605 445.278 211.951 445.349 208.025 443.641C209.219 439.219 212.153 435.27 216.387 433.029V433.029ZM299.647 500.89C276.478 473.053 270.794 435.485 270.106 408.873C269.357 379.979 274.171 357.395 274.22 357.17L272.62 356.933C272.571 357.158 267.718 379.911 268.465 408.995C269.156 435.871 274.902 473.824 298.357 502.007L299.647 500.89V500.89Z" fill="#00BFA6"/>
<path d="M279.378 350.945C279.113 357.559 276.238 363.58 271.908 367.729C267.898 363.867 265.489 358.032 265.754 351.417C266.016 344.802 268.892 338.781 273.221 334.632C277.234 338.495 279.64 344.329 279.378 350.945V350.945ZM265.251 368.615C267.128 370.985 268.49 373.72 269.249 376.646C270.008 379.572 270.147 382.624 269.659 385.607C263.933 385.355 258.288 382.64 254.346 377.655C252.47 375.285 251.109 372.55 250.35 369.624C249.591 366.699 249.451 363.647 249.938 360.664C255.665 360.913 261.309 363.63 265.251 368.615V368.615ZM251.99 400.706C260.176 404.02 267.997 403.787 269.458 400.185C270.919 396.582 265.468 390.976 257.283 387.662C249.097 384.348 241.276 384.581 239.815 388.183C238.353 391.786 243.805 397.392 251.99 400.706ZM252.525 423.652C260.711 426.966 268.532 426.732 269.993 423.13C271.455 419.528 266.003 413.921 257.818 410.607C249.632 407.293 241.811 407.527 240.35 411.129C238.889 414.731 244.34 420.338 252.525 423.652V423.652Z" fill="#00BFA6"/>
<path d="M272.655 383.924C276.057 378.758 281.081 375.227 286.263 373.836C287.32 378.706 286.248 384.439 282.846 389.606C279.444 394.772 274.42 398.302 269.238 399.694C268.178 394.822 269.254 389.09 272.655 383.924ZM273.303 407.725C276.628 402.51 281.609 398.9 286.775 397.421C287.916 402.261 286.931 407.999 283.606 413.214C280.281 418.429 275.301 422.039 270.132 423.516C268.996 418.679 269.979 412.94 273.303 407.725V407.725ZM265.683 438.521C268.415 438.63 270.732 439.93 272.18 441.899C270.318 443.738 267.738 444.845 265.009 444.737C262.277 444.629 259.96 443.329 258.512 441.359C260.37 439.52 262.95 438.413 265.683 438.521Z" fill="#00BFA6"/>
<path d="M369.007 506.177C363.717 498.91 334.279 460.277 314.815 453.363C293.331 445.731 312.966 474.142 312.966 474.142C312.966 474.142 275.711 431.059 261.483 434.434C248.442 437.528 260.63 463.916 260.63 463.916C260.63 463.916 246.472 449.092 228.797 448.58C211.595 448.083 239.225 501.304 240.723 504.084L369.007 506.177V506.177ZM670.871 464.113C629.375 419.31 616.432 356.711 612.882 312.091C609.026 263.644 615.1 225.323 615.16 224.945L612.447 224.68C612.384 225.064 606.261 263.666 610.131 312.433C613.71 357.497 626.791 420.736 668.801 466.097L670.871 464.113Z" fill="#00BFA6"/>
<path d="M623.28 214.065C623.433 225.194 619.132 235.534 612.219 242.861C605.123 236.712 600.544 227.115 600.396 215.989C600.242 204.86 604.543 194.52 611.457 187.193C618.555 193.337 623.126 202.937 623.28 214.065ZM601.094 244.903C604.463 248.715 606.999 253.189 608.54 258.038C610.08 262.887 610.591 268.004 610.04 273.062C600.38 273.117 590.636 269.03 583.553 260.989C576.47 252.948 573.525 242.627 574.605 232.835C584.267 232.776 594.011 236.862 601.094 244.903V244.903ZM581.653 299.89C595.728 304.772 608.869 303.728 611.005 297.559C613.141 291.389 603.462 282.43 589.388 277.549C575.313 272.667 562.171 273.711 560.035 279.881C557.9 286.05 567.578 295.009 581.653 299.89V299.89ZM584.618 338.362C598.693 343.244 611.834 342.2 613.97 336.031C616.106 329.861 606.428 320.902 592.353 316.021C578.278 311.139 565.137 312.183 563.001 318.353C560.865 324.522 570.543 333.481 584.618 338.362Z" fill="#00BFA6"/>
<path d="M614.929 269.992C620.19 261.035 628.328 254.69 636.924 251.922C639.142 260.01 637.852 269.725 632.59 278.682C627.329 287.639 619.191 293.985 610.595 296.752C608.373 288.662 609.668 278.949 614.929 269.992ZM618.161 309.892C623.288 300.86 631.346 294.384 639.908 291.471C642.263 299.502 641.121 309.216 635.994 318.249C630.867 327.281 622.809 333.757 614.242 336.668C611.894 328.647 613.031 318.93 618.161 309.892ZM608.103 362.231C612.711 362.186 616.728 364.176 619.341 367.361C616.374 370.602 612.131 372.675 607.527 372.723C602.919 372.768 598.903 370.779 596.289 367.593C599.251 364.35 603.495 362.276 608.103 362.231ZM634.757 438.501C634.757 438.501 612.293 388.842 619.802 377.762C630.181 362.448 643.086 409.438 643.717 405.307C649.661 366.303 648.416 317.111 676.219 309.657C692.022 305.42 675.175 346.396 677.136 356.954C679.097 367.511 705.389 329.819 721.58 309.875C737.77 289.934 747.685 300.936 738.301 325.129C729.226 348.523 696.346 375.936 703.706 378.282C711.066 380.627 752.335 348.038 758.554 360.048C766.181 374.774 702.608 400.769 708.987 403.703C715.367 406.636 745.649 392.849 745.649 404.578C745.649 416.307 703.801 419.241 704.89 424.313C706.653 432.525 732.939 411.499 734.992 422.895C737.091 434.549 699.308 435.433 700.627 444.55C701.386 449.788 710.902 444.306 712.623 451.508C716.548 467.93 657.006 490.945 657.006 490.945L634.757 438.501V438.501Z" fill="#00BFA6"/>
<path d="M578.898 445.786C566.555 451.556 569.886 465.887 569.886 465.887C569.886 465.887 536.423 439.808 523.911 455.029C511.399 470.251 517.976 500.084 532.649 504.936C547.321 509.785 674.948 506.386 674.948 506.386C674.948 506.386 590 440.597 578.898 445.786V445.786Z" fill="#9399A7"/>
<path d="M635.094 504.994C635.094 504.994 674.293 454.771 690.677 447.074C708.137 438.873 692.998 467.289 692.998 467.289C692.998 467.289 730.33 430.688 739.099 439.827C747.868 448.965 738.504 457.517 738.504 457.517C738.504 457.517 769.764 451.719 774.324 463.409C781.328 481.369 729.911 490.3 729.911 490.3C729.911 490.3 754.543 484.905 749.614 496.024C742.184 512.789 635.094 504.994 635.094 504.994Z" fill="#00BFA6"/>
<path d="M674.947 506.261C674.947 506.261 612.486 510.668 600.323 499.506C588.156 488.344 600.225 468.121 600.225 468.121C600.225 468.121 578.791 451.212 579.124 440.171C579.457 429.13 593.421 434.733 593.421 434.733C593.421 434.733 569.756 404.321 575.366 398.535C585.822 387.764 613.183 419.375 613.183 419.375C613.183 419.375 605.064 404.337 613.629 401.95C626.548 398.348 636.053 435.436 636.053 435.436C636.053 435.436 633.642 420.789 642.548 422.735C658.532 426.224 674.947 506.261 674.947 506.261V506.261Z" fill="#00BFA6"/>
<path d="M218.633 270.094C223.86 270.094 228.098 274.332 228.098 279.559C228.098 284.786 223.86 289.024 218.633 289.024C213.406 289.024 209.168 284.786 209.168 279.559C209.168 274.332 213.406 270.094 218.633 270.094Z" fill="#00BFA6"/>
<path d="M398.469 113.396C395.565 113.396 393.211 115.75 393.211 118.654C393.211 121.558 395.565 123.912 398.469 123.912C401.372 123.912 403.727 121.558 403.727 118.654C403.727 115.75 401.372 113.396 398.469 113.396Z" fill="#E1E4E5"/>
<path d="M648.765 158.617C645.862 158.617 643.507 160.971 643.507 163.875C643.507 166.779 645.862 169.133 648.765 169.133C651.669 169.133 654.023 166.779 654.023 163.875C654.023 160.971 651.669 158.617 648.765 158.617Z" fill="#E1E4E5"/>
<path d="M193.917 185.96C191.303 185.96 189.184 188.079 189.184 190.693C189.184 193.307 191.303 195.426 193.917 195.426C196.531 195.426 198.65 193.307 198.65 190.693C198.65 188.079 196.531 185.96 193.917 185.96Z" fill="#E1E4E5"/>
<path d="M517.141 126C525.779 128.314 530.905 137.193 528.59 145.831C526.276 154.469 517.397 159.595 508.759 157.28C500.122 154.966 494.995 146.087 497.31 137.449C499.624 128.811 508.503 123.685 517.141 126Z" fill="#00BFA6"/>
<defs>
<linearGradient id="paint0_linear" x1="464.754" y1="743.161" x2="456.828" y2="-373.855" gradientUnits="userSpaceOnUse">
<stop stop-color="white"/>
<stop offset="1" stop-color="#EEEEEE"/>
</linearGradient>
</defs>
</svg>
