<svg width="820" height="584" viewBox="0 0 820 584" fill="none" xmlns="http://www.w3.org/2000/svg">
<g clip-path="url(#clip0)">
<path opacity="0.1" d="M657.308 326.685C653.429 343.935 633.518 352.581 622.363 365.45C601.341 389.704 609.528 425.122 622.865 453.488C627.33 462.986 632.397 473.042 630.505 483.226C628.2 495.684 615.951 504.79 603.088 509.619C579.65 518.412 551.581 516.317 530.034 504.153C511.418 493.644 498.081 476.578 479.146 466.516C447.455 449.732 407.119 456.099 372.705 467.637C348.363 475.818 321.744 486.462 297.553 477.92C280.532 471.902 268.763 457.257 262.351 441.766C259.26 434.271 257.011 426.158 251.101 420.22C247.585 416.684 242.998 414.178 238.305 412.07C195.403 392.768 141.205 403.105 99.5585 381.695C71.4219 367.239 53.4026 339.97 45.4281 311.531C37.4537 283.092 38.38 253.274 40.4057 223.983C41.8455 203.148 44.4292 180.953 59.0835 164.886C74.586 147.894 101.188 141.601 125.24 144.805C149.291 148.01 171.083 159.549 190.263 173.104C214.259 190.053 236.458 211.151 265.884 218.014C285.923 222.69 307.001 220.129 327.671 219.24C362.225 217.763 396.79 221.078 431.149 224.657C447.89 226.416 464.687 228.26 481.284 230.932C485.004 231.528 488.724 232.172 492.444 232.862C494.308 233.211 496.172 233.573 498.025 233.947C499.476 234.235 500.921 234.56 502.366 234.848C504.647 235.334 506.92 235.844 509.186 236.379C515.693 237.911 522.138 239.646 528.517 241.619C550.693 248.488 568.472 260.964 589.416 269.678C603.066 275.359 617.949 276.927 630.873 284.158C646.777 293.037 661.387 308.547 657.308 326.685Z" fill="#00BFA6"/>
<path d="M747.902 525.359C755.085 538.057 748.994 580.945 748.994 580.945C748.994 580.945 709.103 564.059 701.92 551.366C698.479 545.269 697.6 538.056 699.475 531.311C701.35 524.565 705.826 518.84 711.92 515.394C718.013 511.947 725.226 511.061 731.973 512.929C738.72 514.798 744.449 519.269 747.902 525.359V525.359Z" fill="#F1F1F1"/>
<path d="M749.571 580.89L748.724 581.068C740.562 542.29 712.058 515.993 711.771 515.732L712.354 515.091C712.643 515.354 741.35 541.83 749.571 580.89Z" fill="white"/>
<path d="M813.174 539.818C803.426 557.501 748.467 581.456 748.467 581.456C748.467 581.456 739.406 522.193 749.149 504.516C753.83 496.025 761.693 489.743 771.006 487.049C780.32 484.356 790.322 485.473 798.813 490.155C807.303 494.836 813.586 502.698 816.279 512.012C818.972 521.326 817.855 531.328 813.174 539.818Z" fill="#F1F1F1"/>
<path d="M748.953 582.098L748.127 581.229C787.896 543.46 798.191 490.784 798.291 490.256L799.469 490.478C799.369 491.009 789.011 544.055 748.953 582.098Z" fill="white"/>
<path d="M192.565 405.919C186.275 405.898 180.013 405.088 173.925 403.508L172.725 403.176L171.612 402.618C131.37 382.442 97.4202 355.791 70.7051 323.407C48.5905 296.442 31.3491 265.827 19.7559 232.937C5.89231 193.559 -0.777437 152.01 0.0650616 110.272C0.0820616 109.396 0.0964489 108.72 0.0964489 108.254C0.0964489 87.9645 11.3584 70.1623 28.7877 62.9C42.1271 57.3419 163.243 7.59478 171.994 4.00041C188.474 -4.25731 206.056 2.63506 208.87 3.84035C215.18 6.4206 327.145 52.2153 351.34 63.7366C376.276 75.6107 382.929 96.9422 382.929 107.674C382.929 156.263 374.514 201.672 357.918 242.642C344.515 275.804 325.518 306.419 301.756 333.153C255.909 384.747 210.05 403.037 209.607 403.198C204.127 405.084 198.36 406.005 192.565 405.919ZM181.78 379.205C185.756 380.097 194.91 381.434 200.876 379.257C208.455 376.493 246.838 356.589 282.706 316.225C332.263 260.456 357.409 190.35 357.445 107.854C357.357 106.182 356.17 94.2618 340.384 86.745C316.658 75.4467 200.28 27.8601 199.108 27.3805L198.786 27.2442C196.347 26.2222 188.585 24.0695 183.235 26.8732L182.164 27.3726C180.867 27.9054 52.3008 80.7102 38.5892 86.4233C28.9975 90.4198 25.58 100.321 25.58 108.254C25.58 108.833 25.565 109.677 25.5438 110.767C24.448 167.214 37.5102 306.113 181.78 379.205Z" fill="#3F3D56"/>
<path d="M177.324 15.5861C177.324 15.5861 47.5893 68.8699 33.6892 74.6616C19.789 80.4533 12.839 94.3534 12.839 108.254C12.839 122.154 2.41389 303.532 177.324 391.228C177.324 391.228 193.199 395.62 205.243 391.228C217.287 386.835 370.188 312.701 370.188 107.674C370.188 107.674 370.188 86.8242 345.863 75.2408C321.538 63.6574 203.929 15.5861 203.929 15.5861C203.929 15.5861 189.486 9.21519 177.324 15.5861Z" fill="#00BFA6"/>
<path opacity="0.1" d="M191.225 57.2865V341.537C191.225 341.537 60.3317 278.53 61.4901 112.887L191.225 57.2865Z" fill="black"/>
<path d="M192.93 261.581L151.234 207.969L175.482 189.11L195.225 214.494L261.92 144.088L284.223 165.219L192.93 261.581Z" fill="white"/>
<path d="M818.07 584H437.07C436.805 584 436.551 583.895 436.363 583.707C436.176 583.52 436.07 583.265 436.07 583C436.07 582.735 436.176 582.48 436.363 582.293C436.551 582.105 436.805 582 437.07 582H818.07C818.336 582 818.59 582.105 818.777 582.293C818.965 582.48 819.07 582.735 819.07 583C819.07 583.265 818.965 583.52 818.777 583.707C818.59 583.895 818.336 584 818.07 584Z" fill="#CACACA"/>
<path d="M547.206 568.237L562.671 568.236L570.029 508.583L547.203 508.584L547.206 568.237Z" fill="#FFB8B8"/>
<path d="M543.26 563.188L573.717 563.186H573.719C578.866 563.187 583.803 565.232 587.443 568.871C591.083 572.511 593.128 577.448 593.129 582.596V583.227L543.261 583.229L543.26 563.188Z" fill="#2F2E41"/>
<path d="M599.206 568.237L614.671 568.236L622.029 508.583L599.203 508.584L599.206 568.237Z" fill="#FFB8B8"/>
<path d="M595.26 563.188L625.717 563.186H625.719C630.866 563.187 635.803 565.232 639.443 568.871C643.083 572.511 645.128 577.448 645.129 582.596V583.227L595.261 583.229L595.26 563.188Z" fill="#2F2E41"/>
<path d="M571.513 358.75L575.223 548L545.212 546.139L524.392 425.597L517.816 343.408L571.513 358.75Z" fill="#2F2E41"/>
<path d="M623.019 326.971L627.225 551L592.225 550L584.665 416.83L571.515 368.613L517.818 343.409L526.585 283.137L605.486 282.042L623.019 326.971Z" fill="#2F2E41"/>
<path d="M562.676 126.432C577.499 126.432 589.514 114.416 589.514 99.5939C589.514 84.7715 577.499 72.7556 562.676 72.7556C547.854 72.7556 535.838 84.7715 535.838 99.5939C535.838 114.416 547.854 126.432 562.676 126.432Z" fill="#FFB8B8"/>
<path d="M584.936 137.738L589.047 143.966L600.006 174.649L591.239 294.095L539.734 295.192L533.16 158.211L546.933 140.995L584.936 137.738Z" fill="#CCCCCC"/>
<path d="M512.339 161.499L503.572 160.403C503.572 160.403 501.381 161.499 500.285 169.17C499.189 176.841 486.039 244.783 486.039 244.783L503.572 328.067L523.298 301.767L511.243 255.741L523.298 209.716L512.339 161.499Z" fill="#2F2E41"/>
<path d="M624.115 160.404H630.69L647.128 249.166L631.786 318.204L616.444 293L620.827 265.604L618.636 241.496L610.965 227.249L624.115 160.404Z" fill="#2F2E41"/>
<path d="M578.534 99.5939L573.654 98.374C573.654 98.374 569.995 77.6353 561.455 80.0751C552.916 82.515 530.957 84.9548 530.957 75.1954C530.957 65.436 551.696 56.8966 563.895 58.1165C576.094 59.3365 591.674 63.3835 595.613 81.295C601.926 110.008 582.586 117.26 582.586 117.26L582.908 116.215C583.802 113.312 583.866 110.217 583.093 107.28C582.32 104.343 580.741 101.681 578.534 99.5939Z" fill="#2F2E41"/>
<path d="M504.668 160.403L539.735 146.157L547.954 140.13L572.61 249.166L584.116 136.843L629.594 160.403L614.252 234.92L612.06 263.412L618.635 286.425C618.635 286.425 641.648 302.862 633.977 320.396C626.306 337.929 617.539 339.025 617.539 339.025C617.539 339.025 580.281 303.958 578.089 295.191C575.898 286.425 572.61 271.083 572.61 271.083C572.61 271.083 553.981 341.217 532.064 340.121C510.147 339.025 510.147 316.012 510.147 316.012L515.626 291.904L524.393 266.7L520.01 225.058L504.668 160.403Z" fill="#2F2E41"/>
</g>
<defs>
<clipPath id="clip0">
<rect width="819.07" height="584" fill="white"/>
</clipPath>
</defs>
</svg>
