<svg width="900" height="600" viewBox="0 0 900 600" fill="none" xmlns="http://www.w3.org/2000/svg">
<path d="M697.094 363.978C700.56 427.828 575.727 557.66 421.864 509.605C350.303 487.253 356.364 450.154 301.95 401.261C269.516 372.12 222.914 350.083 209.953 307.724C198.756 271.162 205.622 231.864 225.034 206.303C268.692 148.816 356.827 109.452 443.669 200.026C530.51 290.6 688.139 199.304 697.094 363.978V363.978Z" fill="url(#paint0_linear)"/>
<path d="M664.579 199.067C652.326 220.935 625.491 223.94 582.499 219.784C550.166 216.653 520.682 214.23 488.346 196.601C465.714 184.27 447.798 167.587 434.723 151.383C420.553 133.83 400.776 113.796 410.471 93.8932C423.795 66.5532 500.846 43.5272 575.665 81.1832C657.854 122.56 676.566 177.695 664.579 199.067V199.067Z" fill="url(#paint1_linear)"/>
<path fill-rule="evenodd" clip-rule="evenodd" d="M591.59 446.795C591.59 420.722 612.722 399.59 638.795 399.59C664.868 399.59 686 420.722 686 446.795H591.59ZM686 446.795C686 472.868 664.868 494 638.795 494C612.722 494 591.59 472.868 591.59 446.795" fill="#00BFA6"/>
<path d="M655.001 459.477C655.001 459.477 648.922 465.113 638.796 465.113C628.666 465.113 622.592 459.477 622.592 459.477M622.943 433.409V443.272V433.409ZM654.648 433.409V443.272V433.409Z" stroke="white" stroke-width="5.514" stroke-linecap="round" stroke-linejoin="round"/>
<path fill-rule="evenodd" clip-rule="evenodd" d="M253.267 458.533C227.164 458.533 206 437.37 206 411.267C206 385.164 227.164 364 253.267 364C279.37 364 300.533 385.164 300.533 411.267C300.533 437.37 279.37 458.533 253.267 458.533V458.533Z" fill="#00BFA6"/>
<path d="M266.846 404.796L249.902 422.052L239.73 411.7" stroke="white" stroke-width="4.719" stroke-linecap="round" stroke-linejoin="round"/>
<path d="M249.662 319.832L268.833 300.661C269.532 299.963 269.532 298.831 268.834 298.133C268.136 297.435 267.004 297.435 266.305 298.133L247.134 317.304C246.436 318.003 246.436 319.135 247.134 319.833C247.832 320.531 248.964 320.531 249.662 319.832Z" fill="#E1E4E5"/>
<path d="M251.539 306.106L257.068 300.577C257.766 299.879 257.766 298.747 257.068 298.049C256.37 297.351 255.238 297.351 254.54 298.049L249.011 303.578C248.313 304.277 248.313 305.408 249.011 306.107C249.709 306.805 250.841 306.804 251.539 306.106Z" fill="#E1E4E5"/>
<path d="M690.049 261.037L709.22 241.866C709.918 241.168 709.918 240.036 709.22 239.338C708.522 238.64 707.39 238.64 706.692 239.338L687.521 258.51C686.823 259.208 686.823 260.34 687.521 261.038C688.219 261.736 689.351 261.736 690.049 261.037Z" fill="#E1E4E5"/>
<path d="M691.926 247.311L697.454 241.782C698.153 241.084 698.153 239.952 697.455 239.254C696.757 238.556 695.625 238.556 694.927 239.254L689.398 244.783C688.699 245.482 688.699 246.614 689.397 247.312C690.095 248.01 691.227 248.009 691.926 247.311Z" fill="#E1E4E5"/>
<path d="M524.039 431.659L543.21 412.487C543.909 411.789 543.909 410.657 543.211 409.959C542.513 409.261 541.381 409.261 540.682 409.96L521.511 429.131C520.813 429.829 520.813 430.961 521.511 431.659C522.209 432.357 523.341 432.357 524.039 431.659Z" fill="#E1E4E5"/>
<path d="M525.916 417.932L531.445 412.403C532.143 411.705 532.143 410.573 531.445 409.875C530.747 409.177 529.615 409.177 528.917 409.876L523.388 415.404C522.69 416.103 522.689 417.235 523.388 417.933C524.086 418.631 525.218 418.631 525.916 417.932Z" fill="#E1E4E5"/>
<path d="M354.572 431.659L373.743 412.487C374.442 411.789 374.442 410.657 373.744 409.959C373.046 409.261 371.914 409.261 371.216 409.96L352.044 429.131C351.346 429.829 351.346 430.961 352.044 431.659C352.742 432.357 353.874 432.357 354.572 431.659Z" fill="#E1E4E5"/>
<path d="M356.447 417.932L361.976 412.403C362.674 411.705 362.674 410.573 361.976 409.875C361.278 409.177 360.146 409.177 359.448 409.876L353.919 415.404C353.221 416.103 353.221 417.235 353.919 417.933C354.617 418.631 355.749 418.631 356.447 417.932Z" fill="#E1E4E5"/>
<path fill-rule="evenodd" clip-rule="evenodd" d="M211.961 189.29H216.149C216.634 189.29 217.099 189.483 217.441 189.825C217.784 190.168 217.977 190.633 217.978 191.118V195.306C217.978 195.791 217.785 196.256 217.442 196.599C217.099 196.942 216.634 197.135 216.149 197.135H211.961C211.476 197.133 211.012 196.94 210.67 196.597C210.327 196.254 210.134 195.79 210.133 195.306V191.118C210.132 190.878 210.179 190.64 210.271 190.418C210.363 190.196 210.497 189.994 210.667 189.824C210.837 189.654 211.039 189.52 211.261 189.428C211.483 189.336 211.721 189.289 211.961 189.29V189.29ZM226.483 189.29H230.671C231.676 189.29 232.5 190.114 232.5 191.118V195.306C232.5 195.791 232.307 196.256 231.964 196.599C231.621 196.942 231.156 197.135 230.671 197.135H226.483C225.998 197.133 225.534 196.94 225.192 196.597C224.849 196.254 224.656 195.79 224.655 195.306V191.118C224.655 190.114 225.479 189.29 226.483 189.29ZM241.015 189.29H245.203C246.207 189.29 247.031 190.114 247.031 191.118V195.306C247.031 195.791 246.838 196.256 246.495 196.598C246.152 196.941 245.688 197.134 245.203 197.135H241.015C240.53 197.133 240.066 196.94 239.724 196.597C239.381 196.254 239.188 195.79 239.186 195.306V191.118C239.185 190.878 239.232 190.64 239.324 190.418C239.416 190.196 239.551 189.994 239.721 189.824C239.891 189.654 240.092 189.52 240.314 189.428C240.537 189.336 240.775 189.289 241.015 189.29ZM255.536 189.29H259.725C260.729 189.29 261.553 190.114 261.553 191.118V195.306C261.553 195.791 261.36 196.256 261.017 196.598C260.674 196.941 260.21 197.134 259.725 197.135H255.536C255.05 197.135 254.584 196.942 254.24 196.6C253.895 196.257 253.701 195.792 253.699 195.306V191.118C253.704 190.633 253.9 190.17 254.243 189.828C254.587 189.486 255.051 189.293 255.536 189.29V189.29ZM270.059 189.29H274.248C275.261 189.29 276.085 190.114 276.085 191.118V195.306C276.084 195.547 276.037 195.785 275.944 196.007C275.851 196.229 275.716 196.431 275.545 196.601C275.375 196.771 275.172 196.906 274.95 196.997C274.727 197.089 274.489 197.135 274.248 197.135H270.059C269.574 197.133 269.11 196.94 268.768 196.597C268.425 196.254 268.232 195.79 268.231 195.306V191.118C268.231 190.114 269.055 189.29 270.059 189.29ZM227.016 205.125H231.204C232.208 205.125 233.032 205.949 233.032 206.953V211.151C233.03 211.635 232.837 212.099 232.494 212.441C232.152 212.784 231.688 212.977 231.204 212.979H227.016C226.531 212.979 226.066 212.786 225.723 212.443C225.38 212.1 225.187 211.636 225.187 211.151V206.962C225.185 206.721 225.232 206.482 225.323 206.259C225.415 206.036 225.549 205.834 225.719 205.663C225.889 205.492 226.091 205.357 226.314 205.264C226.536 205.172 226.775 205.125 227.016 205.125V205.125ZM241.537 205.125H245.726C246.73 205.125 247.554 205.949 247.554 206.953V211.151C247.552 211.635 247.359 212.099 247.016 212.441C246.674 212.784 246.21 212.977 245.726 212.979H241.537C241.053 212.977 240.589 212.784 240.246 212.441C239.904 212.099 239.711 211.635 239.709 211.151V206.962C239.707 206.721 239.754 206.482 239.845 206.259C239.936 206.036 240.071 205.834 240.24 205.663C240.41 205.492 240.612 205.357 240.835 205.264C241.057 205.172 241.296 205.125 241.537 205.125V205.125ZM256.06 205.125H260.249C261.262 205.125 262.086 205.949 262.086 206.953V211.151C262.083 211.636 261.889 212.101 261.545 212.444C261.2 212.787 260.734 212.979 260.249 212.979H256.06C255.576 212.977 255.112 212.784 254.769 212.441C254.427 212.099 254.234 211.635 254.232 211.151V206.962C254.232 205.949 255.056 205.125 256.06 205.125V205.125ZM241.015 172.278H245.203C246.207 172.278 247.031 173.102 247.031 174.106V178.294C247.031 178.779 246.838 179.244 246.495 179.586C246.152 179.929 245.688 180.122 245.203 180.123H241.015C240.53 180.121 240.066 179.928 239.724 179.585C239.381 179.242 239.188 178.778 239.186 178.294V174.106C239.185 173.866 239.232 173.628 239.324 173.406C239.416 173.184 239.551 172.982 239.721 172.812C239.891 172.642 240.092 172.508 240.314 172.416C240.537 172.324 240.775 172.277 241.015 172.278V172.278ZM255.536 172.278H259.725C260.729 172.278 261.553 173.102 261.553 174.106V178.294C261.553 178.779 261.36 179.244 261.017 179.586C260.674 179.929 260.21 180.122 259.725 180.123H255.536C255.05 180.123 254.584 179.93 254.24 179.588C253.895 179.245 253.701 178.78 253.699 178.294V174.106C253.704 173.621 253.9 173.158 254.243 172.816C254.587 172.474 255.051 172.281 255.536 172.278V172.278ZM416.015 237.709H420.203C420.687 237.709 421.152 237.902 421.495 238.245C421.838 238.588 422.03 239.052 422.031 239.537V243.726C422.03 244.21 421.838 244.675 421.495 245.018C421.152 245.361 420.687 245.553 420.203 245.554H416.015C415.53 245.552 415.066 245.359 414.724 245.017C414.381 244.674 414.188 244.21 414.186 243.726V239.537C414.185 239.297 414.232 239.059 414.324 238.837C414.416 238.615 414.551 238.413 414.721 238.243C414.891 238.073 415.092 237.939 415.314 237.847C415.537 237.755 415.775 237.708 416.015 237.709V237.709ZM430.536 237.709H434.725C435.729 237.709 436.553 238.533 436.553 239.537V243.726C436.552 244.21 436.36 244.675 436.017 245.018C435.674 245.361 435.209 245.553 434.725 245.554H430.536C430.052 245.552 429.588 245.359 429.245 245.016C428.903 244.674 428.71 244.21 428.708 243.726V239.537C428.708 238.533 429.532 237.709 430.536 237.709ZM445.068 237.709H449.257C450.261 237.709 451.085 238.533 451.085 239.537V243.726C451.084 244.21 450.892 244.675 450.549 245.018C450.206 245.361 449.741 245.553 449.257 245.554H445.068C444.584 245.552 444.12 245.359 443.777 245.016C443.435 244.674 443.242 244.21 443.24 243.726V239.537C443.239 239.297 443.286 239.059 443.378 238.837C443.47 238.615 443.604 238.413 443.774 238.243C443.944 238.073 444.146 237.939 444.368 237.847C444.59 237.755 444.828 237.708 445.068 237.709V237.709ZM459.59 237.709H463.778C464.783 237.709 465.607 238.533 465.607 239.537V243.726C465.606 244.211 465.413 244.675 465.07 245.018C464.728 245.361 464.263 245.554 463.778 245.554H459.59C459.104 245.554 458.638 245.362 458.294 245.019C457.95 244.676 457.755 244.211 457.753 243.726V239.537C457.758 239.052 457.954 238.589 458.297 238.247C458.641 237.905 459.105 237.712 459.59 237.709V237.709ZM474.113 237.709H478.301C479.314 237.709 480.138 238.533 480.138 239.537V243.726C480.137 243.967 480.09 244.205 479.997 244.427C479.904 244.649 479.769 244.851 479.598 245.021C479.428 245.191 479.225 245.325 479.003 245.416C478.78 245.508 478.542 245.555 478.301 245.554H474.113C473.629 245.552 473.165 245.359 472.822 245.016C472.48 244.674 472.287 244.21 472.285 243.726V239.537C472.285 238.533 473.109 237.709 474.113 237.709ZM431.069 253.545H435.258C436.262 253.545 437.086 254.369 437.086 255.373V259.57C437.084 260.054 436.891 260.518 436.548 260.86C436.206 261.203 435.742 261.396 435.258 261.398H431.069C430.584 261.397 430.12 261.205 429.777 260.862C429.434 260.519 429.241 260.055 429.241 259.57V255.382C429.239 255.141 429.286 254.902 429.377 254.679C429.468 254.456 429.603 254.254 429.772 254.083C429.942 253.912 430.144 253.777 430.367 253.684C430.589 253.592 430.828 253.545 431.069 253.545V253.545ZM445.591 253.545H449.779C450.784 253.545 451.608 254.369 451.608 255.373V259.57C451.606 260.054 451.413 260.518 451.07 260.861C450.727 261.203 450.263 261.396 449.779 261.398H445.591C445.107 261.396 444.643 261.203 444.3 260.86C443.958 260.518 443.765 260.054 443.763 259.57V255.382C443.761 255.141 443.808 254.902 443.899 254.679C443.99 254.456 444.125 254.254 444.294 254.083C444.464 253.912 444.666 253.777 444.889 253.684C445.111 253.592 445.35 253.545 445.591 253.545V253.545ZM460.114 253.545H464.303C465.315 253.545 466.139 254.369 466.139 255.373V259.57C466.136 260.055 465.942 260.52 465.598 260.863C465.254 261.205 464.788 261.398 464.303 261.398H460.114C459.63 261.396 459.166 261.203 458.823 260.86C458.481 260.518 458.288 260.054 458.286 259.57V255.382C458.286 254.369 459.11 253.545 460.114 253.545ZM445.068 220.697H449.257C450.261 220.697 451.085 221.521 451.085 222.525V226.714C451.084 227.198 450.892 227.663 450.549 228.006C450.206 228.349 449.741 228.541 449.257 228.542H445.068C444.584 228.54 444.12 228.347 443.777 228.004C443.435 227.662 443.242 227.198 443.24 226.714V222.525C443.239 222.285 443.286 222.047 443.378 221.825C443.47 221.603 443.604 221.401 443.774 221.231C443.944 221.061 444.146 220.927 444.368 220.835C444.59 220.743 444.828 220.696 445.068 220.697V220.697ZM459.59 220.697H463.778C464.783 220.697 465.607 221.521 465.607 222.525V226.714C465.606 227.199 465.413 227.663 465.07 228.006C464.728 228.349 464.263 228.542 463.778 228.542H459.59C459.104 228.542 458.638 228.35 458.294 228.007C457.95 227.664 457.755 227.199 457.753 226.714V222.525C457.758 222.04 457.954 221.577 458.297 221.235C458.641 220.893 459.105 220.7 459.59 220.697V220.697Z" fill="#E1E4E5"/>
<path fill-rule="evenodd" clip-rule="evenodd" d="M127.127 261.047C127.127 255.317 131.772 250.671 137.502 250.671H222.813C228.543 250.671 233.189 255.317 233.189 261.047C233.189 266.777 228.543 271.422 222.813 271.422H137.502C131.772 271.422 127.127 266.777 127.127 261.047V261.047ZM805 312.925C805 307.195 800.355 302.549 794.624 302.549H709.314C703.584 302.549 698.938 307.195 698.938 312.925C698.938 318.655 703.584 323.3 709.314 323.3H794.624C800.355 323.3 805 318.655 805 312.925ZM127.127 299.091C127.127 293.36 131.772 288.715 137.502 288.715H183.616C189.347 288.715 193.992 293.36 193.992 299.091C193.992 304.821 189.347 309.466 183.616 309.466H137.502C131.772 309.466 127.127 304.821 127.127 299.091ZM805 350.969C805 345.238 800.355 340.593 794.624 340.593H748.511C742.78 340.593 738.135 345.238 738.135 350.969C738.135 356.699 742.78 361.344 748.511 361.344H794.624C800.355 361.344 805 356.699 805 350.969ZM127.127 333.676C127.127 327.946 131.772 323.3 137.502 323.3H183.616C189.347 323.3 193.992 327.946 193.992 333.676C193.992 339.406 189.347 344.052 183.616 344.052H137.502C131.772 344.052 127.127 339.406 127.127 333.676ZM805 385.554C805 379.824 800.355 375.179 794.624 375.179H748.511C742.78 375.179 738.135 379.824 738.135 385.554C738.135 391.284 742.78 395.93 748.511 395.93H794.624C800.355 395.93 805 391.284 805 385.554Z" fill="white" stroke="#E1E4E5" stroke-width="4" stroke-linecap="round" stroke-linejoin="round"/>
<path d="M769.885 234.934C753.881 238.725 736.955 225.153 736.955 225.153C736.955 225.153 745.988 205.441 761.997 201.662C778 197.87 794.921 211.431 794.921 211.431C794.921 211.431 785.889 231.143 769.885 234.934V234.934Z" fill="url(#paint2_linear)"/>
<path d="M328.801 109.702C345.649 121.307 371.389 113.195 371.389 113.195C371.389 113.195 369.795 86.2701 352.935 74.6761C336.087 63.0711 310.359 71.1721 310.359 71.1721C310.359 71.1721 311.952 98.0971 328.801 109.702V109.702Z" fill="url(#paint3_linear)"/>
<path d="M311.57 521.655C327.781 533.076 352.812 525.478 352.812 525.478C352.812 525.478 351.544 499.366 335.322 487.955C319.112 476.534 294.092 484.121 294.092 484.121C294.092 484.121 295.36 510.234 311.57 521.655Z" fill="url(#paint4_linear)"/>
<path d="M718.278 455.878C710.781 455.878 704.704 461.691 704.704 468.862C704.704 476.033 710.781 481.846 718.278 481.846C725.774 481.846 731.852 476.033 731.852 468.862C731.852 461.691 725.774 455.878 718.278 455.878Z" fill="#00BFA6"/>
<path d="M459 115C451.82 115 446 120.633 446 127.581C446 134.529 451.82 140.162 459 140.162C466.18 140.162 472 134.529 472 127.581C472 120.633 466.18 115 459 115Z" fill="#00BFA6"/>
<path d="M102.492 315.533C98.9069 315.533 96.0004 312.626 96.0004 309.041C96.0004 305.455 98.9069 302.549 102.492 302.549C106.078 302.549 108.984 305.455 108.984 309.041C108.984 312.626 106.078 315.533 102.492 315.533Z" fill="#00BFA6"/>
<path d="M727.471 157.869C720.626 157.869 715.077 152.32 715.077 145.475C715.077 138.63 720.626 133.081 727.471 133.081C734.316 133.081 739.865 138.63 739.865 145.475C739.865 152.32 734.316 157.869 727.471 157.869Z" fill="#00BFA6"/>
<path d="M545.609 523.896C537.969 523.896 531.775 517.96 531.775 510.638C531.775 503.316 537.969 497.38 545.609 497.38C553.25 497.38 559.443 503.316 559.443 510.638C559.443 517.96 553.25 523.896 545.609 523.896Z" fill="#E1E4E5"/>
<path d="M187.075 407.458C183.255 407.458 180.158 404.361 180.158 400.541C180.158 396.721 183.255 393.624 187.075 393.624C190.895 393.624 193.992 396.721 193.992 400.541C193.992 404.361 190.895 407.458 187.075 407.458Z" fill="#E1E4E5"/>
<path d="M418.316 539.075C416.035 539.075 414.185 537.225 414.185 534.944C414.185 532.662 416.035 530.813 418.316 530.813C420.598 530.813 422.447 532.662 422.447 534.944C422.447 537.225 420.598 539.075 418.316 539.075Z" fill="#E1E4E5"/>
<path d="M662.186 120.675C658.926 120.675 656.284 118.033 656.284 114.773C656.284 111.514 658.926 108.871 662.186 108.871C665.445 108.871 668.088 111.514 668.088 114.773C668.088 118.033 665.445 120.675 662.186 120.675Z" fill="#E1E4E5"/>
<path d="M121.315 441.85C122.14 444.926 120.314 448.089 117.237 448.913C114.161 449.737 110.999 447.912 110.174 444.835C109.35 441.759 111.176 438.596 114.252 437.772C117.329 436.948 120.491 438.773 121.315 441.85Z" fill="#E1E4E5"/>
<path d="M270.836 127.674C266.599 127.674 263.164 124.239 263.164 120.002C263.164 115.765 266.599 112.33 270.836 112.33C275.073 112.33 278.508 115.765 278.508 120.002C278.508 124.239 275.073 127.674 270.836 127.674Z" fill="#E1E4E5"/>
<path d="M732.508 291.24C729.249 291.24 726.606 289.126 726.606 286.519C726.606 283.912 729.249 281.798 732.508 281.798C735.768 281.798 738.41 283.912 738.41 286.519C738.41 289.126 735.768 291.24 732.508 291.24Z" fill="#E1E4E5"/>
<path d="M546.295 139.593C548.01 145.996 544.21 152.578 537.807 154.294C531.404 156.01 524.822 152.21 523.107 145.806C521.391 139.403 525.191 132.822 531.594 131.106C537.997 129.39 544.579 133.19 546.295 139.593Z" fill="#E1E4E5"/>
<path d="M789.029 250.671H789.183C790.097 263.625 799.731 263.824 799.731 263.824C799.731 263.824 789.108 264.032 789.108 279C789.108 264.032 778.485 263.824 778.485 263.824C778.485 263.824 788.114 263.625 789.029 250.671V250.671ZM145.286 172.278H145.552C147.127 194.947 163.718 195.296 163.718 195.296C163.718 195.296 145.422 195.659 145.422 221.853C145.422 195.659 127.127 195.296 127.127 195.296C127.127 195.296 143.712 194.947 145.286 172.278Z" fill="#E1E4E5"/>
<path d="M291.181 310.589C283.422 251.346 324.305 180.894 411.431 191.579C485.332 200.641 501.351 188.957 533.165 172.309C554.175 161.318 587.042 141.872 613.706 197.479C648.605 270.257 566.76 384.366 493.661 419.363C423.76 452.833 305.254 418.099 291.181 310.589V310.589Z" fill="#00BFA6"/>
<path d="M386.217 308.577L427.193 349.964L516.622 259.612" stroke="white" stroke-width="39.121" stroke-linecap="round" stroke-linejoin="round"/>
<defs>
<linearGradient id="paint0_linear" x1="547.894" y1="746.706" x2="314.389" y2="-306.788" gradientUnits="userSpaceOnUse">
<stop stop-color="white"/>
<stop offset="1" stop-color="#EEEEEE"/>
</linearGradient>
<linearGradient id="paint1_linear" x1="582.035" y1="340.791" x2="472.822" y2="-149.967" gradientUnits="userSpaceOnUse">
<stop stop-color="white"/>
<stop offset="1" stop-color="#EEEEEE"/>
</linearGradient>
<linearGradient id="paint2_linear" x1="709.62" y1="244.36" x2="849.715" y2="178.175" gradientUnits="userSpaceOnUse">
<stop stop-color="white"/>
<stop offset="1" stop-color="#EEEEEE"/>
</linearGradient>
<linearGradient id="paint3_linear" x1="394.432" y1="147.779" x2="261.806" y2="7.9291" gradientUnits="userSpaceOnUse">
<stop stop-color="white"/>
<stop offset="1" stop-color="#EEEEEE"/>
</linearGradient>
<linearGradient id="paint4_linear" x1="374.79" y1="559.235" x2="247.685" y2="422.326" gradientUnits="userSpaceOnUse">
<stop stop-color="white"/>
<stop offset="1" stop-color="#EEEEEE"/>
</linearGradient>
</defs>
</svg>
