<svg width="25" height="25" viewBox="0 0 25 25" fill="none" xmlns="http://www.w3.org/2000/svg">
<path d="M12.5 25C5.58608 25 0 19.3681 0 12.5C0 5.58608 5.58608 0 12.5 0C19.3681 0 25 5.58608 25 12.5C25 19.3681 19.3681 25 12.5 25Z" fill="white"/>
<path d="M21.2308 7.65738C20.59 7.93846 19.9072 8.12477 19.1954 8.21523C19.9277 7.778 20.4866 7.09092 20.7494 6.26277C20.0666 6.66985 19.3128 6.95738 18.5094 7.11785C17.8611 6.42754 16.9371 6 15.9291 6C13.9734 6 12.3989 7.58738 12.3989 9.53338C12.3989 9.81338 12.4226 10.0826 12.4808 10.3389C9.544 10.1957 6.94538 8.78815 5.19969 6.644C4.89492 7.17277 4.71615 7.778 4.71615 8.42954C4.71615 9.65292 5.34615 10.7374 6.28523 11.3652C5.71769 11.3545 5.16092 11.1897 4.68923 10.9302C4.68923 10.9409 4.68923 10.9549 4.68923 10.9689C4.68923 12.6855 5.91369 14.1114 7.51938 14.4398C7.23185 14.5185 6.91846 14.5562 6.59323 14.5562C6.36708 14.5562 6.13877 14.5432 5.92446 14.4958C6.38215 15.8948 7.68092 16.9232 9.22523 16.9566C8.02338 17.8968 6.49738 18.4632 4.84538 18.4632C4.55569 18.4632 4.27785 18.4503 4 18.4148C5.56477 19.4238 7.41923 20 9.41908 20C15.9194 20 19.4732 14.6154 19.4732 9.948C19.4732 9.79185 19.4678 9.64108 19.4603 9.49138C20.1614 8.99385 20.7505 8.37246 21.2308 7.65738Z" fill="black"/>
</svg>
